<svg width="18" height="21" viewBox="0 0 18 21" fill="none" xmlns="http://www.w3.org/2000/svg">
<path d="M3.4 3.75953C4.89031 2.29902 6.8968 1.48566 8.98343 1.49619C11.0701 1.50673 13.0682 2.34032 14.5437 3.81581C16.0192 5.2913 16.8528 7.28946 16.8633 9.37609C16.8739 11.4627 16.0605 13.4692 14.6 14.9595L10.414 19.1455C10.0389 19.5205 9.53032 19.7311 9 19.7311C8.46967 19.7311 7.96105 19.5205 7.586 19.1455L3.4 14.9595C1.91488 13.4743 1.08057 11.4599 1.08057 9.35953C1.08057 7.25915 1.91488 5.24479 3.4 3.75953Z" stroke="#333333" stroke-width="1.5" stroke-linejoin="round"/>
<path d="M9 12.3594C10.6569 12.3594 12 11.0162 12 9.35937C12 7.70252 10.6569 6.35938 9 6.35938C7.34315 6.35938 6 7.70252 6 9.35937C6 11.0162 7.34315 12.3594 9 12.3594Z" stroke="#333333" stroke-width="1.5" stroke-linecap="round" stroke-linejoin="round"/>
</svg>
