<svg width="126" height="37" viewBox="0 0 126 37" fill="none" xmlns="http://www.w3.org/2000/svg">
<g clip-path="url(#clip0_0_2113)">
<path d="M125.332 32.7135C125.332 34.6861 123.722 36.2962 121.749 36.2962H4.35716C2.36968 36.2962 0.759521 34.6861 0.759521 32.7135V4.1491C0.759521 2.15788 2.36968 0.566406 4.35716 0.566406H121.734C123.722 0.566406 125.317 2.17656 125.317 4.1491L125.332 32.7173V32.7135Z" fill="white"/>
<path d="M125.332 32.7135C125.332 34.6861 123.722 36.2962 121.749 36.2962H4.35716C2.36968 36.2962 0.759521 34.6861 0.759521 32.7135V4.1491C0.759521 2.15788 2.36968 0.566406 4.35716 0.566406H121.734C123.722 0.566406 125.317 2.17656 125.317 4.1491L125.332 32.7173V32.7135Z" fill="black"/>
<path d="M28.1285 18.234C28.0986 15.2229 30.6054 13.7547 30.7137 13.6912C29.2941 11.6253 27.1011 11.3563 26.3427 11.3264C24.4972 11.1359 22.7152 12.4322 21.785 12.4322C20.8548 12.4322 19.3866 11.3451 17.825 11.375C15.8225 11.4049 13.9434 12.5593 12.9198 14.3562C10.8053 18.0323 12.3818 23.4119 14.4179 26.3782C15.4265 27.8277 16.6258 29.4528 18.1724 29.3893C19.6854 29.3258 20.2533 28.4255 22.0988 28.4255C23.9443 28.4255 24.4487 29.3893 26.0439 29.3557C27.669 29.3258 28.7113 27.9062 29.6863 26.438C30.8519 24.783 31.3264 23.1392 31.36 23.0458C31.2816 23.0309 28.1584 21.8466 28.1247 18.234H28.1285ZM25.1323 9.36883C25.9542 8.34521 26.5034 6.95547 26.3465 5.55078C25.1622 5.59935 23.6791 6.37267 22.8273 7.36641C22.0689 8.24808 21.3927 9.68638 21.5795 11.0425C22.9057 11.1359 24.2768 10.3626 25.1286 9.36883H25.1323Z" fill="white"/>
<path d="M50.1514 29.1831H48.0219L46.8563 25.5219H42.8179L41.7121 29.1831H39.6461L43.6547 16.7352H46.1316L50.1551 29.1831H50.1514ZM46.5089 23.9939L45.4517 20.7437C45.3396 20.4112 45.1378 19.623 44.8203 18.3939H44.7904C44.6634 18.9318 44.4766 19.7014 44.2076 20.7437L43.1653 23.9939H46.5089ZM60.4362 24.5917C60.4362 26.1234 60.0253 27.3189 59.1884 28.2043C58.4487 28.9925 57.5148 29.3885 56.4276 29.3885C55.2434 29.3885 54.3766 28.9626 53.8573 28.1109V32.8293H51.8699V23.1608C51.8699 22.197 51.84 21.2219 51.7914 20.2095H53.5435L53.6556 21.6291H53.6855C54.3467 20.5569 55.3592 20.019 56.7153 20.019C57.7725 20.019 58.6542 20.4449 59.364 21.2817C60.0738 22.1185 60.4362 23.2206 60.4362 24.5954V24.5917ZM58.4002 24.6701C58.4002 23.8034 58.2096 23.0787 57.8174 22.5108C57.3915 21.928 56.8087 21.6291 56.0839 21.6291C55.5945 21.6291 55.1387 21.786 54.7427 22.1185C54.3467 22.451 54.0815 22.8769 53.9545 23.3962C53.9059 23.6017 53.876 23.7922 53.8611 23.9939V25.492C53.8611 26.1383 54.0666 26.6912 54.4588 27.147C54.8548 27.5878 55.3741 27.8269 56.0204 27.8269C56.7788 27.8269 57.3616 27.543 57.7725 26.9602C58.1984 26.3774 58.4039 25.619 58.4039 24.6739L58.4002 24.6701ZM70.7659 24.5917C70.7659 26.1234 70.3549 27.3189 69.5181 28.2043C68.7784 28.9925 67.8444 29.3885 66.7573 29.3885C65.573 29.3885 64.7063 28.9626 64.187 28.1109V32.8293H62.1995V23.1608C62.1995 22.197 62.1696 21.2219 62.1211 20.2095H63.8732L63.9853 21.6291H64.0152C64.6764 20.5569 65.6888 20.019 67.0449 20.019C68.1022 20.019 68.9839 20.4449 69.6937 21.2817C70.4035 22.1185 70.7659 23.2206 70.7659 24.5954V24.5917ZM68.7298 24.6701C68.7298 23.8034 68.5244 23.0787 68.1321 22.5108C67.7062 21.928 67.1234 21.6291 66.3986 21.6291C65.9092 21.6291 65.4535 21.786 65.0575 22.1185C64.6615 22.451 64.3962 22.8769 64.2692 23.3962C64.2057 23.6502 64.1758 23.837 64.1758 23.9939V25.492C64.1758 26.1383 64.3813 26.6912 64.7735 27.147C65.1695 27.5878 65.6888 27.8269 66.3351 27.8269C67.0935 27.8269 67.6763 27.543 68.0873 26.9602C68.5131 26.3774 68.7336 25.619 68.7336 24.6739L68.7298 24.6701ZM82.2947 25.6938C82.2947 26.751 81.9324 27.6177 81.1889 28.279C80.3857 29.0037 79.25 29.3661 77.7968 29.3661C76.4556 29.3661 75.3834 29.1121 74.5802 28.5928L75.036 26.9378C75.9027 27.4571 76.8665 27.7111 77.9238 27.7111C78.6822 27.7111 79.265 27.5393 79.6759 27.2068C80.1018 26.8743 80.3073 26.4185 80.3073 25.8507C80.3073 25.3463 80.1354 24.9204 79.788 24.573C79.4405 24.2256 78.8727 23.9118 78.0695 23.6091C75.8915 22.7873 74.8043 21.6067 74.8043 20.0451C74.8043 19.0215 75.1817 18.1847 75.955 17.5384C76.7283 16.8921 77.737 16.5596 79.0147 16.5596C80.1504 16.5596 81.0955 16.765 81.839 17.1424L81.3346 18.7675C80.6248 18.3901 79.8365 18.1996 78.9362 18.1996C78.2264 18.1996 77.6735 18.3715 77.2812 18.7189C76.9487 19.0327 76.7769 19.3988 76.7769 19.8546C76.7769 20.344 76.9674 20.7549 77.3447 21.0688C77.6772 21.3676 78.275 21.6852 79.1604 22.0326C80.2326 22.4585 81.0208 22.9628 81.5252 23.5456C82.0444 24.1135 82.2985 24.8382 82.2985 25.69L82.2947 25.6938ZM88.9184 21.7039H86.7255V26.0561C86.7255 27.162 87.1215 27.7111 87.8911 27.7111C88.2535 27.7111 88.5374 27.6812 88.7727 27.6177L88.8213 29.1308C88.4253 29.2727 87.906 29.3512 87.2747 29.3512C86.4864 29.3512 85.87 29.1158 85.4291 28.6264C84.9883 28.152 84.7679 27.3338 84.7679 26.213V21.6852H83.4603V20.1871H84.7679V18.547L86.7255 17.9643V20.2058H88.9184V21.7039ZM98.811 24.6216C98.811 25.9926 98.415 27.1283 97.6267 28.0137C96.8048 28.929 95.7028 29.3848 94.3466 29.3848C92.9905 29.3848 91.9818 28.944 91.1936 28.0772C90.4053 27.2105 90.028 26.1047 90.028 24.7635C90.028 23.4224 90.4389 22.2381 91.2421 21.3415C92.0454 20.4598 93.1362 20.0152 94.5073 20.0152C95.8784 20.0152 96.8908 20.4561 97.679 21.3228C98.4374 22.1895 98.8147 23.2804 98.8147 24.6216H98.811ZM96.7451 24.6701C96.7451 23.8482 96.5732 23.1384 96.2071 22.5556C95.7812 21.8458 95.1984 21.4834 94.4102 21.4834C93.6219 21.4834 93.0055 21.8458 92.5796 22.5556C92.2172 23.1384 92.0416 23.8632 92.0416 24.715C92.0416 25.5667 92.2135 26.2467 92.5796 26.8295C93.0055 27.5393 93.6032 27.9017 94.3952 27.9017C95.1872 27.9017 95.7513 27.5393 96.1922 26.8145C96.5545 26.1981 96.7451 25.4883 96.7451 24.6701ZM105.296 21.9728C105.091 21.9429 104.886 21.9093 104.665 21.9243C103.97 21.9243 103.417 22.1933 103.04 22.7125C102.708 23.187 102.536 23.7698 102.536 24.4796V29.198H100.548V23.045C100.548 22.0999 100.533 21.1696 100.485 20.2207H102.218L102.297 21.9392H102.345C102.551 21.3564 102.883 20.867 103.339 20.5196C103.75 20.2058 104.254 20.0451 104.773 20.0451C104.964 20.0451 105.121 20.0601 105.278 20.075L105.293 21.9691L105.296 21.9728ZM114.225 24.2741C114.225 24.573 114.21 24.8719 114.147 25.1745H108.169C108.184 26.0561 108.483 26.7361 109.036 27.2105C109.54 27.6215 110.187 27.8419 110.994 27.8419C111.875 27.8419 112.682 27.6999 113.407 27.416L113.721 28.8057C112.869 29.1681 111.875 29.3586 110.71 29.3586C109.32 29.3586 108.218 28.9477 107.43 28.1295C106.641 27.3077 106.245 26.2056 106.245 24.8308C106.245 23.456 106.608 22.3539 107.351 21.4536C108.125 20.4897 109.167 20.019 110.489 20.019C111.812 20.019 112.761 20.4934 113.422 21.4536C113.96 22.2119 114.225 23.1571 114.225 24.2779V24.2741ZM112.316 23.7548C112.331 23.1571 112.204 22.649 111.92 22.2231C111.573 21.6702 111.038 21.3863 110.329 21.3863C109.682 21.3863 109.144 21.6553 108.737 22.2082C108.405 22.6341 108.199 23.1534 108.154 23.7548H112.32H112.316Z" fill="white"/>
<path d="M42.2314 12.3358C41.6785 12.3358 41.1891 12.3059 40.7969 12.2574V6.24637C41.3498 6.16792 41.9176 6.11935 42.4855 6.11935C44.7718 6.11935 45.8291 7.24011 45.8291 9.08563C45.8291 11.2001 44.5813 12.3358 42.2314 12.3358ZM42.5789 6.89268C42.2651 6.89268 42.011 6.90762 41.7906 6.95619V11.5326C41.9027 11.5476 42.1381 11.5625 42.4519 11.5625C43.9499 11.5625 44.8017 10.7107 44.8017 9.11925C44.8017 7.68468 44.0284 6.89641 42.5789 6.89641V6.89268ZM49.1092 12.3807C47.8166 12.3807 46.9797 11.4168 46.9797 10.1093C46.9797 8.8017 47.8315 7.77434 49.1727 7.77434C50.5139 7.77434 51.3021 8.68963 51.3021 10.0308C51.3171 11.4205 50.4354 12.3807 49.1092 12.3807ZM49.1577 8.4991C48.4479 8.4991 47.9922 9.16035 47.9922 10.0906C47.9922 11.0208 48.4479 11.6671 49.1428 11.6671C49.8377 11.6671 50.2934 10.9573 50.2934 10.0756C50.2934 9.17529 49.8377 8.4991 49.1577 8.4991ZM58.6692 7.86774L57.2982 12.2835H56.3978L55.83 10.3745C55.688 9.90005 55.561 9.42933 55.4826 8.95487H55.4676C55.3892 9.42933 55.2621 9.91873 55.1202 10.3745L54.5038 12.2835H53.5735L52.2809 7.86774H53.2896L53.794 9.96729C53.906 10.4716 54.0144 10.9461 54.0928 11.3869H54.1078C54.1862 11.0096 54.2983 10.5501 54.4701 9.98224L55.1015 7.88268H55.9047L56.5025 9.94861C56.6444 10.453 56.7714 10.9424 56.8499 11.3981H56.8798C56.9433 10.9424 57.0367 10.4679 57.1786 9.94861L57.7166 7.88268L58.6618 7.86774H58.6692ZM63.75 12.2835H62.7712V9.74314C62.7712 8.96982 62.4724 8.57755 61.8896 8.57755C61.3068 8.57755 60.9108 9.08189 60.9108 9.64974V12.2686H59.932V9.11551C59.932 8.71951 59.917 8.3123 59.9021 7.85279H60.7688L60.8174 8.53272H60.8473C61.1162 8.05827 61.6505 7.7594 62.2519 7.7594C63.1822 7.7594 63.7836 8.46921 63.7836 9.61986L63.7538 12.2873L63.75 12.2835ZM66.4473 12.2835H65.4685V5.85411H66.4473V12.2873V12.2835ZM70.03 12.3769C68.7374 12.3769 67.9006 11.4131 67.9006 10.1055C67.9006 8.79797 68.7523 7.7706 70.0935 7.7706C71.4347 7.7706 72.223 8.68589 72.223 10.0271C72.223 11.4168 71.3413 12.3769 70.03 12.3769ZM70.0599 8.49536C69.3501 8.49536 68.8943 9.15661 68.8943 10.0868C68.8943 11.0171 69.3501 11.6634 70.045 11.6634C70.7398 11.6634 71.1956 10.9536 71.1956 10.0719C71.2105 9.17155 70.7548 8.49536 70.0599 8.49536ZM76.0859 12.2798L76.0074 11.7755H75.9775C75.6786 12.1864 75.2378 12.3919 74.6849 12.3919C73.8966 12.3919 73.3288 11.839 73.3288 11.0993C73.3288 10.0121 74.274 9.44427 75.8991 9.44427V9.36582C75.8991 8.78302 75.5852 8.4991 74.9838 8.4991C74.5429 8.4991 74.1619 8.61117 73.8331 8.83159L73.6277 8.18528C74.0386 7.93125 74.5429 7.80796 75.1407 7.80796C76.2913 7.80796 76.8741 8.42438 76.8741 9.63854V11.2636C76.8741 11.7045 76.8891 12.0519 76.9376 12.3209L76.0859 12.291V12.2798ZM75.9588 10.0868C74.8717 10.0868 74.3188 10.3558 74.3188 10.9685C74.3188 11.4243 74.6027 11.6634 74.9987 11.6634C75.5031 11.6634 75.9626 11.2861 75.9626 10.763V10.0831L75.9588 10.0868ZM81.671 12.2798L81.6224 11.57H81.5925C81.3086 12.1079 80.8341 12.3732 80.1729 12.3732C79.1156 12.3732 78.3274 11.443 78.3274 10.1167C78.3274 8.79049 79.1493 7.76687 80.2513 7.76687C80.8341 7.76687 81.26 7.97234 81.4991 8.36461H81.5141V5.82422H82.4929V11.0768C82.4929 11.5027 82.5078 11.8987 82.5227 12.2611H81.671V12.2761V12.2798ZM81.529 9.67589C81.529 9.05948 81.1181 8.52525 80.5054 8.52525C79.7806 8.52525 79.3398 9.17155 79.3398 10.0719C79.3398 10.9722 79.7956 11.57 80.4904 11.57C81.1069 11.57 81.5477 11.032 81.5477 10.4044L81.5327 9.67963L81.529 9.67589ZM88.7205 12.3732C87.4279 12.3732 86.5911 11.4093 86.5911 10.1018C86.5911 8.79423 87.4429 7.76687 88.7841 7.76687C90.1252 7.76687 90.9135 8.68215 90.9135 10.0233C90.9284 11.4131 90.0468 12.3732 88.7205 12.3732ZM88.7691 8.49163C88.0593 8.49163 87.6035 9.15287 87.6035 10.0831C87.6035 11.0133 88.0593 11.6596 88.7542 11.6596C89.449 11.6596 89.9048 10.9498 89.9048 10.0682C89.9048 9.16782 89.464 8.49163 88.7691 8.49163ZM96.1997 12.2761H95.221V9.73567C95.221 8.96234 94.9221 8.57008 94.3393 8.57008C93.7565 8.57008 93.3605 9.07442 93.3605 9.64227V12.2611H92.3817V9.10804C92.3817 8.71204 92.3667 8.30483 92.3518 7.84532H93.2185L93.2671 8.52525H93.297C93.566 8.05079 94.1002 7.75192 94.7017 7.75192C95.6319 7.75192 96.2334 8.46174 96.2334 9.61238V12.2798H96.2035L96.1997 12.2761ZM102.794 8.59997H101.721V10.7444C101.721 11.2973 101.912 11.5662 102.289 11.5662C102.461 11.5662 102.603 11.5513 102.73 11.5177L102.76 12.2574C102.569 12.3358 102.319 12.3695 102.002 12.3695C101.228 12.3695 100.772 11.9436 100.772 10.8228V8.59997H100.111V7.86026H100.758V7.05705L101.721 6.77313V7.87894H102.794V8.6037V8.59997ZM107.983 12.2761H107.004V9.76929C107.004 8.98102 106.705 8.58502 106.122 8.58502C105.618 8.58502 105.143 8.93246 105.143 9.62733V12.2947H104.165V5.86905H105.143V8.51778H105.158C105.472 8.04332 105.917 7.80796 106.485 7.80796C107.415 7.80796 107.983 8.53272 107.983 9.68337V12.2873V12.2761ZM113.299 10.3035H110.366C110.381 11.1404 110.934 11.6111 111.756 11.6111C112.197 11.6111 112.593 11.5326 112.94 11.4056L113.097 12.0855C112.686 12.2761 112.182 12.3545 111.614 12.3545C110.243 12.3545 109.421 11.4878 109.421 10.1317C109.421 8.77555 110.258 7.76687 111.502 7.76687C112.623 7.76687 113.332 8.6037 113.332 9.86642C113.347 10.0084 113.332 10.1653 113.303 10.3073L113.299 10.3035ZM112.398 9.60865C112.398 8.92872 112.051 8.44306 111.42 8.44306C110.852 8.44306 110.411 8.93246 110.347 9.60865H112.398Z" fill="white"/>
</g>
<defs>
<clipPath id="clip0_0_2113">
<rect width="124.572" height="35.7298" fill="white" transform="translate(0.759521 0.566406)"/>
</clipPath>
</defs>
</svg>
