<svg width="32" height="32" viewBox="0 0 32 32" fill="none" xmlns="http://www.w3.org/2000/svg">
<path d="M28.4931 1.39087H13.6825C13.3134 1.39087 13.0142 1.69009 13.0142 2.05924V7.26715L13.7554 6.80691C13.9385 6.693 14.1399 6.61191 14.3509 6.56727V2.72762H27.8247V12.3672H14.3509V10.8075L13.0142 11.6375V13.0356C13.0142 13.4048 13.3134 13.704 13.6825 13.704H28.4931C28.8622 13.704 29.1615 13.4048 29.1615 13.0356V2.05924C29.1615 1.69009 28.8622 1.39087 28.4931 1.39087Z" fill="white"/>
<path d="M18.7758 5.10108C18.6913 4.99401 18.5678 4.92486 18.4324 4.90884C18.297 4.89282 18.1608 4.93124 18.0537 5.01565L15.7515 6.8309C15.978 6.97889 16.1693 7.17481 16.3118 7.40482C16.3529 7.47133 16.3898 7.54036 16.4223 7.6115L18.6904 5.82313C18.7434 5.78133 18.7877 5.72949 18.8207 5.67058C18.8537 5.61167 18.8747 5.54684 18.8826 5.47978C18.8906 5.41273 18.8852 5.34478 18.8669 5.2798C18.8485 5.21482 18.8176 5.15409 18.7758 5.10108Z" fill="white"/>
<path d="M7.66355 4.22846C8.72603 4.22846 9.58735 3.36715 9.58735 2.30466C9.58735 1.24217 8.72603 0.380859 7.66355 0.380859C6.60106 0.380859 5.73975 1.24217 5.73975 2.30466C5.73975 3.36715 6.60106 4.22846 7.66355 4.22846Z" fill="white"/>
<path d="M15.5234 7.89457C15.253 7.45909 14.6808 7.32523 14.2452 7.5956L12.3654 8.76277L12.3567 7.02716C12.3506 5.82204 11.3652 4.84155 10.16 4.84155H9.24685C8.46667 6.86493 8.71799 6.11385 8.05576 7.83132L8.33425 6.61861C8.35355 6.5278 8.33954 6.43308 8.2948 6.35174L7.91745 5.66541L8.25233 5.05643C8.30227 4.96559 8.23642 4.85426 8.13275 4.85426H7.21281C7.10919 4.85426 7.04323 4.96559 7.09323 5.05643L7.42877 5.66668L7.0507 6.35427C7.00684 6.43409 6.99251 6.5268 7.01022 6.61614L7.25148 7.83132L6.09865 4.84155H5.16696C3.96183 4.84155 2.97641 5.82198 2.97032 7.02716L2.93605 13.8465C2.93352 14.3591 3.34695 14.7768 3.8596 14.7794H3.86436C4.37479 14.7794 4.78991 14.3668 4.79244 13.8558L4.82671 7.0365V7.03331C4.82707 6.98447 4.84682 6.93778 4.8816 6.90351C4.91639 6.86923 4.96336 6.85018 5.0122 6.85053C5.06103 6.85089 5.10772 6.87064 5.142 6.90542C5.17627 6.94021 5.19533 6.98718 5.19497 7.03602L5.19539 16.6975C6.04515 16.6614 6.8325 16.9679 7.42317 17.5062V13.737H7.90407V18.0607C8.25462 18.5752 8.44177 19.1835 8.44106 19.8061C8.44173 20.374 8.28606 20.9311 7.99112 21.4164C8.28426 21.4178 8.56895 21.4567 8.84046 21.5285C9.21171 21.2058 9.65432 20.9758 10.1319 20.8577C10.1319 4.0298 10.1117 14.4344 10.1117 7.03728C10.1116 6.98576 10.1319 6.9363 10.1683 6.89979C10.2047 6.86328 10.254 6.84272 10.3056 6.84261C10.3571 6.84251 10.4065 6.86288 10.443 6.89924C10.4796 6.9356 10.5001 6.98497 10.5002 7.0365L10.5173 10.4311C10.5181 10.5962 10.5629 10.7581 10.6471 10.9001C10.7313 11.0421 10.8518 11.159 10.9963 11.2389C11.1408 11.3188 11.3039 11.3587 11.4689 11.3545C11.634 11.3503 11.7949 11.3022 11.9351 11.2151L15.2245 9.17271C15.6599 8.90241 15.7939 8.33006 15.5234 7.89457Z" fill="white"/>
<path d="M26.1989 21.8649C27.3236 21.8649 28.2353 20.9532 28.2353 19.8286C28.2353 18.7039 27.3236 17.7922 26.1989 17.7922C25.0743 17.7922 24.1626 18.7039 24.1626 19.8286C24.1626 20.9532 25.0743 21.8649 26.1989 21.8649Z" fill="white"/>
<path d="M31.1528 24.8274C31.1464 23.5517 30.1034 22.5139 28.8276 22.5139H23.7204C23.9465 22.9526 24.0643 23.439 24.064 23.9326C24.064 24.475 23.9191 25.0418 23.6122 25.5459C24.751 25.592 25.7488 26.2032 26.332 27.106H28.7765V24.8512C28.7763 24.7976 28.7969 24.7461 28.834 24.7075C28.8711 24.669 28.9218 24.6464 28.9753 24.6445C29.0288 24.6427 29.0809 24.6618 29.1206 24.6978C29.1603 24.7337 29.1843 24.7837 29.1878 24.8371V24.8373L29.1992 27.106H31.1643L31.1528 24.8274ZM17.8402 23.9325C17.8398 23.4305 17.9616 22.9359 18.1952 22.4915H13.6611C13.8768 22.9221 13.989 23.3972 13.9886 23.8788C13.9888 24.4467 13.8332 25.0037 13.5387 25.4891C14.4759 25.4936 15.3406 25.883 15.9653 26.5293C16.571 25.9376 17.3966 25.5706 18.3049 25.5657C18.0013 25.075 17.8404 24.5095 17.8402 23.9325ZM16.295 17.7698C15.1704 17.7698 14.2586 18.6813 14.2586 19.8061C14.2586 20.9283 15.1687 21.8424 16.295 21.8424C17.4105 21.8424 18.3313 20.9409 18.3313 19.8061C18.3313 18.6826 17.4214 17.7698 16.295 17.7698ZM7.76473 23.8788C7.76439 23.3983 7.87599 22.9243 8.0907 22.4945C8.00293 22.4901 8.37214 22.4915 2.70003 22.4915C1.43087 22.4915 0.381293 23.5239 0.374848 24.805L0.363281 27.106H2.3284L2.33991 24.815C2.34096 24.761 2.36315 24.7097 2.40171 24.6719C2.44027 24.6342 2.4921 24.6132 2.54605 24.6133C2.59999 24.6134 2.65172 24.6348 2.69009 24.6727C2.72846 24.7106 2.7504 24.7621 2.75118 24.816V27.106H5.50582C6.09949 26.157 7.12028 25.561 8.2313 25.5153C7.92559 25.0242 7.76393 24.4572 7.76473 23.8788ZM5.32913 17.7698C4.20455 17.7698 3.2928 18.6815 3.2928 19.8061C3.2928 20.9256 4.19919 21.8424 5.32913 21.8424C6.44576 21.8424 7.36552 20.9379 7.36552 19.8061C7.36552 18.6814 6.45377 17.7698 5.32913 17.7698ZM25.7958 28.9235C25.7895 27.6477 24.7464 26.6099 23.4707 26.6099H18.3197C17.044 26.6099 15.9341 27.6477 15.9276 28.9234L15.9111 28.8697C15.9047 27.5991 14.8664 26.5562 13.5859 26.5562H8.43492C7.15925 26.5562 6.04931 27.594 6.04287 28.8697L6.0313 31.2243H7.99642L8.00793 28.8796C8.00805 28.8326 8.02682 28.7876 8.06012 28.7545C8.09342 28.7214 8.13852 28.7028 8.18549 28.7029C8.23246 28.7031 8.27746 28.7218 8.31059 28.7551C8.34372 28.7884 8.36226 28.8335 8.36214 28.8805V31.2244H13.5665V28.8805C13.5672 28.8308 13.5875 28.7833 13.6229 28.7484C13.6583 28.7134 13.706 28.6937 13.7557 28.6936C13.8055 28.6935 13.8533 28.7129 13.8889 28.7477C13.9244 28.7825 13.9449 28.8298 13.9459 28.8795L13.9575 31.2243H17.8812L17.8927 28.9333V28.9332C17.8928 28.8862 17.9116 28.8412 17.9449 28.8081C17.9782 28.775 18.0233 28.7564 18.0703 28.7566C18.1173 28.7567 18.1623 28.7755 18.1954 28.8088C18.2285 28.8421 18.247 28.8872 18.2469 28.9342V31.2243H23.4513V28.9342C23.452 28.8844 23.4723 28.837 23.5077 28.802C23.5431 28.7671 23.5908 28.7474 23.6405 28.7473C23.6903 28.7472 23.7381 28.7666 23.7736 28.8014C23.8092 28.8361 23.8297 28.8835 23.8307 28.9332L23.8422 31.2242H25.8073L25.7958 28.9235Z" fill="white"/>
<path d="M10.9405 25.931C12.0783 25.931 13.0006 25.0087 13.0006 23.8709C13.0006 22.7331 12.0783 21.8108 10.9405 21.8108C9.80272 21.8108 8.88037 22.7331 8.88037 23.8709C8.88037 25.0087 9.80272 25.931 10.9405 25.931Z" fill="white"/>
<path d="M20.9488 25.9845C22.0866 25.9845 23.0089 25.0622 23.0089 23.9244C23.0089 22.7866 22.0866 21.8643 20.9488 21.8643C19.811 21.8643 18.8887 22.7866 18.8887 23.9244C18.8887 25.0622 19.811 25.9845 20.9488 25.9845Z" fill="white"/>
</svg>
