<?xml version="1.0" encoding="iso-8859-1"?>
<!-- Uploaded to: SVG Repo, www.svgrepo.com, Generator: SVG Repo Mixer Tools -->
<svg version="1.1" id="Layer_1" xmlns="http://www.w3.org/2000/svg" xmlns:xlink="http://www.w3.org/1999/xlink" 
	 viewBox="0 0 512 512" xml:space="preserve">
<path style="fill:#E86F22;" d="M187.718,97.981V4.342c0-3.256-3.457-5.35-6.343-3.843l-24.16,12.62
	c-1.257,0.657-2.756,0.657-4.013,0L129.031,0.498c-2.886-1.507-6.341,0.587-6.341,3.843v93.641h65.028V97.981z"/>
<path style="fill:#C9571E;" d="M155.204,14.169v83.811H122.69V4.342c0-3.256,3.457-5.35,6.343-3.843L155.204,14.169z"/>
<path style="fill:#946132;" d="M416.404,512H84.756c-2.394,0-4.335-1.941-4.335-4.335V89.311c0-2.394,1.941-4.335,4.335-4.335
	h331.648c8.38,0,15.173,6.793,15.173,15.173v396.678C431.577,505.207,424.784,512,416.404,512z"/>
<path style="fill:#7D522A;" d="M122.69,512H84.756c-2.394,0-4.335-1.941-4.335-4.335V89.322c0-2.394,1.941-4.335,4.335-4.335h37.934
	V512z"/>
<path style="fill:#FFE666;" d="M358.203,243.646h-20.6c-4.847-3.734-10.917-5.961-17.509-5.961s-12.661,2.227-17.509,5.961h-6.16
	v-1.14c3.734-4.847,5.961-10.917,5.961-17.509s-2.227-12.662-5.961-17.509v-21.751c0-12.551-10.175-22.727-22.727-22.727h-0.067
	c-12.551,0-22.727,10.175-22.727,22.727v21.751c-3.734,4.847-5.961,10.917-5.961,17.509s2.227,12.662,5.961,17.509v1.14h-6.16
	c-4.847-3.734-10.917-5.961-17.509-5.961c-6.592,0-12.662,2.227-17.509,5.961h-20.6c-12.57,0-22.76,10.19-22.76,22.76
	c0,12.57,10.19,22.76,22.76,22.76h20.6c4.847,3.734,10.917,5.961,17.509,5.961c6.592,0,12.662-2.227,17.509-5.961h6.021
	c-3.652,4.818-5.822,10.821-5.822,17.333c0,6.592,2.227,12.662,5.961,17.509v87.23c0,12.551,10.175,22.727,22.727,22.727h0.067
	c12.551,0,22.727-10.175,22.727-22.727v-87.23c3.734-4.847,5.961-10.917,5.961-17.509c0-6.512-2.17-12.516-5.822-17.333h6.021
	c4.847,3.734,10.917,5.961,17.509,5.961s12.662-2.227,17.509-5.961h20.6c12.57,0,22.76-10.19,22.76-22.76
	C380.963,253.836,370.773,243.646,358.203,243.646z"/>
<path style="fill:#EBB23F;" d="M273.665,163.01v270.955h-0.032c-12.55,0-22.728-10.177-22.728-22.728v-87.226
	c-3.74-4.856-5.961-10.925-5.961-17.515c0-6.514,2.168-12.518,5.82-17.331h-6.015c-4.856,3.728-10.924,5.961-17.515,5.961
	c-6.589,0-12.659-2.233-17.503-5.961h-20.603c-12.572,0-22.76-10.188-22.76-22.76s10.188-22.76,22.76-22.76h20.603
	c4.844-3.739,10.914-5.961,17.503-5.961c6.59,0,12.659,2.221,17.515,5.961h6.157v-1.138c-3.74-4.856-5.961-10.925-5.961-17.515
	c0-6.59,2.221-12.659,5.961-17.503v-21.753c0-12.55,10.177-22.728,22.728-22.728L273.665,163.01L273.665,163.01z"/>
<circle style="fill:#E86F22;" cx="273.668" cy="266.062" r="8.128"/>
<g>
	<rect x="80.42" y="107.979" style="fill:#7D522A;" width="351.159" height="16.258"/>
	<rect x="80.42" y="472.753" style="fill:#7D522A;" width="351.159" height="16.258"/>
</g>
</svg>