<?xml version="1.0" encoding="iso-8859-1"?>
<!-- Uploaded to: SVG Repo, www.svgrepo.com, Generator: SVG Repo Mixer Tools -->
<svg height="800px" width="800px" version="1.1" id="Layer_1" xmlns="http://www.w3.org/2000/svg" xmlns:xlink="http://www.w3.org/1999/xlink" 
	 viewBox="0 0 512 512" xml:space="preserve">
<path style="fill:#FFC033;" d="M256,33.391C133.25,33.391,33.391,133.256,33.391,256S133.25,478.609,256,478.609
	S478.609,378.744,478.609,256S378.75,33.391,256,33.391z M256,411.826c-85.924,0-155.826-69.902-155.826-155.826
	S170.076,100.174,256,100.174S411.826,170.076,411.826,256S341.924,411.826,256,411.826z"/>
<path style="fill:#F9A926;" d="M411.826,256c0,85.924-69.902,155.826-155.826,155.826v66.783
	c122.75,0,222.609-99.864,222.609-222.609S378.75,33.391,256,33.391v66.783C341.924,100.174,411.826,170.076,411.826,256z"/>
<path style="fill:#3AACE6;" d="M495.304,239.304H308.809c-0.977-3.081-2.184-6.023-3.657-8.848l108.184-108.186
	c6.521-6.516,6.521-17.092,0-23.609c-6.521-6.521-17.087-6.521-23.609,0L281.543,206.848c-2.825-1.475-5.767-2.681-8.848-3.659
	V16.696C272.696,7.473,265.217,0,256,0s-16.696,7.473-16.696,16.696v186.494c-3.082,0.977-6.022,2.184-8.846,3.659L122.272,98.657
	c-6.521-6.521-17.087-6.521-23.609,0c-6.521,6.516-6.521,17.087,0,23.609l108.186,108.191c-1.474,2.824-2.682,5.767-3.659,8.848
	H16.696C7.479,239.304,0,246.777,0,256s7.479,16.696,16.696,16.696h186.495c0.977,3.081,2.184,6.023,3.657,8.848L98.664,389.729
	c-6.521,6.516-6.521,17.092,0,23.609c3.261,3.261,7.533,4.892,11.804,4.892c4.271,0,8.544-1.631,11.804-4.892l108.184-108.186
	c2.825,1.475,5.767,2.681,8.848,3.659v186.494c0,9.223,7.479,16.696,16.696,16.696c9.217,0,16.696-7.473,16.696-16.696V308.811
	c3.082-0.977,6.022-2.184,8.846-3.659l108.186,108.191c3.261,3.261,7.533,4.892,11.804,4.892s8.544-1.631,11.804-4.892
	c6.521-6.516,6.521-17.087,0-23.609L305.149,281.543c1.474-2.824,2.682-5.767,3.659-8.848h186.497
	c9.217,0,16.696-7.473,16.696-16.696S504.521,239.304,495.304,239.304z"/>
<path style="fill:#2B9FD9;" d="M272.696,495.304V308.811c3.082-0.977,6.022-2.184,8.846-3.659l108.186,108.191
	c3.261,3.261,7.533,4.892,11.804,4.892s8.544-1.631,11.804-4.892c6.521-6.516,6.521-17.087,0-23.609L305.15,281.543
	c1.474-2.824,2.682-5.767,3.659-8.848h186.496c9.217,0,16.696-7.473,16.696-16.696s-7.479-16.696-16.696-16.696H308.809
	c-0.977-3.081-2.184-6.023-3.657-8.848l108.184-108.186c6.521-6.516,6.521-17.092,0-23.609c-6.521-6.521-17.087-6.521-23.609,0
	L281.543,206.848c-2.825-1.475-5.767-2.681-8.848-3.659V16.696C272.696,7.473,265.217,0,256,0v512
	C265.217,512,272.696,504.527,272.696,495.304z"/>
<circle style="fill:#FFC033;" cx="256" cy="256" r="22.261"/>
<path style="fill:#F9A926;" d="M278.261,256c0-12.295-9.967-22.261-22.261-22.261v44.522
	C268.294,278.261,278.261,268.295,278.261,256z"/>
</svg>