<svg width="20" height="20" viewBox="0 0 20 20" fill="none" xmlns="http://www.w3.org/2000/svg">
<path d="M17.0538 9.1454V4.10125C17.0538 2.90241 16.0721 1.91222 14.8732 1.91222H14.6016V1.57029C14.6016 0.714933 13.9082 0.0215108 13.0528 0.0215108C12.1974 0.0215108 11.504 0.714933 11.504 1.57029V1.91222H5.82517V1.57029C5.82517 0.703059 5.12212 0 4.25489 0C3.38766 0 2.6846 0.703059 2.6846 1.57029V1.91222H2.44992C1.25103 1.91222 0.275391 2.90241 0.275391 4.10125V15.6837C0.275391 16.8826 1.25103 17.8732 2.44992 17.8732H9.27288C9.82857 18.5379 10.5231 19.0728 11.3077 19.4402C12.0923 19.8077 12.9479 19.9987 13.8143 20C17.071 20 19.7239 17.3466 19.7239 14.0897C19.724 12.0255 18.6456 10.2017 17.0538 9.1454ZM12.3645 1.57029C12.3578 1.19557 12.6562 0.886417 13.0309 0.879791C13.0369 0.879705 13.0429 0.879662 13.049 0.879705C13.4272 0.875704 13.7371 1.17909 13.7411 1.55738C13.7412 1.56168 13.7412 1.56599 13.7411 1.57029V3.24589H12.3645V1.57029ZM3.54503 1.57029C3.54912 1.18477 3.86498 0.875575 4.2505 0.879662C4.25116 0.879654 4.25182 0.879669 4.25248 0.879705C4.63941 0.879705 4.96474 1.18339 4.96474 1.57029V3.24589H3.54503V1.57029ZM1.13582 4.10125C1.13582 3.37681 1.72548 2.77265 2.44992 2.77265H2.6846V3.694C2.6846 3.93157 2.88301 4.10632 3.12062 4.10632H5.38442C5.62198 4.10632 5.82517 3.93157 5.82517 3.694V2.77265H11.504V3.694C11.5024 3.74864 11.5121 3.80301 11.5323 3.8538C11.5525 3.90458 11.5829 3.95069 11.6215 3.98931C11.6602 4.02792 11.7064 4.05822 11.7572 4.07834C11.808 4.09847 11.8624 4.10799 11.917 4.10632H14.1808C14.2359 4.10815 14.2907 4.09881 14.342 4.07884C14.3933 4.05888 14.4401 4.02871 14.4794 3.99017C14.5187 3.95163 14.5498 3.90551 14.5708 3.85461C14.5918 3.8037 14.6023 3.74907 14.6016 3.694V2.77265H14.8732C15.6025 2.78001 16.1906 3.3719 16.1934 4.10125V5.48301H1.13582V4.10125ZM2.44992 17.0128C1.72548 17.0128 1.13582 16.4081 1.13582 15.6837V6.34344H16.1934V8.67754C15.4445 8.34874 14.6354 8.17912 13.8176 8.17943C10.5608 8.17943 7.90953 10.8367 7.90953 14.0936C7.90788 15.1167 8.17236 16.1227 8.67699 17.0128H2.44992ZM13.8143 19.1319C11.0274 19.1319 8.76824 16.8727 8.76824 14.0859C8.76824 11.299 11.0274 9.03982 13.8143 9.03982C16.6011 9.03982 18.8603 11.299 18.8603 14.0859V14.0859C18.8572 16.8714 16.5998 19.1288 13.8143 19.1319Z" fill="#0C8BE8"/>
<path d="M15.8409 14.0871H13.9561V11.4985C13.9561 11.2608 13.7635 11.0682 13.5259 11.0682C13.2883 11.0682 13.0957 11.2608 13.0957 11.4985V14.5168C13.0975 14.6318 13.1445 14.7415 13.2265 14.8221C13.3086 14.9026 13.419 14.9477 13.534 14.9475H15.8409C16.0785 14.9475 16.2711 14.7549 16.2711 14.5173C16.2711 14.2797 16.0785 14.0871 15.8409 14.0871Z" fill="#0C8BE8"/>
</svg>
