<?xml version="1.0" encoding="utf-8"?>
<!-- Uploaded to: SVG Repo, www.svgrepo.com, Generator: SVG Repo Mixer Tools -->
<svg width="800px" height="800px" viewBox="-4.05 0 315.686 315.686" xmlns="http://www.w3.org/2000/svg"><defs><style>.a{fill:none;}.b{fill:#ffffff;}.c{fill:#211715;}.d{fill:#aaa;}.e{fill:#5393ce;}.f{fill:#7a7473;}</style></defs><path class="a" d="M104.541,191.9c11.3,7.624,29.981,16.231,50.485,16.28,18.514.049,39.632-7.907,48.68-15.31"/><path class="b" d="M210.558,97.249a9.126,9.126,0,0,1,6.6-2.415c4.729.167,6.741,2.724,7.607,4.226,2.584,4.483,2.475,12.743.74,17.853-1.228,3.62-3.241,9.156-8.093,13.127a10.058,10.058,0,0,1-7.756,2.238l-.745-.126a58.983,58.983,0,0,1-2.668,7.244c-1.673,4.542-9.775,18.748-20.617,27.418V174.2c-1.3,1.054-27.839,21.978-29.851,23.4l-2.338,1.657L151.1,197.6c-2.012-1.426-28.549-22.35-29.851-23.4,0,0,0-2.7,0-5.546a58.191,58.191,0,0,1-12.72-11.669,69.386,69.386,0,0,1-13.168-24.844,9.871,9.871,0,0,1-8.392-2.1c-4.852-3.971-6.865-9.507-8.094-13.127-1.735-5.11-1.844-13.37.741-17.853.866-1.5,2.877-4.059,7.606-4.226a9.124,9.124,0,0,1,6.6,2.415S81.9,39.624,154.348,39.624,210.558,97.249,210.558,97.249Z"/><path class="c" d="M179.2,172.46c.411,4.124.819,8.68,2.753,12.427a11.372,11.372,0,0,0,3.786,4.178c.908.613,2.032.828,2.928,1.412-.261-.17-.695-.3-.217-.091l.405.172,1.242.531q1.539.659,3.077,1.32,3.489,1.5,6.978,3c1.637.7,3.266,1.464,4.931,2.1a2.824,2.824,0,0,0,3.445-1.956,2.862,2.862,0,0,0-1.956-3.444c-.1-.037-.194-.08-.291-.119-.494-.2.623.265.256.108l-.439-.186q-1.174-.5-2.348-1.005-3.222-1.381-6.444-2.767-2.78-1.2-5.562-2.385c-1.648-.7-3.166-1.243-4.243-2.531.073.087.237.348-.108-.143-.113-.161-.218-.329-.318-.5-.166-.279-.471-.884-.516-.991a18.347,18.347,0,0,1-.67-2.257,53.313,53.313,0,0,1-1.089-6.87,2.88,2.88,0,0,0-2.8-2.8,2.819,2.819,0,0,0-2.8,2.8Z"/><path class="c" d="M121.914,172.682c-.31,2.949-.681,6.889-2.018,9.323a5.906,5.906,0,0,1-2.25,2.507c-.132.08-1.192.623-.864.469.3-.143.01,0-.06.026-.395.168-.792.332-1.188.5q-4.871,2.042-9.737,4.091c-2.638,1.108-5.276,2.391-8,3.286a2.863,2.863,0,0,0-1.956,3.444,2.83,2.83,0,0,0,3.445,1.956c3.013-.991,5.929-2.421,8.852-3.645q4.943-2.072,9.881-4.151c3-1.258,5.5-3.063,6.926-6.09,1.694-3.608,2.154-7.795,2.566-11.714a2.818,2.818,0,0,0-2.8-2.8,2.864,2.864,0,0,0-2.8,2.8Z"/><path class="d" d="M104.505,62.788a26.579,26.579,0,0,0-3.584,5.016c-3.962,7.055-.989,25.52-6.2,30.5a8.868,8.868,0,0,0-7.507-3.472,10.971,10.971,0,0,0-2.847.454c-2.166-8.036-3.643-16.756-3.349-23.716.985-23.313,8.51-37.328,20.834-47.128a9.578,9.578,0,0,0,1.3-1.25c10.638-12.375,29.18-21.354,48.868-20.372,15.675.781,28.186,4.749,38.938,12.319l3.644,2.565,5.437,4.912c11.3,10.206,21.5,26.119,22.494,49.593.334,7.916-.6,14.371-2.786,23a11.274,11.274,0,0,0-2.589-.377,9.126,9.126,0,0,0-6.6,2.415l-1.493-.332c-.1-10.236-5.575-34.169-19.427-39.066-3.2-1.2-15.772-4.9-22.2-5.78-8.721-1.188-16.846.181-25.56,1.425-5.724.818-11.667,1.492-19.445,2.029-7.211.319-12.808,2.19-17.156,6.464Q104.885,62.375,104.505,62.788Z"/><path class="c" d="M95.791,95.269a12.7,12.7,0,0,0-14.278-1.821c-3.328,1.711-5.206,5.127-6.016,8.66a32.582,32.582,0,0,0,5.064,24.982c3.488,5.06,8.491,8.8,14.9,7.888,1.5-.214,2.32-2.119,1.956-3.444a2.875,2.875,0,0,0-3.445-1.956c-3.466.5-6.518-2.445-8.36-5.007a29.689,29.689,0,0,1-4.045-8.4,25.192,25.192,0,0,1-1.043-10.286,15.44,15.44,0,0,1,1.112-4.687c-.1.225.262-.494.316-.591.108-.193.224-.377.339-.565.371-.6-.149.084.151-.229.209-.219.4-.449.62-.662.116-.114.242-.224.366-.327-.227.189-.111.079.058-.034a7.352,7.352,0,0,1,1.123-.636,8.673,8.673,0,0,1,2.183-.5,6.519,6.519,0,0,1,5.039,1.573c2.657,2.426,6.628-1.523,3.96-3.96Z"/><path class="c" d="M212.538,99.229a7.016,7.016,0,0,1,8.345-.441c.379.249-.065-.126.335.279.191.192.383.38.568.579.1.1.185.218.275.329-.063-.078-.3-.486-.085-.088.11.2.253.387.368.586a13.115,13.115,0,0,1,1.37,4.34c1.039,6.388-.8,13.183-4.132,18.52-1.877,3.009-5.195,6.814-9.185,6.245a2.894,2.894,0,0,0-3.444,1.956c-.361,1.313.449,3.229,1.955,3.444,10.494,1.5,16.555-8.9,19.343-17.469a30.3,30.3,0,0,0,.919-13.828c-.581-3.749-2.095-7.311-5.242-9.575-4.573-3.289-11.295-2.54-15.35,1.163-2.667,2.436,1.3,6.387,3.96,3.96Z"/><path class="c" d="M207.31,127.123a56.067,56.067,0,0,1-2.171,7.534c-.692,1.946-1.208,2.764-1.847,4.624-.115.336.326-.694.09-.217-.056.113-.1.232-.155.346-.1.225-.206.447-.312.669-.3.629-.617,1.25-.943,1.866-.733,1.383-1.517,2.738-2.334,4.073a71.534,71.534,0,0,1-15.612,18.507,29.29,29.29,0,0,1-11.7,6.08c-3.511.805-2.025,6.206,1.489,5.4,8.866-2.033,16.245-8.551,22.018-15.281A79.067,79.067,0,0,0,208.1,142.166c.285-.633.538-1.279.805-1.919-.358.858-.032.107.038-.05.167-.38.328-.766.488-1.149q.357-.861.685-1.733a57.3,57.3,0,0,0,2.6-8.7,2.87,2.87,0,0,0-1.955-3.445,2.828,2.828,0,0,0-3.445,1.956Z"/><path class="c" d="M91.492,128.4a72.889,72.889,0,0,0,10.366,24.318c5.285,7.913,12.226,15.325,20.633,19.948a40.555,40.555,0,0,0,13.646,4.62,2.892,2.892,0,0,0,3.444-1.955c.362-1.318-.45-3.224-1.956-3.445a39.023,39.023,0,0,1-20.866-10.272,66.336,66.336,0,0,1-16.031-22.711,69.273,69.273,0,0,1-3.836-11.992c-.794-3.513-6.195-2.026-5.4,1.489Z"/><path class="c" d="M192.369,12.723C182.323,5.694,170.656,1.945,158.545.553a72.4,72.4,0,0,0-19.7.245,65.982,65.982,0,0,0-17.5,5.429,63.261,63.261,0,0,0-14.876,9.67c-2.131,1.858-3.894,4.023-5.917,5.973-1.7,1.64-3.626,3.033-5.306,4.709a55.779,55.779,0,0,0-14.2,25.2A89.353,89.353,0,0,0,78.2,71.958c-.252,7.729,1.263,15.569,3.185,23.021.9,3.487,6.3,2.009,5.4-1.489a83.5,83.5,0,0,1-3-19.148,77.489,77.489,0,0,1,1.731-17.217,59.3,59.3,0,0,1,4.556-13.771,46.844,46.844,0,0,1,7.107-10.68,52.2,52.2,0,0,1,4.6-4.544c.891-.779,1.875-1.478,2.725-2.3.974-.944,1.818-2.026,2.766-3a55.515,55.515,0,0,1,12.736-9.646,60.8,60.8,0,0,1,33.783-7.46c12.807.851,25.167,4.43,35.747,11.834a2.825,2.825,0,0,0,3.831-1.005,2.858,2.858,0,0,0-1-3.831Z"/><path class="c" d="M222.69,94.979a84.5,84.5,0,0,0,2.689-18.209,80.957,80.957,0,0,0-1.67-17.945A70.228,70.228,0,0,0,211.9,31.692a72.149,72.149,0,0,0-9.882-11.054c-2.664-2.417-6.636,1.532-3.96,3.96a64.508,64.508,0,0,1,15.06,20.042,70.816,70.816,0,0,1,6.675,29.774,75.73,75.73,0,0,1-2.5,19.076c-.859,3.5,4.54,4.993,5.4,1.489Z"/><path class="c" d="M141.435,146.4a23.606,23.606,0,0,0,11.367,2.628c4.063-.026,8.18-.821,11.436-3.358,1.194-.93.976-2.983,0-3.96a2.873,2.873,0,0,0-3.96,0c.839-.653.15-.127-.066.011s-.466.284-.708.411c-.184.1-1.037.443-.3.167-.325.122-.646.249-.977.355a16.628,16.628,0,0,1-2.734.624c.389-.056-.177.016-.307.029-.269.027-.537.049-.806.067-.647.042-1.3.058-1.944.054q-.87,0-1.74-.063c-.266-.018-.532-.039-.8-.066,0,0-.931-.125-.432-.048a19.092,19.092,0,0,1-2.554-.567c-.358-.107-.707-.235-1.06-.356-.115-.039-.225-.1-.342-.133.7.2.247.11.051.018q-.657-.31-1.3-.648a2.861,2.861,0,0,0-3.831,1,2.83,2.83,0,0,0,1,3.831Z"/><path class="c" d="M151.459,119.518a53.565,53.565,0,0,1,1.265,5.789l-.1-.745a3.5,3.5,0,0,1,.022.8l.1-.744a1.94,1.94,0,0,1-.088.359l.282-.669a1.435,1.435,0,0,1-.126.231l.437-.566a1.232,1.232,0,0,1-.189.186l.567-.438a3.784,3.784,0,0,1-.458.243l.669-.282a3.373,3.373,0,0,1-.773.225l.744-.1a3.084,3.084,0,0,1-.725,0l.744.1c-.273-.038-.542-.105-.815-.142a3.1,3.1,0,0,0-2.158.282,2.8,2.8,0,0,0-1,3.831,2.677,2.677,0,0,0,1.673,1.287c.608.082,1.2.237,1.815.264A5.77,5.77,0,0,0,156,128.8a3.8,3.8,0,0,0,2.116-2.507,6.382,6.382,0,0,0-.028-2.72c-.315-1.864-.746-3.712-1.226-5.541a2.8,2.8,0,1,0-5.4,1.488Z"/><path class="c" d="M120.691,103.171c-.966,3.141-.336,10.367,5.615,10.982,7.865-.047,8.284-8.784,5.636-12.891C129.774,97.9,123.4,96.5,120.691,103.171Z"/><path class="c" d="M183.678,103.171c.967,3.141.337,10.367-5.614,10.982-7.866-.048-8.285-8.784-5.637-12.892C174.6,97.9,180.969,96.5,183.678,103.171Z"/><path class="c" d="M169.4,139.778a9.544,9.544,0,0,1,.929,1.039l-.438-.567a12.324,12.324,0,0,1,1.509,2.669l-.282-.668q.209.5.391,1.007a3.005,3.005,0,0,0,1.287,1.673,2.8,2.8,0,0,0,3.831-1,2.767,2.767,0,0,0,.282-2.158,15.226,15.226,0,0,0-3.549-5.951,2.91,2.91,0,0,0-1.98-.82,2.85,2.85,0,0,0-1.98.82,2.813,2.813,0,0,0-.82,1.98,2.882,2.882,0,0,0,.82,1.98Z"/><path class="c" d="M211.865,96.917a63.451,63.451,0,0,0-2.958-17.392c-1.979-6.511-4.859-12.994-9.429-18.116a22.481,22.481,0,0,0-9.095-6.258,2.826,2.826,0,0,0-3.445,1.956,2.858,2.858,0,0,0,1.956,3.444c.108.04,1.007.414.56.211.281.128.559.262.833.405a17.737,17.737,0,0,1,1.933,1.17,8.161,8.161,0,0,1,1.137.89,23.336,23.336,0,0,1,1.688,1.626,30.89,30.89,0,0,1,4.913,7.222,61.393,61.393,0,0,1,5.528,17.195c.13.732.242,1.465.354,2.2.085.554.018.114,0,0,.027.2.052.406.077.609.043.355.082.709.118,1.065.128,1.253.211,2.511.227,3.771.048,3.6,5.648,3.611,5.6,0Z"/><path class="c" d="M178.654,53.235c-1.006-3.681-2.127-7.456-4.579-10.458a17.819,17.819,0,0,0-3.714-3.184,24.007,24.007,0,0,0-4.81-2.669,2.808,2.808,0,0,0-3.444,1.955,2.884,2.884,0,0,0,1.956,3.445c-.894-.359.127.072.359.192.341.176.676.364,1.008.558.69.405,1.362.839,2.019,1.3.332.229.654.469.98.707.289.211-.442-.361-.053-.039.131.109.265.215.395.326.24.2.473.418.694.644.194.2.415.6.65.73-.229-.123-.338-.461-.038-.04.1.137.192.276.283.417.173.266.336.54.489.818s.312.587.454.888c.081.171.157.344.236.517.253.556-.182-.483.02.056.656,1.751,1.2,3.527,1.695,5.33a2.8,2.8,0,0,0,5.4-1.488Z"/><path class="c" d="M163.716,52.083a35.3,35.3,0,0,0-6.818-7.125,38.846,38.846,0,0,0-7.294-4.27,37.213,37.213,0,0,0-7.444-2.366,30.652,30.652,0,0,0-8.269-1.008,2.862,2.862,0,0,0-2.8,2.8,2.826,2.826,0,0,0,2.8,2.8,23.248,23.248,0,0,1,6.781.808c1.255.282,2.5.607,3.733.983.51.155,1.017.319,1.52.5.24.085.477.179.717.265.725.261-.481-.235.136.057,4.912,2.324,8.827,5.007,12.1,9.385a2.888,2.888,0,0,0,3.831,1.005,2.82,2.82,0,0,0,1-3.831Z"/><path class="c" d="M122.434,52.725a32.975,32.975,0,0,0-13.413,3.147,24.97,24.97,0,0,0-9.588,8.969c-4.248,6.618-3.527,15.169-4.228,22.7-.1,1.118-.215,2.069-.325,2.76a27.018,27.018,0,0,1-.6,2.87c-.107.391-.231.775-.359,1.16,0,0-.271.718-.106.31.143-.352-.188.395-.224.465-.158.306-.358.585-.526.885-.308.549.288-.3.021-.028-.154.156-.3.32-.459.47-2.639,2.466,1.327,6.42,3.96,3.96,2.4-2.246,3.259-5.749,3.733-8.883.593-3.916.758-7.87,1.037-11.816.254-3.592.312-6.542,1.7-9.961-.251.616.147-.27.227-.42.244-.457.516-.9.79-1.341a21.526,21.526,0,0,1,1.769-2.476,18.668,18.668,0,0,1,4-3.634c3.733-2.441,8.085-3.317,12.584-3.533a2.86,2.86,0,0,0,2.8-2.8,2.827,2.827,0,0,0-2.8-2.8Z"/><path class="e" d="M208.687,194.341l-8.305-2.445h-2.559a6.414,6.414,0,0,1-.305,2.724,155.71,155.71,0,0,1-11.674,17.2l-19.068-.217c-3.911-5.237-8.236-10.888-11-14H151.1c-2.768,3.114-7.094,8.765-11,14l-19.067.217a155.558,155.558,0,0,1-11.674-17.2,6.4,6.4,0,0,1-.3-2.724h-2.559l-8.306,2.445c-21.346,6.853-42.227,16.283-55.146,35.588C33,244.921,27.829,262.048,23.434,281.12h260c-4.394-19.072-9.567-36.2-19.6-51.191C250.915,210.624,230.034,201.194,208.687,194.341Z"/><path class="c" d="M26.134,281.865c4.283-18.547,9.661-37.626,21.161-53.139,10.416-14.05,26.332-22.6,42.428-28.531,5.766-2.122,11.62-3.865,17.508-5.6,3.45-1.016,1.982-6.422-1.488-5.4-13.76,4.051-27.478,8.574-39.873,15.949a79.546,79.546,0,0,0-20.783,17.392c-6.23,7.541-10.853,16.251-14.563,25.266-4.322,10.5-7.238,21.524-9.79,32.573-.81,3.507,4.588,5,5.4,1.489Z"/><path class="b" d="M52.048,137.838q-8.2-9.056-16.452-18.371L30.9,153.994c39.432,38.952,83.97,85.911,130.9,122.63,3.745-.058,7.417-.085,11-.085,6.544,0,13.4.091,20.446.278C151.076,241.35,102.309,193.329,52.048,137.838Z"/><path class="c" d="M33.616,121.447q31.509,35.574,64.594,69.714c19.816,20.371,40.106,40.295,61.065,59.492q15.6,14.292,31.763,27.959a2.877,2.877,0,0,0,3.96,0,2.824,2.824,0,0,0,0-3.96c-19.982-16.828-39.229-34.52-58-52.682q-32.33-31.278-62.921-64.288-18.51-19.86-36.5-40.195a2.8,2.8,0,0,0-3.96,3.96Z"/><path class="c" d="M28.921,155.973c16.236,16.042,32.247,32.309,48.5,48.337,16.96,16.728,34.166,33.225,52.042,48.978,9.946,8.765,20.1,17.293,30.544,25.463a2.892,2.892,0,0,0,3.96,0c.969-.969,1.2-3.023,0-3.96-18.727-14.653-36.536-30.446-53.863-46.719-17.178-16.133-33.881-32.761-50.534-49.433Q46.247,165.3,32.881,152.014c-2.566-2.536-6.528,1.422-3.96,3.959Z"/><path class="c" d="M286.134,280.376c-4.405-19.077-10.034-38.9-21.962-54.794-11.214-14.939-27.586-24.1-44.808-30.516-6-2.237-12.1-4.063-18.238-5.87-3.464-1.02-4.944,4.383-1.489,5.4,13.19,3.883,26.295,8.166,38.206,15.19a75.33,75.33,0,0,1,19.854,16.56c5.806,6.983,10.17,15.326,13.561,23.715,4.153,10.274,6.987,21.024,9.476,31.8.811,3.51,6.212,2.024,5.4-1.489Z"/><path class="b" d="M121.246,174.2c-3.063,3.427-6.84,8.448-9.837,11.919-1.764,2.044-3.062,5.795-2.058,8.5,1.151,2.3,13.88,22.71,22.452,28.2,2.709-3.609,13.927-19.181,19.294-25.218C149.085,196.178,122.548,175.254,121.246,174.2Z"/><path class="b" d="M185.623,174.2c3.063,3.427,6.839,8.448,9.836,11.919,1.764,2.044,3.062,5.795,2.059,8.5-1.152,2.3-13.88,22.71-22.452,28.2-2.709-3.609-13.928-19.181-19.294-25.218C157.784,196.178,184.321,175.254,185.623,174.2Z"/><path class="c" d="M142.51,213.02c3.405-4.558,6.8-9.17,10.567-13.436a2.854,2.854,0,0,0-.567-4.4c-.428-.306-.844-.631-1.261-.951l-.5-.389c-.322-.248.535.414-.006,0l-1.4-1.086q-3.517-2.737-7.022-5.492-7.569-5.939-15.121-11.9c-1.324-1.045-2.657-2.082-3.97-3.142a2.851,2.851,0,0,0-3.96,0c-2.325,2.617-4.481,5.378-6.679,8.1-2.176,2.7-4.667,5.147-5.779,8.507a9.815,9.815,0,0,0,.658,8.158c1.258,2.157,2.625,4.254,4.01,6.331q3.59,5.382,7.569,10.484c.931,1.194,2.983.977,3.96,0a2.872,2.872,0,0,0,0-3.96c-2.59-3.32-5.007-6.781-7.321-10.3a47.456,47.456,0,0,1-3.855-6.222c.175.388.01.1.01-.072a11.113,11.113,0,0,1,0-1.46,7.976,7.976,0,0,1,.5-1.863,16.664,16.664,0,0,1,3.035-4.2c2.61-3.189,5.116-6.468,7.854-9.55h-3.96c8.442,6.817,17.033,13.461,25.593,20.129,1.6,1.246,3.175,2.535,4.825,3.713l-.567-4.4c-4.085,4.622-7.753,9.632-11.442,14.569a2.819,2.819,0,0,0,1,3.831,2.867,2.867,0,0,0,3.831-1Z"/><path class="c" d="M169.194,210.193c-3.689-4.937-7.357-9.947-11.442-14.569l-.567,4.4c3.814-2.723,7.44-5.75,11.126-8.642q7.633-5.986,15.248-12c1.349-1.065,2.706-2.121,4.043-3.2h-3.959c2.738,3.082,5.244,6.361,7.854,9.55,1.152,1.408,2.369,2.525,3.035,4.2a7.964,7.964,0,0,1,.5,1.863,11.113,11.113,0,0,1,0,1.46c0,.17-.165.46.01.072a47.523,47.523,0,0,1-3.855,6.222c-2.314,3.516-4.732,6.977-7.321,10.3a2.892,2.892,0,0,0,0,3.96c.967.968,3.024,1.2,3.96,0a161.7,161.7,0,0,0,11.229-16.225,15.393,15.393,0,0,0,1.024-1.879,9.646,9.646,0,0,0,.321-5.582c-.687-3.526-3.013-5.979-5.2-8.663-2.517-3.089-4.948-6.253-7.6-9.233a2.863,2.863,0,0,0-3.959,0c-8.366,6.755-16.881,13.339-25.362,19.949q-.791.615-1.582,1.23l-.688.534.223-.173-.37.286c-.5.383-.993.774-1.5,1.139a2.854,2.854,0,0,0-.567,4.4c3.771,4.266,7.161,8.878,10.567,13.436a2.887,2.887,0,0,0,3.831,1,2.819,2.819,0,0,0,1-3.831Z"/><path class="f" d="M229.3,293.325c0-40.5-30.84-74.6-75.067-74.6-44.384,0-75.062,34.376-75.062,74.6L58.3,293.131c0-51.414,39.211-95.351,95.94-95.351,56.529,0,95.947,43.587,95.947,95.351Z"/><path class="c" d="M252.983,293.131a100.052,100.052,0,0,0-17.153-56.3,96.041,96.041,0,0,0-46.325-35.82,105.426,105.426,0,0,0-63.581-2.226,95.662,95.662,0,0,0-48.958,32.3,99.668,99.668,0,0,0-21.2,54.73c-.178,2.437-.262,4.879-.266,7.322-.006,3.6,5.594,3.609,5.6,0a94.486,94.486,0,0,1,16.241-53.193,90.068,90.068,0,0,1,43.353-33.6,100.042,100.042,0,0,1,60.3-2.178,90.354,90.354,0,0,1,46.3,30.49,93.57,93.57,0,0,1,19.826,51.117c.179,2.452.264,4.909.268,7.367.006,3.6,5.606,3.609,5.6,0Z"/><path class="c" d="M232.1,293.325a78.886,78.886,0,0,0-13.526-44.391,75.844,75.844,0,0,0-36.6-28.276,83.054,83.054,0,0,0-50.112-1.72A75.4,75.4,0,0,0,93.39,244.3,78.655,78.655,0,0,0,76.59,287.5c-.144,1.938-.211,3.879-.215,5.821-.008,3.6,5.592,3.609,5.6,0a73.336,73.336,0,0,1,12.538-41.184,69.885,69.885,0,0,1,33.565-26.109,77.665,77.665,0,0,1,46.822-1.76,70.1,70.1,0,0,1,36.078,23.748A72.656,72.656,0,0,1,226.3,287.634c.137,1.894.2,3.792.2,5.691.008,3.6,5.608,3.61,5.6,0Z"/><path class="b" d="M264.89,274.881c-.853-11.537-5.6-21.939-16.327-30.253a18.794,18.794,0,0,0-5.217-2.824c-11.206-4-26.877,1.206-32.933,11.819a10.953,10.953,0,0,0-1.361,4.318,8.808,8.808,0,0,0-8.209,2.147c-1.611,1.9-2.446,5.749-2.094,8.216a35.051,35.051,0,0,0,3.945,11.242,10.57,10.57,0,0,0,8.236,5.32,30,30,0,0,0,7.964.419,10.775,10.775,0,0,0,.195,2.274,8.842,8.842,0,0,0,3.594,5.846c2.647,1.637,7.237.849,9.579-.361l.463-.239-.577.7c-2.146,2.617.439,7.579,2.385,8.867,5.608,3.711,12.125.364,18.475-2.678,4.9-2.348,9.489-7.171,10.826-11.818C264.907,284.145,265.37,281.364,264.89,274.881Z"/><path class="c" d="M210.934,282.062c-5.733-.623-7.9-7.469-9.052-12.256a10.236,10.236,0,0,1,.394-6.715,3.108,3.108,0,0,1,2.008-2.057,6.364,6.364,0,0,1,4.026-.392c3.509.8,5.008-4.6,1.489-5.4-4.18-.947-9.226.177-11.73,3.908a14.935,14.935,0,0,0-1.838,11,32.181,32.181,0,0,0,4.441,11.443,13.757,13.757,0,0,0,10.262,6.072,2.818,2.818,0,0,0,2.8-2.8,2.864,2.864,0,0,0-2.8-2.8Z"/><path class="c" d="M211.875,264.642c-3.03,3.26-4.657,7.807-3.154,12.173a8.934,8.934,0,0,0,3.592,4.9,11.506,11.506,0,0,0,6.079,1.609c4.7-.013,8.791-2.462,12.9-4.439,4.126-1.987,8.274-3.932,12.346-6.028,3.2-1.651.375-6.484-2.827-4.836-3.287,1.693-6.625,3.284-9.958,4.882-3.165,1.518-6.365,3.511-9.766,4.434a9.115,9.115,0,0,1-4.366.193,3.039,3.039,0,0,1-2.483-1.913c-1.042-2.352-.3-4.967,1.6-7.015,2.451-2.637-1.5-6.607-3.96-3.96Z"/><path class="c" d="M218.838,278.537c-3.184,3.652-3.411,8.439-1.447,12.755a9.834,9.834,0,0,0,9.841,5.824c4.262-.225,7.745-2.356,11.512-4.13a119.505,119.505,0,0,0,11.786-5.937c3.066-1.883.257-6.728-2.826-4.836a93.678,93.678,0,0,1-9.392,4.816c-1.725.808-3.452,1.61-5.164,2.445-.81.4-1.61.815-2.42,1.212q-.254.117.024.006-.284.114-.573.212-.462.158-.935.28c-2.425.628-4.863.7-6.291-1.375-1.485-2.157-1.987-5.212-.155-7.312a2.87,2.87,0,0,0,0-3.96,2.827,2.827,0,0,0-3.96,0Z"/><path class="c" d="M229.73,292.1c-2.015,2.693-1.177,6.5.322,9.221a10.542,10.542,0,0,0,7.8,5.3c4.088.627,7.971-.635,11.689-2.228a39.283,39.283,0,0,0,9.981-5.65,22.53,22.53,0,0,0,6.406-8.445,27.246,27.246,0,0,0,1.819-7.877,47.308,47.308,0,0,0-2.305-19.173,42.957,42.957,0,0,0-10.4-16.641c-4.291-4.28-9.123-7.62-15.214-8.55-11.134-1.7-23.385,2.733-30.257,11.791a15.379,15.379,0,0,0-3.354,8.549c-.181,3.527,1.427,7.456,4.7,9.137,3.562,1.832,7.026.134,10.268-1.519,3.544-1.808,7.171-3.455,10.758-5.175,1.545-.741,3.086-1.49,4.613-2.268,3.212-1.637.381-6.47-2.827-4.836-2.87,1.463-5.787,2.83-8.7,4.214-2.93,1.394-5.805,3-8.781,4.285-.9.392-1.966.786-2.675.4a3.646,3.646,0,0,1-1.627-2.408,7.961,7.961,0,0,1,1.426-6.081,23.406,23.406,0,0,1,9.872-8.207,28.243,28.243,0,0,1,12.83-2.657,20,20,0,0,1,6.145,1.1,17.362,17.362,0,0,1,5.2,2.9,40.118,40.118,0,0,1,10.841,13.174,39.559,39.559,0,0,1,3.867,14.919c.094,1.373.159,2.749.154,4.125,0,.671-.02,1.342-.062,2.012-.016.255-.036.509-.059.764-.01.105-.119,1.051-.051.551a16.909,16.909,0,0,1-8.1,13.1,40.351,40.351,0,0,1-9.794,4.547,12.446,12.446,0,0,1-5.019.719,6.965,6.965,0,0,1-2.014-.517c-.3-.131-.574-.31-.857-.466-.945-.522.077.232-.335-.222a7.123,7.123,0,0,1-1.585-2.584c-.382-1.2-.419-1.689.164-2.468a2.818,2.818,0,0,0-1-3.83,2.866,2.866,0,0,0-3.831,1Z"/><path class="b" d="M106.025,260.088a8.806,8.806,0,0,0-8.208-2.147,10.953,10.953,0,0,0-1.361-4.318C90.4,243.01,74.729,237.805,63.523,241.8a18.78,18.78,0,0,0-5.217,2.824c-10.729,8.314-15.475,18.716-16.328,30.253-.479,6.483-.017,9.264,1.057,13,1.336,4.647,5.924,9.47,10.826,11.818,6.349,3.042,12.867,6.389,18.474,2.678,1.947-1.288,4.532-6.25,2.386-8.867l-.577-.7.463.239c2.342,1.21,6.932,2,9.579.361a8.842,8.842,0,0,0,3.594-5.846,10.775,10.775,0,0,0,.195-2.274,30,30,0,0,0,7.964-.419,10.57,10.57,0,0,0,8.236-5.32A35.075,35.075,0,0,0,108.12,268.3C108.471,265.837,107.636,261.989,106.025,260.088Z"/><path class="c" d="M98.559,260.642a6.41,6.41,0,0,1,4.025.392,5.668,5.668,0,0,1,.914.517c.375.262.076,0,.37.325a4.709,4.709,0,0,1,.652,1.066,10.137,10.137,0,0,1,.467,6.864c-1.146,4.788-3.323,11.633-9.053,12.256a2.882,2.882,0,0,0-2.8,2.8,2.819,2.819,0,0,0,2.8,2.8A13.763,13.763,0,0,0,106.2,281.59a32.154,32.154,0,0,0,4.44-11.443,14.939,14.939,0,0,0-1.837-11c-2.5-3.731-7.551-4.855-11.73-3.908-3.513.8-2.026,6.2,1.489,5.4Z"/><path class="c" d="M91.034,268.6c1.9,2.047,2.647,4.655,1.6,7.015a3.02,3.02,0,0,1-2.484,1.913,8.976,8.976,0,0,1-4.366-.193c-3.4-.933-6.6-2.915-9.765-4.434-3.333-1.6-6.671-3.189-9.959-4.882-3.2-1.647-6.035,3.184-2.826,4.836,4.072,2.1,8.22,4.041,12.346,6.028,4.1,1.977,8.2,4.426,12.894,4.439a11.507,11.507,0,0,0,6.08-1.609,8.944,8.944,0,0,0,3.592-4.9c1.5-4.366-.125-8.913-3.154-12.173-2.459-2.645-6.412,1.321-3.96,3.96Z"/><path class="c" d="M84.071,282.5c1.839,2.109,1.32,5.136-.156,7.312a3.4,3.4,0,0,1-2.591,1.671,9.988,9.988,0,0,1-3.7-.3c-.315-.082-.628-.175-.935-.28-.029-.01-.852-.352-.429-.158-.858-.394-1.691-.857-2.541-1.272-1.711-.835-3.438-1.637-5.163-2.445a93.57,93.57,0,0,1-9.392-4.816c-3.08-1.89-5.9,2.951-2.827,4.836a119.727,119.727,0,0,0,11.786,5.937c3.766,1.773,7.251,3.905,11.512,4.13a9.832,9.832,0,0,0,9.842-5.824c1.964-4.316,1.737-9.1-1.447-12.755a2.827,2.827,0,0,0-3.96,0,2.855,2.855,0,0,0,0,3.96Z"/><path class="c" d="M72.3,294.921s.483.791.288.343c.015.036.179.894.129.4a2.71,2.71,0,0,1-.08,1.1,7.037,7.037,0,0,1-.51,1.441c-.095.187-.2.372-.3.552-.059.1-.653.938-.409.642-.153.185-1.025.911-.494.554a7.07,7.07,0,0,1-2.01.964,8.632,8.632,0,0,1-3.754.165c-3.333-.533-6.454-2.153-9.46-3.6a21.68,21.68,0,0,1-7.012-5.263,15.144,15.144,0,0,1-3.324-6.45,21.527,21.527,0,0,1-.771-6.106,44.576,44.576,0,0,1,2.657-16.113,36.92,36.92,0,0,1,8.821-13.275,28.259,28.259,0,0,1,6.06-4.8,18.332,18.332,0,0,1,5.955-1.955,27.058,27.058,0,0,1,12.85,1.333,25.812,25.812,0,0,1,10.908,7.1,12.3,12.3,0,0,1,3.169,5.912,5.441,5.441,0,0,1-.491,3.432,2.457,2.457,0,0,1-2.128,1.484c-1.495-.162-2.925-1.132-4.231-1.788-1.671-.84-3.363-1.639-5.051-2.445-3.331-1.589-6.68-3.144-9.969-4.82-3.2-1.633-6.041,3.2-2.826,4.836,3.288,1.676,6.638,3.23,9.969,4.82,1.806.861,3.619,1.714,5.4,2.623a23.852,23.852,0,0,0,4.7,2.055,7.91,7.91,0,0,0,9.274-4.551,12.509,12.509,0,0,0-.261-10.245c-2.2-4.994-6.964-9.02-11.684-11.532a34.176,34.176,0,0,0-16.461-4.069,24.989,24.989,0,0,0-15.428,5.38A43.714,43.714,0,0,0,43.23,258.751a49.02,49.02,0,0,0-4.219,19.218c-.177,5.949.9,12.044,4.606,16.848a25.373,25.373,0,0,0,8.307,7.036,46.5,46.5,0,0,0,11.124,4.509c3.679.8,7.715.552,10.874-1.692a11.357,11.357,0,0,0,4.378-8.089,6.65,6.65,0,0,0-1.161-4.486,2.888,2.888,0,0,0-3.831-1,2.819,2.819,0,0,0-1.005,3.83Z"/><path class="b" d="M304.832,302.931V288.1c-40.685-9.067-103.343-13.427-151.04-13.427S43.438,279.035,2.752,288.1v23.584a4,4,0,0,0,4,4h294.08a4,4,0,0,0,4-4Z"/><path class="c" d="M305.576,285.4c-18.439-4.095-37.234-6.6-56.007-8.563-20.828-2.178-41.742-3.564-62.668-4.332q-29.377-1.079-58.772-.245-31.351.911-62.61,3.829a557.255,557.255,0,0,0-57.553,8.048q-2.985.6-5.958,1.263c-3.517.781-2.028,6.181,1.489,5.4a484.543,484.543,0,0,1,55.016-8.414c20.663-2.148,41.411-3.519,62.17-4.281q29.377-1.079,58.772-.245,30.974.9,61.855,3.757a545.341,545.341,0,0,1,56.82,7.92q2.985.6,5.958,1.263c3.511.78,5.01-4.618,1.488-5.4Z"/></svg>