<svg width="135" height="38" viewBox="0 0 135 38" fill="none" xmlns="http://www.w3.org/2000/svg">
<g clip-path="url(#clip0_0_2056)">
<path d="M129.644 37.1315H5.74502C2.99578 37.1315 0.796387 35.1153 0.796387 32.5494V5.24027C0.796387 2.76595 2.99578 0.658203 5.74502 0.658203H129.644C132.393 0.658203 134.593 2.67431 134.593 5.24027V32.641C134.593 35.1153 132.393 37.1315 129.644 37.1315Z" fill="black"/>
<path d="M31.1298 12.2052C31.1298 14.6795 29.1137 16.6956 26.6394 16.6956C24.165 16.6956 22.1489 14.6795 22.1489 12.2052C22.1489 9.7309 24.165 7.71479 26.6394 7.71479C29.1137 7.62315 31.1298 9.7309 31.1298 12.2052Z" fill="#FBB040"/>
<path d="M34.5204 24.5754C34.5204 25.2169 33.9705 25.6751 33.4207 25.6751H19.8578C19.2163 25.6751 18.7581 25.1253 18.7581 24.5754C18.7581 20.8181 21.7822 17.7939 25.5395 17.7939H27.8305C31.4962 17.7939 34.5204 20.9098 34.5204 24.5754Z" fill="#FBB040"/>
<path d="M17.017 24.6672C17.017 24.9422 17.1086 25.2171 17.2003 25.492H12.8931C12.4349 25.492 12.0684 25.1254 12.0684 24.6672V24.3007C12.0684 21.7347 14.1761 19.7186 16.7421 19.627H17.4752C18.025 19.627 18.5749 19.7186 19.0331 19.9019C17.7501 21.1849 17.017 22.926 17.017 24.6672Z" fill="#FBB040"/>
<path d="M20.3159 15.5042C20.3159 17.337 18.8497 18.8033 17.0169 18.8033C15.184 18.8033 13.7178 17.337 13.7178 15.5042C13.7178 13.6713 15.184 12.2051 17.0169 12.2051C18.8497 12.2051 20.3159 13.6713 20.3159 15.5042Z" fill="#FBB040"/>
<path d="M36.2616 24.6672C36.2616 24.9422 36.17 25.2171 36.0783 25.492H40.3855C40.8437 25.492 41.2102 25.1254 41.2102 24.6672V24.3007C41.2102 21.7347 39.1025 19.7186 36.5365 19.627H35.8034C35.2535 19.627 34.7037 19.7186 34.2455 19.9019C35.5285 21.1849 36.2616 22.926 36.2616 24.6672Z" fill="#FBB040"/>
<path d="M32.9625 15.5042C32.9625 17.337 34.4288 18.8033 36.2616 18.8033C38.0944 18.8033 39.5607 17.337 39.5607 15.5042C39.5607 13.6713 38.0944 12.2051 36.2616 12.2051C34.4288 12.2051 32.9625 13.6713 32.9625 15.5042Z" fill="#FBB040"/>
<path d="M52.6653 7.89763C52.4821 7.53107 52.2071 7.25614 51.8406 7.07286C51.474 6.88958 51.1074 6.79794 50.6492 6.79794C50.191 6.79794 49.7328 6.88958 49.3662 7.1645C48.9997 7.34779 48.7248 7.71435 48.4498 8.08092C48.2666 8.44748 48.0833 8.99733 48.0833 9.45554C48.0833 10.0054 48.1749 10.4636 48.4498 10.8302C48.6331 11.1967 48.9997 11.5633 49.3662 11.7466C49.7328 11.9299 50.191 12.1131 50.6492 12.1131C51.2907 12.1131 51.8406 11.9299 52.2988 11.5633C52.6653 11.1967 52.9403 10.7385 53.0319 10.097H50.2827V9.08897H54.3149V10.0054C54.2232 10.5552 54.04 11.1051 53.6734 11.5633C53.3068 12.0215 52.9403 12.3881 52.3904 12.7546C51.8406 13.1212 51.2907 13.2128 50.6492 13.2128C49.9161 13.2128 49.2746 13.0295 48.7248 12.7546C48.1749 12.3881 47.7167 12.0215 47.3501 11.38C46.9836 10.7385 46.8003 10.1887 46.8003 9.45554C46.8003 8.72241 46.9836 8.08092 47.3501 7.53107C47.7167 6.98122 48.1749 6.52301 48.7248 6.15645C49.2746 5.78988 49.9161 5.69824 50.6492 5.69824C51.474 5.69824 52.1155 5.88152 52.757 6.24809C53.3985 6.61466 53.8567 7.1645 54.1316 7.89763H52.6653Z" fill="white"/>
<path d="M60.8214 7.25586V13.1209H59.6301V12.4794C59.4468 12.7543 59.1719 12.9376 58.897 13.0293C58.622 13.2125 58.2555 13.2125 57.8889 13.2125C57.4307 13.2125 56.9725 13.1209 56.6059 12.9376C56.2394 12.7543 55.9644 12.4794 55.7811 12.1129C55.5979 11.7463 55.5062 11.2881 55.5062 10.7382V7.25586H56.6976V10.5549C56.6976 11.1048 56.7892 11.4714 57.0641 11.7463C57.3391 12.0212 57.7056 12.2045 58.1638 12.2045C58.622 12.2045 58.9886 12.0212 59.2635 11.7463C59.5384 11.4714 59.6301 11.1048 59.6301 10.5549V7.25586H60.8214Z" fill="white"/>
<path d="M62.3794 8.6313C62.6543 8.17309 62.9292 7.80653 63.3874 7.5316C63.8456 7.25668 64.3039 7.16504 64.7621 7.16504C65.2203 7.16504 65.5868 7.25668 65.9534 7.43996C66.32 7.62325 66.5949 7.89817 66.7782 8.17309V7.25668H67.9695V13.1217H66.7782V12.2053C66.5949 12.4802 66.32 12.7552 65.9534 12.9384C65.5868 13.1217 65.2203 13.2134 64.7621 13.2134C64.3039 13.2134 63.754 13.1217 63.3874 12.8468C62.9292 12.5719 62.6543 12.2053 62.3794 11.7471C62.1045 11.2889 62.0128 10.7391 62.0128 10.1892C62.0128 9.63936 62.1045 9.08951 62.3794 8.6313ZM66.5032 9.18115C66.32 8.90622 66.1367 8.6313 65.8618 8.53966C65.5868 8.35638 65.3119 8.26473 64.9453 8.26473C64.6704 8.26473 64.3038 8.35638 64.0289 8.44802C63.754 8.6313 63.5707 8.81458 63.3874 9.08951C63.2042 9.36443 63.1125 9.731 63.1125 10.0976C63.1125 10.4641 63.2042 10.8307 63.3874 11.1973C63.5707 11.4722 63.754 11.7471 64.0289 11.9304C64.3038 12.1137 64.5788 12.2053 64.8537 12.2053C65.1286 12.2053 65.4952 12.1137 65.7701 11.9304C66.045 11.7471 66.2283 11.5638 66.4116 11.2889C66.5949 11.014 66.6865 10.6474 66.6865 10.1892C66.7782 9.82264 66.6865 9.45607 66.5032 9.18115Z" fill="white"/>
<path d="M71.5435 7.43996C71.8184 7.25668 72.185 7.16504 72.5515 7.16504V8.44802H72.2766C71.8184 8.44802 71.4518 8.53966 71.1769 8.81458C70.902 9.08951 70.8104 9.45607 70.8104 10.0976V13.2134H69.619V7.25668H70.8104V8.08145C70.9936 7.80653 71.2686 7.62325 71.5435 7.43996Z" fill="white"/>
<path d="M73.6512 8.62999C73.9262 8.17178 74.2011 7.80522 74.6593 7.53029C75.1175 7.25537 75.5757 7.16373 76.0339 7.16373C76.4005 7.16373 76.767 7.25537 77.1336 7.43865C77.5002 7.62193 77.7751 7.80522 78.05 8.08014V5.23926H79.2414V13.1204H78.05V12.204C77.8667 12.4789 77.5918 12.7538 77.2252 12.9371C76.8587 13.1204 76.4921 13.2121 76.0339 13.2121C75.4841 13.2121 75.0259 13.1204 74.6593 12.8455C74.2011 12.5706 73.9262 12.204 73.6512 11.7458C73.3763 11.2876 73.2847 10.7377 73.2847 10.1879C73.2847 9.63804 73.3763 9.08819 73.6512 8.62999ZM77.8667 9.17984C77.6835 8.90491 77.5002 8.62999 77.2252 8.53835C76.9503 8.35506 76.6754 8.26342 76.3088 8.26342C75.9423 8.26342 75.6673 8.35506 75.3924 8.44671C75.1175 8.62999 74.9342 8.81327 74.7509 9.08819C74.5676 9.36312 74.476 9.72968 74.476 10.0962C74.476 10.4628 74.5676 10.8294 74.7509 11.1959C74.9342 11.5625 75.1175 11.7458 75.3924 11.9291C75.6673 12.1124 75.9423 12.204 76.2172 12.204C76.4921 12.204 76.8587 12.1124 77.1336 11.9291C77.4085 11.7458 77.5918 11.5625 77.7751 11.2876C77.9584 11.0127 78.05 10.6461 78.05 10.1879C78.05 9.82132 78.05 9.45476 77.8667 9.17984Z" fill="white"/>
<path d="M80.9825 6.24782C80.7992 6.06454 80.7992 5.88126 80.7992 5.69797C80.7992 5.51469 80.8908 5.33141 80.9825 5.14813C81.1658 4.96484 81.349 4.96484 81.5323 4.96484C81.7156 4.96484 81.8989 5.05648 82.0822 5.14813C82.2655 5.33141 82.2655 5.51469 82.2655 5.69797C82.2655 5.88126 82.1738 6.06454 82.0822 6.24782C81.8989 6.4311 81.7156 6.4311 81.5323 6.4311C81.349 6.52275 81.1658 6.4311 80.9825 6.24782ZM82.0822 7.25588V13.1209H80.8908V7.25588H82.0822Z" fill="white"/>
<path d="M83.6402 8.6313C83.9152 8.17309 84.1901 7.80653 84.6483 7.5316C85.1065 7.25668 85.5647 7.16504 86.0229 7.16504C86.4811 7.16504 86.8477 7.25668 87.2143 7.43996C87.5808 7.62325 87.8557 7.80653 88.039 8.08145V7.25668H89.2304V13.1217H88.039V12.2053C87.8557 12.4802 87.5808 12.7552 87.2143 12.9384C86.8477 13.1217 86.4811 13.2134 86.0229 13.2134C85.5647 13.2134 85.0149 13.1217 84.6483 12.8468C84.1901 12.5719 83.9152 12.2053 83.6402 11.7471C83.3653 11.2889 83.2737 10.7391 83.2737 10.1892C83.2737 9.63936 83.457 9.08951 83.6402 8.6313ZM87.8557 9.18115C87.6725 8.90622 87.4892 8.6313 87.2143 8.53966C86.9393 8.35638 86.6644 8.26473 86.2978 8.26473C85.9313 8.26473 85.6564 8.35638 85.3814 8.44802C85.1065 8.6313 84.9232 8.81458 84.7399 9.08951C84.5567 9.36443 84.465 9.731 84.465 10.0976C84.465 10.4641 84.5567 10.8307 84.7399 11.1973C84.9232 11.5638 85.1065 11.7471 85.3814 11.9304C85.6564 12.1137 85.9313 12.2053 86.2062 12.2053C86.4811 12.2053 86.8477 12.1137 87.1226 11.9304C87.3975 11.7471 87.5808 11.5638 87.7641 11.2889C87.9474 11.014 88.039 10.6474 88.039 10.1892C88.1307 9.82264 88.039 9.45607 87.8557 9.18115Z" fill="white"/>
<path d="M95.0953 7.43996C95.4618 7.62325 95.7368 7.89817 95.92 8.26473C96.1033 8.6313 96.195 9.08951 96.195 9.63935V13.1217H95.0036V9.82264C95.0036 9.27279 94.912 8.90622 94.6371 8.6313C94.3621 8.35638 93.9956 8.17309 93.5374 8.17309C93.0791 8.17309 92.7126 8.35638 92.4377 8.6313C92.1627 8.90622 92.0711 9.27279 92.0711 9.82264V13.1217H90.8798V7.25668H92.0711V7.89817C92.2544 7.62325 92.5293 7.43996 92.8042 7.34832C93.0792 7.25668 93.4457 7.16504 93.8123 7.16504C94.3621 7.16504 94.7287 7.25668 95.0953 7.43996Z" fill="white"/>
<path d="M98.761 13.0293C98.3945 12.846 98.1196 12.6627 97.9363 12.3878C97.753 12.1129 97.5697 11.7463 97.5697 11.3797H98.8527C98.8527 11.6546 99.036 11.8379 99.2192 12.0212C99.4025 12.2045 99.6775 12.2961 100.044 12.2961C100.411 12.2961 100.686 12.2045 100.869 12.1129C101.052 12.0212 101.144 11.8379 101.144 11.563C101.144 11.3797 101.052 11.1964 100.869 11.1048C100.686 11.0132 100.319 10.9215 99.8607 10.7382C99.4025 10.6466 99.036 10.4633 98.761 10.3717C98.4861 10.28 98.2112 10.0967 98.0279 9.82182C97.8446 9.54689 97.753 9.27197 97.753 8.9054C97.753 8.63048 97.8446 8.26391 98.0279 8.08063C98.2112 7.80571 98.4861 7.62242 98.8527 7.43914C99.2192 7.25586 99.5858 7.25586 100.044 7.25586C100.686 7.25586 101.235 7.43914 101.694 7.80571C102.06 8.17227 102.335 8.63048 102.335 9.18033H101.144C101.144 8.9054 101.052 8.72212 100.869 8.53884C100.686 8.35556 100.411 8.26391 100.136 8.26391C99.8607 8.26391 99.5858 8.35556 99.4025 8.4472C99.2192 8.53884 99.1276 8.72212 99.1276 8.9054C99.1276 9.08869 99.2192 9.18033 99.3109 9.27197C99.4025 9.36361 99.5858 9.45525 99.7691 9.54689C99.9524 9.63853 100.136 9.63853 100.502 9.73018C100.96 9.82182 101.235 9.91346 101.51 10.0967C101.785 10.28 102.06 10.3717 102.243 10.6466C102.427 10.8299 102.518 11.1964 102.518 11.563C102.518 11.9296 102.427 12.2045 102.243 12.4794C102.06 12.7543 101.785 12.9376 101.419 13.1209C101.052 13.3042 100.686 13.3042 100.227 13.3042C99.4942 13.2125 99.1276 13.2125 98.761 13.0293Z" fill="white"/>
<path d="M47.7168 19.4437C48.0833 18.8022 48.6332 18.2524 49.2747 17.8858C49.9161 17.5192 50.7409 17.3359 51.5657 17.3359C52.5737 17.3359 53.3985 17.6109 54.1316 18.0691C54.8648 18.5273 55.4146 19.2604 55.6895 20.1768H53.6734C53.4902 19.7186 53.2152 19.4437 52.8487 19.2604C52.4821 19.0771 52.1155 18.8938 51.6573 18.8938C51.1075 18.8938 50.6493 18.9855 50.2827 19.2604C49.9161 19.5353 49.5496 19.8103 49.3663 20.2685C49.183 20.7267 48.9997 21.1849 48.9997 21.8264C48.9997 22.3762 49.0914 22.9261 49.3663 23.3843C49.6412 23.8425 49.9161 24.209 50.2827 24.3923C50.6493 24.6672 51.1075 24.7589 51.6573 24.7589C52.1155 24.7589 52.5737 24.6672 52.9403 24.484C53.3069 24.3007 53.5818 23.9341 53.7651 23.5675H55.7812C55.5063 24.484 54.9564 25.1255 54.2233 25.6753C53.4902 26.1335 52.6654 26.4084 51.6573 26.4084C50.8326 26.4084 50.0994 26.2251 49.3663 25.8586C48.6332 25.492 48.175 24.9422 47.8084 24.3007C47.4418 23.6592 47.2585 22.8344 47.2585 22.0096C47.2585 21.1849 47.3502 20.1768 47.7168 19.4437Z" fill="white"/>
<path d="M58.5305 25.8594C57.9806 25.5845 57.6141 25.1263 57.2475 24.5764C56.9726 24.0266 56.7893 23.3851 56.7893 22.652C56.7893 21.9189 56.9726 21.2774 57.2475 20.7275C57.5224 20.1777 57.9806 19.7195 58.5305 19.4445C59.0803 19.1696 59.7218 18.9863 60.3633 18.9863C61.0048 18.9863 61.6463 19.1696 62.1961 19.4445C62.746 19.7195 63.2042 20.1777 63.4791 20.7275C63.7541 21.2774 63.9373 21.9189 63.9373 22.652C63.9373 23.3851 63.7541 24.0266 63.4791 24.5764C63.1126 25.1263 62.746 25.5845 62.1961 25.8594C61.6463 26.1344 61.0048 26.3176 60.3633 26.3176C59.7218 26.3176 59.0803 26.1344 58.5305 25.8594ZM61.2797 24.5764C61.5547 24.3932 61.8296 24.2099 61.9212 23.8433C62.1045 23.5684 62.1961 23.1102 62.1961 22.7436C62.1961 22.1021 62.0129 21.5523 61.6463 21.1857C61.2797 20.8192 60.9132 20.6359 60.3633 20.6359C59.8135 20.6359 59.4469 20.8192 59.0803 21.1857C58.7138 21.5523 58.5305 22.0105 58.5305 22.7436C58.5305 23.3851 58.7138 23.935 58.9887 24.3015C59.3553 24.6681 59.7218 24.8514 60.2717 24.8514C60.6382 24.7597 61.0048 24.6681 61.2797 24.5764Z" fill="white"/>
<path d="M76.0339 19.9019C76.5837 20.4518 76.8587 21.1849 76.8587 22.1013V26.2252H75.0258V22.3762C75.0258 21.8264 74.8426 21.4598 74.5676 21.0933C74.2927 20.8183 73.9261 20.6351 73.4679 20.6351C73.0097 20.6351 72.6432 20.8183 72.3682 21.0933C72.0933 21.3682 71.91 21.8264 71.91 22.3762V26.2252H70.1688V22.3762C70.1688 21.8264 69.9856 21.4598 69.7106 21.0933C69.4357 20.8183 69.0691 20.6351 68.6109 20.6351C68.1527 20.6351 67.7862 20.8183 67.4196 21.0933C67.1447 21.3682 66.9614 21.8264 66.9614 22.3762V26.2252H65.2202V19.2604H66.9614V20.0852C67.1447 19.8103 67.5112 19.5354 67.8778 19.3521C68.2444 19.1688 68.6109 19.0771 69.0691 19.0771C69.619 19.0771 70.0772 19.1688 70.5354 19.4437C70.9936 19.7186 71.2685 19.9936 71.5435 20.4518C71.7267 20.0852 72.0933 19.7186 72.5515 19.4437C73.0097 19.1688 73.4679 19.0771 73.9261 19.0771C74.7509 19.1688 75.484 19.4437 76.0339 19.9019Z" fill="white"/>
<path d="M89.1387 19.9019C89.6885 20.4518 89.9634 21.1849 89.9634 22.1013V26.2252H88.2223V22.3762C88.2223 21.8264 88.039 21.4598 87.764 21.0933C87.4891 20.7267 87.1226 20.6351 86.6643 20.6351C86.2061 20.6351 85.8396 20.8183 85.5647 21.0933C85.2897 21.3682 85.1064 21.8264 85.1064 22.3762V26.2252H83.3653V22.3762C83.3653 21.8264 83.182 21.4598 82.9071 21.0933C82.6321 20.7267 82.2656 20.6351 81.8074 20.6351C81.3492 20.6351 80.9826 20.8183 80.616 21.0933C80.2495 21.3682 80.1578 21.8264 80.1578 22.3762V26.2252H78.4166V19.2604H80.1578V20.0852C80.3411 19.8103 80.7077 19.5354 81.0742 19.3521C81.4408 19.1688 81.8074 19.0771 82.2656 19.0771C82.8154 19.0771 83.2736 19.1688 83.7318 19.4437C84.19 19.7186 84.465 19.9936 84.7399 20.4518C84.9232 20.0852 85.2897 19.7186 85.7479 19.4437C86.2061 19.1688 86.6643 19.0771 87.1226 19.0771C87.9473 19.1688 88.6805 19.4437 89.1387 19.9019Z" fill="white"/>
<path d="M98.2112 19.2607V26.2255H96.47V25.3091C96.2867 25.584 95.9201 25.8589 95.5536 26.0422C95.187 26.2255 94.8204 26.3171 94.3622 26.3171C93.8124 26.3171 93.3542 26.2255 92.896 25.9506C92.4378 25.6756 92.1629 25.4007 91.8879 24.9425C91.613 24.4843 91.5214 23.9345 91.5214 23.3846V19.2607H93.2625V23.1097C93.2625 23.6595 93.4458 24.1177 93.7208 24.3927C93.9957 24.6676 94.3622 24.8509 94.8204 24.8509C95.2787 24.8509 95.6452 24.6676 95.9201 24.3927C96.1951 24.1177 96.3784 23.6595 96.3784 23.1097V19.2607H98.2112Z" fill="white"/>
<path d="M105.817 19.9019C106.367 20.4518 106.551 21.1849 106.551 22.1013V26.2252H104.809V22.3762C104.809 21.8264 104.626 21.3682 104.351 21.0933C104.076 20.8183 103.71 20.6351 103.251 20.6351C102.793 20.6351 102.427 20.8183 102.06 21.0933C101.785 21.3682 101.602 21.8264 101.602 22.3762V26.2252H99.8607V19.2604H101.602V20.0852C101.877 19.8103 102.152 19.5354 102.518 19.3521C102.885 19.1688 103.251 19.0771 103.71 19.0771C104.626 19.1688 105.268 19.4437 105.817 19.9019Z" fill="white"/>
<path d="M108.383 18.0693C108.2 17.886 108.108 17.6111 108.108 17.3362C108.108 17.0613 108.2 16.7863 108.383 16.603C108.567 16.4198 108.842 16.3281 109.116 16.3281C109.391 16.3281 109.666 16.4198 109.85 16.603C110.033 16.7863 110.125 17.0613 110.125 17.3362C110.125 17.6111 110.033 17.886 109.85 18.0693C109.666 18.2526 109.391 18.3442 109.116 18.3442C108.842 18.4359 108.567 18.3442 108.383 18.0693ZM110.033 19.2606V26.2254H108.292V19.2606H110.033Z" fill="white"/>
<path d="M113.79 20.727V24.1177C113.79 24.3926 113.882 24.4843 113.973 24.6676C114.065 24.7592 114.248 24.8508 114.523 24.8508H115.348V26.2255H114.248C112.782 26.2255 112.049 25.4923 112.049 24.0261V20.727H111.224V19.2607H112.049V17.5195H113.79V19.2607H115.348V20.727H113.79Z" fill="white"/>
<path d="M123.321 19.2607L119.014 29.5246H117.181L118.647 26.0422L115.898 19.2607H117.914L119.747 24.1177L121.58 19.2607H123.321Z" fill="white"/>
</g>
<defs>
<clipPath id="clip0_0_2056">
<rect width="133.796" height="36.6565" fill="white" transform="translate(0.796387 0.566406)"/>
</clipPath>
</defs>
</svg>
