<svg width="33" height="33" viewBox="0 0 33 33" fill="none" xmlns="http://www.w3.org/2000/svg">
<path d="M24.4282 24.0145V25.8304H24.7129V32.2138H26.0547V29.9026H31.0462C31.1224 30.6751 31.2091 31.4456 31.3064 32.2138H32.6694C31.7058 24.912 31.7378 17.4333 32.7637 10.1471L31.4457 9.80664C30.7865 14.4869 30.5248 19.2538 30.6656 24.0145H24.4282ZM30.9536 28.912H26.0548V25.8304H30.7402C30.7924 26.8599 30.8636 27.8874 30.9536 28.912Z" fill="white"/>
<path d="M23.8113 8.8776C25.2873 8.41273 26.2055 6.41661 25.862 4.41915C25.5186 2.42168 24.0436 1.17926 22.5676 1.64412C21.0916 2.10899 20.1734 4.10511 20.5169 6.10258C20.8603 8.10004 22.3353 9.34246 23.8113 8.8776Z" fill="white"/>
<path d="M26.6546 9.58151C26.7911 9.58151 26.926 9.61238 27.0556 9.67347C27.2071 9.74422 27.3467 9.85488 27.4664 9.99905C27.5861 10.1432 27.6835 10.318 27.753 10.5134C27.8232 10.7084 27.8641 10.9203 27.8733 11.1368C27.8826 11.3534 27.8601 11.5702 27.807 11.7749C27.733 12.059 27.3008 13.5445 26.0228 15.0207C25.8567 15.213 25.6845 15.3953 25.5066 15.567C25.6526 16.7431 25.7655 17.9853 25.7677 19.1954H22.8831V19.9533H21.8158V32.6676C21.8458 32.67 21.8755 32.6728 21.9058 32.6728C22.0085 32.6728 22.1125 32.6586 22.217 32.6294C23.0413 32.3978 23.5714 31.3054 23.4003 30.1897L22.3477 23.3226H27.3868C27.4666 23.3226 27.5443 23.3117 27.6207 23.2959C28.6373 23.2246 29.7199 22.7328 30.0556 20.3938C30.3711 16.7263 30.1926 14.5585 29.3628 11.228C28.7483 8.81054 27.2388 8.04518 26.1975 8.39666C25.2709 8.70917 24.8069 10.3013 24.9626 11.8061C25.3369 11.2154 25.4853 10.7456 25.507 10.6729C25.6748 10.0254 26.1374 9.58151 26.6546 9.58151ZM19.084 22.3473L19.8034 27.0429V22.3473H19.084Z" fill="white"/>
<path d="M25.8645 14.7693C27.1366 13.3 27.5378 11.815 27.5768 11.6663C27.6604 11.3361 27.6441 10.9745 27.5314 10.6605C27.4186 10.3466 27.2187 10.1058 26.9752 9.99077C26.7317 9.87575 26.4644 9.89585 26.2318 10.0467C25.9992 10.1975 25.8202 10.4668 25.7339 10.7957L25.7336 10.7956C25.6957 10.9227 25.3651 11.9608 24.4171 12.9587C23.466 13.9539 21.8877 14.9679 19.1734 14.9743C19.0452 14.9743 18.9183 15.0085 18.7998 15.0748C18.6814 15.1412 18.5738 15.2385 18.4832 15.3611C18.3925 15.4838 18.3206 15.6294 18.2716 15.7897C18.2225 15.95 18.1973 16.1217 18.1973 16.2952C18.1973 16.8625 18.462 17.3447 18.8329 17.5317H20.5383C23.0623 17.2154 24.7815 16.0268 25.8645 14.7693Z" fill="white"/>
<path d="M9.23227 11.3408C10.6409 11.3408 11.7829 9.79531 11.7829 7.8888C11.7829 5.9823 10.6409 4.43677 9.23227 4.43677C7.8236 4.43677 6.68164 5.9823 6.68164 7.8888C6.68164 9.79531 7.8236 11.3408 9.23227 11.3408Z" fill="white"/>
<path d="M9.46484 19.6227H10.5322V32.8025H12.0572V22.0168H20.0469V32.8025H21.5716V19.6227H22.639V17.8618H9.46484V19.6227Z" fill="white"/>
<path d="M7.47265 32.2139H8.81445V31.2904C8.98119 31.3947 9.16271 31.4488 9.34641 31.4487C9.7104 31.4487 10.0521 31.2344 10.2887 30.8772V20.0918L7.43118 20.0473C7.45045 19.0229 7.57609 17.9694 7.72869 16.9815C7.43595 16.7769 7.15959 16.5319 6.90398 16.2505C6.31968 15.6057 6.00046 14.9679 5.89055 14.7233C5.57889 14.0053 5.7543 13.0928 6.27626 12.6783C6.44446 12.5444 6.63602 12.4738 6.83115 12.4736C7.02202 12.4741 7.20953 12.5416 7.37536 12.6696C7.54118 12.7975 7.67965 12.9814 7.77724 13.2034L7.79005 13.2302C7.80383 13.2573 7.83408 13.3141 7.87629 13.3852C7.98639 13.5686 8.10895 13.7376 8.24236 13.8901C8.31054 12.761 7.91276 11.6493 7.14867 11.4309C6.22234 11.1662 4.86774 11.8091 4.2965 13.7667C3.52375 16.4643 3.34358 18.2136 3.5901 21.1626C3.90543 23.2969 5.10426 23.4932 6.10243 23.458C6.13635 23.4569 6.16952 23.4554 6.20197 23.4541L9.10245 23.4995L9.01511 24.0147H2.86163C3.00247 19.254 2.74079 14.4871 2.08168 9.80688L0.763672 10.1471C1.791 17.4352 1.82028 24.9138 0.857964 32.2139H2.22098C2.31826 31.4457 2.405 30.6752 2.48117 29.9026H7.47265V32.2139ZM2.57388 28.9121C2.66376 27.8875 2.73494 26.8599 2.78734 25.8305H7.47265V28.9121H2.57388ZM12.4131 13.8019L11.1749 12.118L10.8939 12.4965L12.0102 14.0149C12.0517 13.9875 12.0925 13.9624 12.1342 13.9333C12.2224 13.8728 12.3162 13.8286 12.4131 13.8019ZM13.8193 16.4752L14.1004 16.0967L13.7094 15.5651C13.6794 15.7553 13.622 15.9358 13.5407 16.0963L13.8193 16.4752ZM16.8247 17.2359V16.6684H12.998C12.663 16.8929 12.3308 17.0831 12.0027 17.2359H16.8247Z" fill="white"/>
<path d="M7.68699 13.5921C7.63917 13.5117 7.60526 13.4475 7.5855 13.4082L7.56757 13.3712C7.51065 13.2405 7.43525 13.1262 7.34569 13.0349C7.25613 12.9435 7.15416 12.877 7.04559 12.839C6.93703 12.801 6.824 12.7924 6.71296 12.8135C6.60192 12.8347 6.49505 12.8852 6.39844 12.9622C6.30183 13.0393 6.21738 13.1413 6.14991 13.2625C6.08243 13.3837 6.03326 13.5217 6.0052 13.6687C5.97714 13.8156 5.97073 13.9686 5.98635 14.1189C6.00197 14.2691 6.03931 14.4138 6.09623 14.5445C6.13148 14.6226 6.42875 15.2993 7.05915 15.9948C7.68309 16.6866 8.67333 17.392 9.98036 17.3922H9.98878C10.8834 17.3928 11.9033 17.0669 13.0279 16.2818C13.2277 16.1402 13.3779 15.8975 13.446 15.6066C13.514 15.3157 13.4942 15.0001 13.391 14.7289C13.2877 14.4576 13.1094 14.2526 12.8949 14.1586C12.6804 14.0646 12.4472 14.0892 12.246 14.2271C11.3183 14.8727 10.578 15.0799 9.98878 15.0806C9.1315 15.0774 8.54659 14.6462 8.13564 14.2006C7.97061 14.0198 7.82022 13.8159 7.68699 13.5921Z" fill="white"/>
</svg>
