<svg width="81" height="80" viewBox="0 0 81 80" fill="none" xmlns="http://www.w3.org/2000/svg">
<path d="M46.1024 66.6377C46.1024 59.3558 52.0267 53.4316 59.3085 53.4316C61.6871 53.4316 63.9187 54.0669 65.8484 55.1719V0.804844C65.8484 0.699144 65.8276 0.594477 65.7872 0.496819C65.7467 0.399162 65.6874 0.310428 65.6127 0.235688C65.538 0.160947 65.4492 0.101663 65.3516 0.0612233C65.2539 0.0207834 65.1492 -2.0511e-05 65.0435 1.51742e-08H8.80057C8.69487 -2.0511e-05 8.5902 0.0207834 8.49255 0.0612233C8.39489 0.101663 8.30616 0.160947 8.23142 0.235688C8.15667 0.310428 8.09739 0.399162 8.05695 0.496819C8.01651 0.594477 7.99571 0.699144 7.99573 0.804844V77.4263C7.99571 77.532 8.01651 77.6366 8.05695 77.7343C8.09739 77.8319 8.15667 77.9207 8.23142 77.9954C8.30616 78.0701 8.39489 78.1294 8.49255 78.1699C8.5902 78.2103 8.69487 78.2311 8.80057 78.2311H52.9903C48.8898 75.9873 46.1024 71.6322 46.1024 66.6377Z" fill="#EAF6FF"/>
<path d="M15.2462 77.4263V0.804844C15.2462 0.699144 15.267 0.594477 15.3074 0.496819C15.3479 0.399162 15.4071 0.310428 15.4819 0.235688C15.5566 0.160947 15.6454 0.101663 15.743 0.0612233C15.8407 0.0207834 15.9453 -2.0511e-05 16.051 1.51742e-08H8.80057C8.69487 -2.0511e-05 8.5902 0.0207834 8.49255 0.0612233C8.39489 0.101663 8.30616 0.160947 8.23142 0.235688C8.15667 0.310428 8.09739 0.399162 8.05695 0.496819C8.01651 0.594477 7.99571 0.699144 7.99573 0.804844V77.4263C7.99571 77.532 8.01651 77.6366 8.05695 77.7343C8.09739 77.8319 8.15667 77.9207 8.23142 77.9954C8.30616 78.0701 8.39489 78.1294 8.49255 78.1699C8.5902 78.2103 8.69487 78.2311 8.80057 78.2311H16.051C15.9453 78.2311 15.8407 78.2103 15.743 78.1699C15.6454 78.1294 15.5566 78.0701 15.4819 77.9954C15.4071 77.9207 15.3479 77.8319 15.3074 77.7343C15.267 77.6366 15.2462 77.532 15.2462 77.4263Z" fill="#D8ECFE"/>
<path d="M35.0695 71.0469H13.4556C13.3253 71.0469 13.2004 70.9951 13.1083 70.903C13.0162 70.8109 12.9645 70.686 12.9645 70.5558V66.8739C12.9645 66.7437 13.0162 66.6187 13.1083 66.5267C13.2004 66.4346 13.3253 66.3828 13.4556 66.3828H35.0695C35.1997 66.3828 35.3246 66.4346 35.4167 66.5267C35.5088 66.6187 35.5606 66.7437 35.5606 66.8739V70.5558C35.5606 70.686 35.5088 70.8109 35.4167 70.903C35.3246 70.9951 35.1997 71.0469 35.0695 71.0469Z" fill="#4FC123"/>
<path d="M18.3966 70.5556V66.8737C18.3966 66.8093 18.4093 66.7454 18.434 66.6858C18.4587 66.6263 18.4949 66.5721 18.5405 66.5266C18.5861 66.481 18.6402 66.4448 18.6998 66.4201C18.7594 66.3955 18.8232 66.3828 18.8877 66.3828H13.4555C13.3253 66.3828 13.2005 66.4345 13.1084 66.5266C13.0163 66.6187 12.9646 66.7435 12.9646 66.8737V70.5556C12.9646 70.6858 13.0163 70.8107 13.1084 70.9028C13.2005 70.9948 13.3253 71.0466 13.4555 71.0466H18.8877C18.8232 71.0466 18.7594 71.0339 18.6998 71.0093C18.6402 70.9846 18.586 70.9485 18.5404 70.9029C18.4948 70.8573 18.4586 70.8031 18.434 70.7436C18.4093 70.684 18.3966 70.6201 18.3966 70.5556Z" fill="#47A920"/>
<path d="M14.1365 28.0156H59.7076V47.4075H14.1365V28.0156Z" fill="white"/>
<path d="M14.1365 28.0156H18.263V47.4077H14.1365V28.0156Z" fill="#F3F0F3"/>
<path d="M43.5476 28.0156H59.7076V47.4075H43.5476V28.0156Z" fill="#8AC9FE"/>
<path d="M60.3886 13.0517H36.4867C36.3565 13.0517 36.2315 13 36.1394 12.9079C36.0473 12.8158 35.9956 12.6909 35.9956 12.5606V8.85438C35.9956 8.72413 36.0473 8.59922 36.1394 8.50712C36.2315 8.41502 36.3565 8.36328 36.4867 8.36328H60.3886C60.5188 8.36328 60.6437 8.41502 60.7358 8.50712C60.8279 8.59922 60.8797 8.72413 60.8797 8.85438V12.5606C60.8796 12.6909 60.8279 12.8157 60.7358 12.9078C60.6437 12.9999 60.5188 13.0517 60.3886 13.0517Z" fill="#0593FC"/>
<path d="M41.41 12.5606V8.85438C41.41 8.72416 41.4617 8.59927 41.5538 8.50717C41.6458 8.41508 41.7707 8.36332 41.9009 8.36328H36.4865C36.4221 8.36328 36.3582 8.37599 36.2986 8.40067C36.2391 8.42535 36.1849 8.46152 36.1393 8.50713C36.0938 8.55273 36.0576 8.60687 36.0329 8.66645C36.0083 8.72603 35.9956 8.78989 35.9956 8.85438V12.5606C35.9956 12.6908 36.0473 12.8157 36.1394 12.9078C36.2315 12.9999 36.3563 13.0517 36.4865 13.0517H41.9009C41.7707 13.0517 41.6458 12.9999 41.5538 12.9078C41.4617 12.8157 41.41 12.6908 41.41 12.5606Z" fill="#0182FC"/>
<path d="M54.7263 54.2509C54.6175 54.1404 54.4877 54.0527 54.3447 53.9928C54.2016 53.933 54.048 53.9022 53.8929 53.9023H29.0065C28.3591 53.9023 27.8346 54.427 27.8346 55.0742C27.8346 55.7214 28.3591 56.2461 29.0065 56.2461H51.1716C52.2379 55.4092 53.4337 54.7308 54.7263 54.2509ZM48.2715 59.3967H29.0065C28.3591 59.3967 27.8346 59.9214 27.8346 60.5686C27.8346 61.2158 28.3591 61.7405 29.0065 61.7405H47.0471C47.3757 60.9202 47.7859 60.135 48.2715 59.3967ZM24.6404 56.2461H14.1365C13.4891 56.2461 12.9646 55.7214 12.9646 55.0742C12.9646 54.427 13.4891 53.9023 14.1365 53.9023H24.6405C24.7944 53.9024 24.9468 53.9327 25.089 53.9916C25.2312 54.0505 25.3603 54.1368 25.4692 54.2456C25.578 54.3545 25.6643 54.4837 25.7232 54.6258C25.782 54.768 25.8123 54.9204 25.8123 55.0743C25.8123 55.2282 25.782 55.3806 25.7231 55.5228C25.6642 55.6649 25.5779 55.7941 25.469 55.9029C25.3602 56.0117 25.231 56.098 25.0888 56.1569C24.9467 56.2158 24.7943 56.2461 24.6404 56.2461ZM24.6404 61.7405H14.1365C13.4891 61.7405 12.9646 61.2158 12.9646 60.5686C12.9646 59.9214 13.4891 59.3967 14.1365 59.3967H24.6405C24.7944 59.3967 24.9468 59.4271 25.089 59.486C25.2312 59.5449 25.3603 59.6312 25.4692 59.74C25.578 59.8488 25.6643 59.978 25.7232 60.1202C25.782 60.2624 25.8123 60.4148 25.8123 60.5687C25.8123 60.7226 25.782 60.875 25.7231 61.0171C25.6642 61.1593 25.5779 61.2885 25.469 61.3973C25.3602 61.5061 25.231 61.5924 25.0888 61.6513C24.9467 61.7102 24.7943 61.7405 24.6404 61.7405Z" fill="#60B7FF"/>
<path d="M59.3084 79.9981C66.6882 79.9981 72.6707 74.0156 72.6707 66.6358C72.6707 59.256 66.6882 53.2734 59.3084 53.2734C51.9286 53.2734 45.946 59.256 45.946 66.6358C45.946 74.0156 51.9286 79.9981 59.3084 79.9981Z" fill="#FEDF30"/>
<path d="M59.3086 75.4961C64.2015 75.4961 68.168 71.5296 68.168 66.6367C68.168 61.7438 64.2015 57.7773 59.3086 57.7773C54.4157 57.7773 50.4492 61.7438 50.4492 66.6367C50.4492 71.5296 54.4157 75.4961 59.3086 75.4961Z" fill="#4FC123"/>
<path d="M56.4173 66.6367C56.4173 62.7984 58.8716 59.5236 62.2927 58.2958C61.3353 57.9521 60.3257 57.7767 59.3086 57.7773C54.4234 57.7773 50.4492 61.7517 50.4492 66.6367C50.4492 71.5219 54.4236 75.4963 59.3086 75.4963C60.3257 75.4968 61.3353 75.3214 62.2927 74.9778C58.8714 73.75 56.4173 70.4752 56.4173 66.6367Z" fill="#47A920"/>
<path d="M58.7016 70.6042C58.3908 70.6041 58.0927 70.4807 57.8729 70.2609L54.1624 66.5503C53.9427 66.3305 53.8192 66.0325 53.8192 65.7217C53.8192 65.4109 53.9427 65.1129 54.1624 64.8931C54.2712 64.7843 54.4004 64.6979 54.5426 64.639C54.6848 64.5801 54.8372 64.5498 54.9911 64.5498C55.145 64.5498 55.2974 64.5801 55.4395 64.639C55.5817 64.6979 55.7109 64.7843 55.8197 64.8931L58.7015 67.775L62.7969 63.6795C63.017 63.4613 63.3146 63.3392 63.6245 63.3398C63.9344 63.3405 64.2314 63.4639 64.4506 63.683C64.6697 63.9022 64.7932 64.1992 64.7938 64.5091C64.7945 64.819 64.6724 65.1166 64.4543 65.3367L59.5301 70.2609C59.4213 70.3697 59.2921 70.4561 59.15 70.515C59.0078 70.5739 58.8555 70.6042 58.7016 70.6042Z" fill="white"/>
<path d="M21.2513 13.0975H16.6376C15.9048 13.0975 15.3085 12.5013 15.3083 11.7686V11.6923C15.3083 10.9594 15.9046 10.3631 16.6376 10.3631H22.1848C22.8321 10.3631 23.3566 9.83844 23.3566 9.19125C23.3566 8.54406 22.8321 8.01938 22.1848 8.01938H20.1141V7.28516C20.1141 6.63797 19.5896 6.11328 18.9423 6.11328C18.2949 6.11328 17.7704 6.63797 17.7704 7.28516V8.01938H16.6376C14.6123 8.01938 12.9646 9.66703 12.9646 11.6923V11.7688C12.9648 13.7938 14.6126 15.4413 16.6376 15.4413H21.2513C21.9818 15.4413 22.576 16.0355 22.576 16.7659C22.576 17.4964 21.9818 18.0906 21.2513 18.0906H15.6569C15.0096 18.0906 14.4851 18.6153 14.4851 19.2625C14.4851 19.9097 15.0096 20.4344 15.6569 20.4344H17.7702V21.1684C17.7702 21.8156 18.2948 22.3403 18.9421 22.3403C19.5894 22.3403 20.114 21.8156 20.114 21.1684V20.4344H21.2512C23.2738 20.4344 24.9196 18.7888 24.9196 16.7659C24.9196 14.7431 23.274 13.0975 21.2513 13.0975Z" fill="#47A920"/>
<path d="M59.7075 18.6289H48.0724C47.425 18.6289 46.9005 18.1042 46.9005 17.457C46.9005 16.8098 47.425 16.2852 48.0724 16.2852H59.7075C60.3549 16.2852 60.8794 16.8098 60.8794 17.457C60.8794 18.1042 60.3549 18.6289 59.7075 18.6289Z" fill="#8AC9FE"/>
<path d="M59.7076 26.8438H14.1365C13.8257 26.8438 13.5276 26.9672 13.3078 27.187C13.0881 27.4068 12.9646 27.7048 12.9646 28.0156V47.4075C12.9646 47.7183 13.0881 48.0164 13.3078 48.2361C13.5276 48.4559 13.8257 48.5794 14.1365 48.5794H59.7076C60.0184 48.5794 60.3164 48.4559 60.5362 48.2361C60.756 48.0164 60.8794 47.7183 60.8794 47.4075V28.0156C60.8794 27.7048 60.756 27.4068 60.5362 27.187C60.3164 26.9672 60.0184 26.8438 59.7076 26.8438ZM15.3083 35.6516H19.5902V39.7717H15.3083V35.6516ZM42.3757 39.7717H21.934V35.6516H42.3757V39.7717ZM44.7194 39.7717V35.6516H58.5357V39.7717H44.7194ZM58.5357 42.1155V46.2358H44.7194V42.1155H58.5357ZM42.3757 33.3078H21.934V29.1875H42.3757V33.3078ZM21.934 42.1155H42.3757V46.2358H21.934V42.1155ZM58.5357 33.3078H44.7194V29.1875H58.5357V33.3078ZM19.5902 29.1875V33.3078H15.3083V29.1875H19.5902ZM15.3083 42.1155H19.5902V46.2358H15.3083V42.1155Z" fill="#B3DAFE"/>
</svg>
