<svg width="91" height="91" viewBox="0 0 91 91" fill="none" xmlns="http://www.w3.org/2000/svg">
<g opacity="0.5">
<path d="M45.5 90.5C70.3528 90.5 90.5 70.3528 90.5 45.5C90.5 20.6472 70.3528 0.5 45.5 0.5C20.6472 0.5 0.5 20.6472 0.5 45.5C0.5 70.3528 20.6472 90.5 45.5 90.5Z" fill="url(#paint0_linear_33_410)"/>
<path d="M90.3772 48.8258C88.7618 70.9549 71.1415 88.642 49.0423 90.3611L27.7974 69.118L29.68 24.0318L63.6743 22.1211L90.3772 48.8258Z" fill="url(#paint1_linear_33_410)"/>
<path d="M58.4585 20.1875H32.7857C31.735 20.1875 30.6946 20.3945 29.7239 20.7966C28.7532 21.1988 27.8712 21.7882 27.1284 22.5312C26.3855 23.2742 25.7963 24.1563 25.3943 25.1271C24.9924 26.0979 24.7857 27.1384 24.7859 28.1891V62.8637C24.7857 63.9144 24.9924 64.9548 25.3943 65.9256C25.7963 66.8964 26.3855 67.7785 27.1284 68.5215C27.8712 69.2646 28.7532 69.854 29.7239 70.2561C30.6946 70.6583 31.735 70.8652 32.7857 70.8652H58.4585C60.5804 70.8648 62.6152 70.0215 64.1154 68.521C65.6156 67.0205 66.4584 64.9855 66.4584 62.8637V28.1855C66.4574 26.0643 65.6142 24.0303 64.1141 22.5305C62.614 21.0307 60.5798 20.188 58.4585 20.1875ZM37.7023 62.5508C37.7025 62.7321 37.667 62.9118 37.5978 63.0794C37.5285 63.247 37.4269 63.3993 37.2988 63.5276C37.1706 63.656 37.0184 63.7578 36.8509 63.8272C36.6833 63.8967 36.5038 63.9324 36.3224 63.9324H31.0666C30.8847 63.9331 30.7044 63.8979 30.5362 63.8288C30.368 63.7596 30.215 63.658 30.0862 63.5296C29.9573 63.4012 29.8551 63.2487 29.7853 63.0807C29.7155 62.9128 29.6796 62.7327 29.6796 62.5508V57.2949C29.6801 56.9288 29.8259 56.5778 30.0849 56.3191C30.344 56.0604 30.6951 55.915 31.0613 55.915H36.3171C36.6831 55.915 37.0341 56.0604 37.2929 56.3192C37.5516 56.578 37.697 56.929 37.697 57.2949L37.7023 62.5508ZM37.7023 50.4746C37.7025 50.656 37.667 50.8356 37.5978 51.0032C37.5285 51.1708 37.4269 51.3231 37.2988 51.4515C37.1706 51.5798 37.0184 51.6816 36.8509 51.751C36.6833 51.8205 36.5038 51.8563 36.3224 51.8563H31.0666C30.8851 51.8563 30.7055 51.8205 30.5378 51.7511C30.3702 51.6816 30.2179 51.5799 30.0896 51.4516C29.9613 51.3233 29.8595 51.171 29.7901 51.0033C29.7207 50.8357 29.6849 50.656 29.6849 50.4746V45.2187C29.6849 45.0374 29.7207 44.8578 29.7901 44.6903C29.8596 44.5228 29.9614 44.3706 30.0897 44.2424C30.218 44.1142 30.3703 44.0126 30.538 43.9434C30.7056 43.8742 30.8852 43.8386 31.0666 43.8389H36.3224C36.5037 43.8386 36.6832 43.8742 36.8507 43.9434C37.0183 44.0127 37.1705 44.1143 37.2987 44.2425C37.4268 44.3707 37.5285 44.5229 37.5977 44.6904C37.667 44.8579 37.7025 45.0375 37.7023 45.2187V50.4746ZM49.6308 62.5508C49.6308 62.9172 49.4852 63.2686 49.2261 63.5277C48.967 63.7869 48.6156 63.9324 48.2492 63.9324H42.9951C42.6286 63.9324 42.2772 63.7869 42.0181 63.5277C41.759 63.2686 41.6134 62.9172 41.6134 62.5508V57.2949C41.6139 56.9288 41.7597 56.5778 42.0187 56.3191C42.2778 56.0604 42.6289 55.915 42.9951 55.915H48.2492C48.6153 55.915 48.9665 56.0604 49.2255 56.3191C49.4846 56.5778 49.6303 56.9288 49.6308 57.2949V62.5508ZM49.6308 50.4746C49.6308 50.841 49.4852 51.1925 49.2261 51.4516C48.967 51.7107 48.6156 51.8563 48.2492 51.8563H42.9951C42.6286 51.8563 42.2772 51.7107 42.0181 51.4516C41.759 51.1925 41.6134 50.841 41.6134 50.4746V45.2187C41.6134 45.0374 41.6492 44.8578 41.7186 44.6903C41.7881 44.5228 41.8899 44.3706 42.0182 44.2424C42.1465 44.1142 42.2989 44.0126 42.4665 43.9434C42.6341 43.8742 42.8137 43.8386 42.9951 43.8389H48.2492C48.4305 43.8386 48.6101 43.8742 48.7778 43.9434C48.9454 44.0126 49.0977 44.1142 49.226 44.2424C49.3544 44.3706 49.4562 44.5228 49.5256 44.6903C49.5951 44.8578 49.6308 45.0374 49.6308 45.2187V50.4746ZM61.5593 62.5508C61.5593 62.9172 61.4138 63.2686 61.1547 63.5277C60.8955 63.7869 60.5441 63.9324 60.1777 63.9324H54.9218C54.5554 63.9324 54.204 63.7869 53.9449 63.5277C53.6858 63.2686 53.5402 62.9172 53.5402 62.5508V57.2949C53.5407 56.9288 53.6864 56.5778 53.9455 56.3191C54.2045 56.0604 54.5557 55.915 54.9218 55.915H60.1777C60.5438 55.915 60.895 56.0604 61.154 56.3191C61.4131 56.5778 61.5589 56.9288 61.5593 57.2949V62.5508ZM61.5593 50.4746C61.5593 50.841 61.4138 51.1925 61.1547 51.4516C60.8955 51.7107 60.5441 51.8563 60.1777 51.8563H54.9218C54.5554 51.8563 54.204 51.7107 53.9449 51.4516C53.6858 51.1925 53.5402 50.841 53.5402 50.4746V45.2187C53.5402 45.0374 53.5759 44.8578 53.6454 44.6903C53.7148 44.5228 53.8166 44.3706 53.945 44.2424C54.0733 44.1142 54.2256 44.0126 54.3932 43.9434C54.5608 43.8742 54.7405 43.8386 54.9218 43.8389H60.1777C60.359 43.8386 60.5387 43.8742 60.7063 43.9434C60.8739 44.0126 61.0262 44.1142 61.1545 44.2424C61.2829 44.3706 61.3847 44.5228 61.4541 44.6903C61.5236 44.8578 61.5593 45.0374 61.5593 45.2187V50.4746ZM61.5593 35.0287C61.5589 35.9213 61.2041 36.7773 60.5729 37.4085C59.9417 38.0397 59.0857 38.3945 58.1931 38.3949H33.0564C32.6137 38.3963 32.1752 38.3104 31.7658 38.1421C31.3564 37.9737 30.9842 37.7263 30.6705 37.414C30.3569 37.1016 30.1079 36.7305 29.9379 36.3218C29.7679 35.9131 29.6801 35.4749 29.6796 35.0322V29.7869C29.6796 28.8941 30.0343 28.0379 30.6656 27.4066C31.2969 26.7754 32.1531 26.4207 33.0458 26.4207H58.1826C59.0753 26.4207 59.9316 26.7754 60.5628 27.4066C61.1941 28.0379 61.5488 28.8941 61.5488 29.7869L61.5593 35.0287Z" fill="white"/>
</g>
<defs>
<linearGradient id="paint0_linear_33_410" x1="13.6801" y1="13.6801" x2="77.3199" y2="77.3199" gradientUnits="userSpaceOnUse">
<stop stop-color="#F8DA30"/>
<stop offset="1" stop-color="#FDAB22"/>
</linearGradient>
<linearGradient id="paint1_linear_33_410" x1="26.9167" y1="26.8004" x2="77.3782" y2="77.2619" gradientUnits="userSpaceOnUse">
<stop stop-color="#DD8317"/>
<stop offset="1" stop-color="#DD8317" stop-opacity="0"/>
</linearGradient>
</defs>
</svg>
