<svg width="20" height="18" viewBox="0 0 20 18" fill="none" xmlns="http://www.w3.org/2000/svg">
<path d="M18.8785 2.27882C18.8773 2.27882 18.8761 2.27867 18.875 2.27867H13.71V1.709C13.71 0.766657 12.9433 0 12.001 0H7.44365C6.5013 0 5.73464 0.766695 5.73464 1.709V2.27867H0.569667C0.252476 2.27867 0 2.53859 0 2.84833V15.381C0 16.3233 0.766695 17.09 1.709 17.09H17.7356C18.678 17.09 19.4446 16.3233 19.4446 15.381V2.85813C19.4228 2.48397 19.1927 2.28087 18.8785 2.27882ZM6.87398 1.709C6.87398 1.39492 7.12957 1.13933 7.44365 1.13933H12.001C12.3151 1.13933 12.5706 1.39492 12.5706 1.709V2.27867H6.87398V1.709ZM18.0846 3.418L16.3154 8.72509C16.2778 8.83857 16.2053 8.9373 16.1083 9.00724C16.0113 9.07717 15.8948 9.11477 15.7752 9.11467H12.5706V8.545C12.5706 8.23035 12.3156 7.97533 12.001 7.97533H7.44365C7.129 7.97533 6.87398 8.23035 6.87398 8.545V9.11467H3.66945C3.54987 9.11477 3.43331 9.07719 3.33632 9.00725C3.23932 8.93731 3.16684 8.83858 3.12918 8.72509L1.3601 3.418H18.0846ZM11.4313 9.11467V10.254H8.01331V9.11467H11.4313ZM18.3053 15.381C18.3053 15.6951 18.0497 15.9507 17.7356 15.9507H1.709C1.39492 15.9507 1.13933 15.6951 1.13933 15.381V6.35877L2.04829 9.08542C2.16138 9.42588 2.37889 9.72204 2.66991 9.93182C2.96093 10.1416 3.31066 10.2543 3.66941 10.254H6.87398V10.8237C6.87398 11.1383 7.129 11.3933 7.44365 11.3933H12.001C12.3156 11.3933 12.5706 11.1383 12.5706 10.8237V10.254H15.7752C16.1339 10.2543 16.4837 10.1416 16.7747 9.93183C17.0657 9.72205 17.2832 9.42589 17.3963 9.08542L18.3053 6.35877V15.381Z" fill="#767676"/>
</svg>
