<svg width="32" height="32" viewBox="0 0 32 32" fill="none" xmlns="http://www.w3.org/2000/svg">
<path d="M9.5 6.49988H7C6.72386 6.49988 6.5 6.72374 6.5 6.99988V8.99988C6.5 9.27602 6.72386 9.49988 7 9.49988H9.5C9.77614 9.49988 10 9.27602 10 8.99988V6.99988C10 6.72374 9.77614 6.49988 9.5 6.49988Z" fill="#05406B"/>
<path d="M25 6.49988H11.5C11.2239 6.49988 11 6.72374 11 6.99988V8.99988C11 9.27602 11.2239 9.49988 11.5 9.49988H25C25.2761 9.49988 25.5 9.27602 25.5 8.99988V6.99988C25.5 6.72374 25.2761 6.49988 25 6.49988Z" fill="#05406B"/>
<path d="M9.5 10.4999H7C6.72386 10.4999 6.5 10.7237 6.5 10.9999V12.9999C6.5 13.276 6.72386 13.4999 7 13.4999H9.5C9.77614 13.4999 10 13.276 10 12.9999V10.9999C10 10.7237 9.77614 10.4999 9.5 10.4999Z" fill="#05406B"/>
<path d="M25 10.4999H11.5C11.2239 10.4999 11 10.7237 11 10.9999V12.9999C11 13.276 11.2239 13.4999 11.5 13.4999H25C25.2761 13.4999 25.5 13.276 25.5 12.9999V10.9999C25.5 10.7237 25.2761 10.4999 25 10.4999Z" fill="#05406B"/>
<path d="M9.5 14.4999H7C6.72386 14.4999 6.5 14.7237 6.5 14.9999V16.9999C6.5 17.276 6.72386 17.4999 7 17.4999H9.5C9.77614 17.4999 10 17.276 10 16.9999V14.9999C10 14.7237 9.77614 14.4999 9.5 14.4999Z" fill="#05406B"/>
<path d="M9.5 18.4999H7C6.72386 18.4999 6.5 18.7237 6.5 18.9999V20.9999C6.5 21.276 6.72386 21.4999 7 21.4999H9.5C9.77614 21.4999 10 21.276 10 20.9999V18.9999C10 18.7237 9.77614 18.4999 9.5 18.4999Z" fill="#05406B"/>
<path d="M9.5 22.4999H7C6.72386 22.4999 6.5 22.7237 6.5 22.9999V24.9999C6.5 25.276 6.72386 25.4999 7 25.4999H9.5C9.77614 25.4999 10 25.276 10 24.9999V22.9999C10 22.7237 9.77614 22.4999 9.5 22.4999Z" fill="#05406B"/>
<path d="M25.5 16.2498C24.4122 16.2498 23.3488 16.5724 22.4443 17.1767C21.5399 17.7811 20.8349 18.6401 20.4186 19.6451C20.0024 20.6501 19.8934 21.7559 20.1057 22.8228C20.3179 23.8897 20.8417 24.8697 21.6109 25.6389C22.3801 26.4081 23.3601 26.9319 24.427 27.1441C25.4939 27.3564 26.5997 27.2474 27.6047 26.8312C28.6097 26.4149 29.4687 25.7099 30.0731 24.8055C30.6774 23.901 31 22.8376 31 21.7498C30.9983 20.2916 30.4183 18.8937 29.3872 17.8626C28.3562 16.8315 26.9582 16.2515 25.5 16.2498ZM28.027 21.2911L24.6477 23.5411C24.5392 23.6118 24.4077 23.6381 24.2804 23.6146C24.1531 23.5911 24.0396 23.5196 23.9635 23.4148L22.8427 21.8413C22.8036 21.7879 22.7754 21.7272 22.7599 21.6628C22.7444 21.5984 22.7418 21.5316 22.7524 21.4662C22.7629 21.4008 22.7863 21.3381 22.8213 21.2819C22.8562 21.2256 22.902 21.1768 22.956 21.1384C23.0099 21.1 23.071 21.0727 23.1356 21.0581C23.2002 21.0434 23.2671 21.0418 23.3323 21.0532C23.3975 21.0647 23.4599 21.0889 23.5156 21.1247C23.5714 21.1604 23.6196 21.2068 23.6572 21.2613L24.497 22.4401L27.473 20.4586C27.5276 20.4218 27.589 20.3962 27.6536 20.3832C27.7182 20.3702 27.7847 20.3701 27.8493 20.3829C27.914 20.3957 27.9754 20.4212 28.0302 20.4578C28.085 20.4944 28.1319 20.5415 28.1684 20.5964C28.2049 20.6512 28.2302 20.7127 28.2429 20.7774C28.2555 20.842 28.2553 20.9086 28.2421 20.9731C28.229 21.0377 28.2032 21.099 28.1663 21.1536C28.1294 21.2081 28.082 21.2549 28.027 21.2911ZM5.01598 5.62057C5.07098 5.56141 5.12623 5.50257 5.18173 5.44408C5.22717 5.39664 5.26282 5.34071 5.28664 5.27949C5.31047 5.21828 5.322 5.15297 5.32058 5.08729C5.31917 5.02162 5.30483 4.95686 5.27839 4.89673C5.25195 4.8366 5.21392 4.78226 5.16648 4.73682C5.11904 4.69139 5.06312 4.65574 5.0019 4.63192C4.94068 4.60809 4.87537 4.59656 4.8097 4.59797C4.74402 4.59939 4.67927 4.61373 4.61914 4.64017C4.55901 4.66661 4.50467 4.70464 4.45923 4.75208C4.39973 4.81458 4.34073 4.87749 4.28223 4.94082C4.19209 5.03813 4.1443 5.16725 4.14936 5.29979C4.15187 5.36542 4.16728 5.42991 4.19471 5.48958C4.22214 5.54926 4.26105 5.60294 4.30923 5.64757C4.35741 5.69221 4.41391 5.72691 4.4755 5.74971C4.53709 5.77251 4.60257 5.78295 4.6682 5.78045C4.80074 5.77538 4.92584 5.71788 5.01598 5.62057ZM1.88873 9.43408C2.00803 9.49129 2.14503 9.49934 2.27021 9.45651C2.39539 9.41367 2.49874 9.32338 2.55798 9.20508C2.59348 9.13258 2.62965 9.06041 2.66648 8.98858C2.72702 8.87055 2.73819 8.73332 2.69754 8.60706C2.65689 8.4808 2.56775 8.37586 2.44973 8.31533C2.33171 8.25479 2.19448 8.24362 2.06822 8.28427C1.94196 8.32491 1.83702 8.41405 1.77648 8.53208C1.73698 8.60924 1.69815 8.68674 1.65998 8.76458C1.631 8.82355 1.61394 8.88765 1.60975 8.95323C1.60556 9.0188 1.61435 9.08456 1.63559 9.14674C1.65683 9.20892 1.69013 9.2663 1.73356 9.3156C1.777 9.36491 1.82973 9.40516 1.88873 9.43408ZM12.43 1.32133C12.5083 1.30383 12.5869 1.28699 12.6657 1.27083C12.7938 1.24228 12.9055 1.16459 12.9768 1.05449C13.0481 0.944384 13.0733 0.810679 13.047 0.682172C13.0206 0.553665 12.9449 0.44064 12.836 0.367441C12.7272 0.294243 12.5939 0.266728 12.465 0.290825C12.3803 0.308158 12.2958 0.326242 12.2115 0.345075C12.1474 0.359413 12.0868 0.386236 12.033 0.424012C11.9793 0.461789 11.9336 0.509779 11.8984 0.565241C11.8632 0.620703 11.8393 0.682551 11.828 0.747252C11.8168 0.811953 11.8184 0.87824 11.8327 0.942325C11.8632 1.07088 11.9426 1.18245 12.0541 1.25325C12.1657 1.32405 12.3007 1.34848 12.43 1.32133ZM6.60798 4.13483C6.67065 4.08449 6.73382 4.03449 6.79748 3.98483C6.84935 3.94451 6.89278 3.89437 6.92527 3.83727C6.95777 3.78018 6.9787 3.71724 6.98687 3.65205C6.99504 3.58686 6.99029 3.52071 6.9729 3.45735C6.9555 3.394 6.9258 3.3347 6.88548 3.28283C6.84517 3.23095 6.79503 3.18753 6.73793 3.15503C6.68083 3.12254 6.61789 3.10161 6.55271 3.09344C6.48752 3.08526 6.42136 3.09001 6.35801 3.10741C6.29466 3.12481 6.23535 3.15451 6.18348 3.19483C6.11548 3.24783 6.04798 3.30133 5.98098 3.35533C5.87761 3.43847 5.81151 3.55927 5.79721 3.69116C5.78291 3.82304 5.82159 3.95521 5.90473 4.05858C5.98788 4.16194 6.10868 4.22805 6.24057 4.24235C6.37245 4.25665 6.50461 4.21797 6.60798 4.13483ZM10.354 1.95708C10.4283 1.92774 10.5031 1.89899 10.5782 1.87083C10.7026 1.82451 10.8034 1.73071 10.8585 1.61005C10.9137 1.4894 10.9187 1.35177 10.8724 1.22745C10.826 1.10313 10.7322 1.0023 10.6116 0.94714C10.4909 0.891981 10.3533 0.887012 10.229 0.933325C10.1483 0.963492 10.0679 0.994325 9.98773 1.02583C9.92658 1.04986 9.87076 1.08571 9.82346 1.13133C9.77617 1.17695 9.73832 1.23143 9.71209 1.29168C9.68585 1.35192 9.67175 1.41675 9.67057 1.48244C9.66939 1.54814 9.68117 1.61343 9.70523 1.67458C9.75495 1.79715 9.85071 1.89536 9.97198 1.94817C10.0932 2.00098 10.2304 2.00417 10.354 1.95708ZM1.10948 11.5478C1.23568 11.5875 1.37239 11.576 1.49021 11.5159C1.60803 11.4557 1.69754 11.3518 1.73948 11.2263C1.76448 11.1492 1.79007 11.0722 1.81623 10.9956C1.859 10.87 1.85014 10.7326 1.7916 10.6136C1.73307 10.4946 1.62965 10.4037 1.50411 10.361C1.37856 10.3182 1.24117 10.327 1.12215 10.3856C1.00314 10.4441 0.912248 10.5475 0.869482 10.6731C0.841816 10.7544 0.814732 10.836 0.788232 10.9178C0.767953 10.9803 0.760175 11.0461 0.765345 11.1116C0.770515 11.1771 0.78853 11.2409 0.818361 11.2994C0.848193 11.3579 0.889257 11.4099 0.939208 11.4526C0.989159 11.4952 1.04702 11.5276 1.10948 11.5478ZM8.39923 2.90333C8.46873 2.86299 8.53857 2.82316 8.60873 2.78383C8.72453 2.71911 8.80988 2.61105 8.84601 2.48341C8.88213 2.35576 8.86607 2.219 8.80136 2.1032C8.73665 1.9874 8.62858 1.90205 8.50094 1.86593C8.3733 1.8298 8.23653 1.84586 8.12073 1.91058C8.0454 1.95258 7.97048 1.99524 7.89598 2.03858C7.83919 2.07162 7.78945 2.11553 7.74963 2.16779C7.7098 2.22005 7.68065 2.27965 7.66386 2.34318C7.64706 2.4067 7.64294 2.47292 7.65174 2.53804C7.66053 2.60315 7.68206 2.6659 7.71511 2.7227C7.74815 2.7795 7.79206 2.82923 7.84432 2.86906C7.89659 2.90889 7.95618 2.93803 8.01971 2.95482C8.14801 2.98875 8.28453 2.97006 8.39923 2.90333ZM27.6672 7.79208C27.7023 7.84761 27.748 7.89568 27.8017 7.93356C27.8554 7.97143 27.916 7.99837 27.9801 8.01282C28.0441 8.02727 28.1105 8.02896 28.1752 8.01778C28.2399 8.00661 28.3018 7.9828 28.3574 7.9477C28.4129 7.9126 28.461 7.86691 28.4988 7.81324C28.5367 7.75956 28.5636 7.69895 28.5781 7.63487C28.5926 7.57078 28.5942 7.50448 28.5831 7.43975C28.5719 7.37501 28.5481 7.31311 28.513 7.25758C28.467 7.18507 28.4205 7.11258 28.3735 7.04082C28.3375 6.98588 28.291 6.93857 28.2367 6.9016C28.1824 6.86462 28.1213 6.8387 28.057 6.82531C27.9927 6.81193 27.9264 6.81135 27.8618 6.8236C27.7973 6.83584 27.7358 6.86068 27.6809 6.8967C27.6259 6.93271 27.5786 6.9792 27.5416 7.0335C27.5047 7.0878 27.4787 7.14885 27.4653 7.21316C27.452 7.27748 27.4514 7.3438 27.4636 7.40834C27.4759 7.47289 27.5007 7.53438 27.5367 7.58932C27.5807 7.65666 27.6242 7.72416 27.6672 7.79182V7.79208ZM28.5942 9.49083C28.6286 9.56416 28.6622 9.63783 28.6952 9.71183C28.7506 9.83188 28.8507 9.92549 28.9742 9.9726C29.0977 10.0197 29.2348 10.0166 29.356 9.96383C29.416 9.93699 29.47 9.8986 29.5152 9.85086C29.5603 9.80311 29.5956 9.74693 29.619 9.68555C29.6424 9.62416 29.6534 9.55876 29.6516 9.49309C29.6497 9.42742 29.6349 9.36277 29.608 9.30283C29.573 9.22449 29.5374 9.14641 29.5012 9.06858C29.4735 9.00902 29.4343 8.95551 29.3859 8.9111C29.3375 8.86669 29.2808 8.83225 29.2191 8.80974C29.1574 8.78723 29.0919 8.7771 29.0262 8.77993C28.9606 8.78275 28.8962 8.79848 28.8366 8.8262C28.7771 8.85393 28.7235 8.89311 28.6791 8.94151C28.6347 8.98992 28.6003 9.0466 28.5778 9.10832C28.5553 9.17003 28.5451 9.23558 28.548 9.30121C28.5508 9.36684 28.5665 9.43127 28.5942 9.49083ZM30.2675 13.0833C30.1363 13.1032 30.0185 13.1744 29.9398 13.2812C29.8612 13.388 29.8281 13.5217 29.848 13.6528C29.8601 13.7327 29.8716 13.8127 29.8825 13.8928C29.9019 14.0235 29.9716 14.1415 30.0767 14.2216C30.1818 14.3017 30.3141 14.3375 30.4452 14.3216C30.5103 14.3127 30.5731 14.2911 30.6298 14.258C30.6866 14.2249 30.7363 14.181 30.776 14.1287C30.8158 14.0764 30.8449 14.0167 30.8616 13.9532C30.8783 13.8896 30.8824 13.8234 30.8735 13.7583C30.8618 13.673 30.8496 13.588 30.837 13.5033C30.8272 13.4383 30.8047 13.3759 30.7707 13.3197C30.7368 13.2634 30.6921 13.2143 30.6392 13.1753C30.5864 13.1363 30.5263 13.1081 30.4625 13.0923C30.3987 13.0766 30.3325 13.0735 30.2675 13.0833ZM26.3747 6.04182C26.4619 6.14118 26.5844 6.20249 26.7162 6.21263C26.8479 6.22276 26.9784 6.18093 27.0797 6.09608C27.1296 6.05334 27.1707 6.00118 27.2004 5.9426C27.2302 5.88401 27.2481 5.82013 27.2531 5.75462C27.2582 5.6891 27.2503 5.62323 27.2299 5.56077C27.2095 5.4983 27.177 5.44047 27.1342 5.39057C27.0781 5.32524 27.0215 5.26041 26.9645 5.19607C26.9209 5.14694 26.8681 5.10688 26.809 5.07816C26.75 5.04944 26.6859 5.03263 26.6203 5.0287C26.5548 5.02476 26.4891 5.03378 26.427 5.05522C26.365 5.07667 26.3077 5.11013 26.2586 5.1537C26.2095 5.19727 26.1694 5.25008 26.1407 5.30913C26.112 5.36819 26.0952 5.43231 26.0912 5.49786C26.0873 5.56341 26.0963 5.62909 26.1178 5.69115C26.1392 5.75321 26.1727 5.81044 26.2162 5.85957C26.2696 5.91991 26.3224 5.98066 26.3747 6.04182ZM29.3702 11.5271C29.3934 11.6039 29.4159 11.6812 29.4377 11.7588C29.4753 11.8856 29.5608 11.9926 29.6762 12.0571C29.7916 12.1216 29.9276 12.1385 30.0552 12.1041C30.1829 12.0679 30.2909 11.9826 30.3557 11.8668C30.4204 11.751 30.4365 11.6142 30.4005 11.4866C30.377 11.4034 30.3526 11.3206 30.3275 11.2381C30.3091 11.1745 30.2784 11.1152 30.2369 11.0636C30.1955 11.012 30.1442 10.9691 30.0861 10.9375C30.0279 10.9059 29.9641 10.8861 29.8983 10.8793C29.8324 10.8725 29.7659 10.8789 29.7026 10.898C29.6392 10.9172 29.5803 10.9487 29.5292 10.9907C29.4781 11.0328 29.4359 11.0846 29.405 11.1431C29.3741 11.2016 29.3551 11.2657 29.3491 11.3316C29.3431 11.3975 29.3503 11.464 29.3702 11.5271ZM20.9585 2.07733C21.0331 2.10866 21.1073 2.14058 21.181 2.17308C21.3025 2.22645 21.4401 2.22939 21.5638 2.18124C21.6874 2.13309 21.7869 2.03779 21.8402 1.91633C21.8936 1.79486 21.8965 1.65716 21.8484 1.53353C21.8002 1.40989 21.705 1.31045 21.5835 1.25708C21.5045 1.22241 21.4251 1.18824 21.3452 1.15458C21.2229 1.10329 21.0851 1.10271 20.9624 1.15297C20.8396 1.20323 20.7418 1.30021 20.6905 1.42258C20.6392 1.54494 20.6386 1.68267 20.6889 1.80545C20.7391 1.92824 20.8361 2.02604 20.9585 2.07733ZM24.8417 4.49732C24.9418 4.58435 25.0724 4.62805 25.2047 4.61881C25.337 4.60958 25.4602 4.54816 25.5472 4.44807C25.6343 4.34799 25.678 4.21743 25.6687 4.08512C25.6595 3.95282 25.5981 3.8296 25.498 3.74258C25.433 3.68591 25.3676 3.62991 25.3017 3.57458C25.2002 3.48921 25.0689 3.44768 24.9367 3.45912C24.8046 3.47056 24.6824 3.53403 24.597 3.63558C24.5116 3.73712 24.4701 3.86842 24.4815 4.00058C24.493 4.13275 24.5564 4.25496 24.658 4.34032C24.7197 4.39199 24.7809 4.44432 24.8417 4.49732ZM16.752 1.03783C16.8327 1.04483 17.0282 1.06358 17.0455 1.06358C17.1738 1.06379 17.2974 1.01463 17.3905 0.926282C17.4836 0.837936 17.5391 0.717167 17.5457 0.588982C17.5522 0.460796 17.5092 0.335011 17.4255 0.237671C17.3418 0.140332 17.2239 0.0788926 17.0962 0.0660752C17.0109 0.0570752 16.9254 0.0487418 16.8397 0.0410752C16.7743 0.0353298 16.7083 0.0425316 16.6457 0.0622693C16.583 0.082007 16.5249 0.113894 16.4745 0.15611C16.4242 0.198326 16.3826 0.250044 16.3523 0.308311C16.3219 0.366578 16.3034 0.430253 16.2976 0.4957C16.2919 0.561148 16.2991 0.627086 16.3188 0.68975C16.3385 0.752415 16.3704 0.810578 16.4126 0.860919C16.4549 0.91126 16.5066 0.952793 16.5648 0.983146C16.6231 1.0135 16.6865 1.03208 16.752 1.03783ZM18.8945 1.39383C18.973 1.41333 19.0513 1.43349 19.1295 1.45433C19.2577 1.48837 19.3943 1.47007 19.5091 1.40345C19.6238 1.33683 19.7074 1.22734 19.7415 1.09908C19.7755 0.97081 19.7572 0.834273 19.6906 0.7195C19.624 0.604728 19.5145 0.521122 19.3862 0.487075C19.3026 0.464908 19.2188 0.443408 19.135 0.422575C19.0712 0.406784 19.005 0.403708 18.94 0.413523C18.875 0.423339 18.8126 0.445854 18.7564 0.479782C18.7001 0.51371 18.6511 0.558387 18.6121 0.611263C18.5731 0.664139 18.5449 0.724177 18.5291 0.78795C18.5133 0.851723 18.5102 0.917982 18.5201 0.982944C18.5299 1.04791 18.5524 1.1103 18.5863 1.16656C18.6202 1.22282 18.6649 1.27185 18.7178 1.31084C18.7707 1.34984 18.8307 1.37803 18.8945 1.39383ZM22.8935 3.06883C22.9625 3.11116 23.0312 3.15399 23.0995 3.19733C23.2115 3.26834 23.3472 3.29193 23.4767 3.26291C23.6061 3.23388 23.7187 3.15463 23.7897 3.04258C23.8607 2.93052 23.8843 2.79485 23.8553 2.6654C23.8263 2.53595 23.747 2.42334 23.635 2.35233C23.5623 2.30616 23.4893 2.26058 23.416 2.21558C23.3028 2.14629 23.1668 2.12479 23.0378 2.1558C22.9088 2.18681 22.7974 2.2678 22.7281 2.38095C22.6588 2.4941 22.6373 2.63014 22.6683 2.75914C22.6993 2.88814 22.7803 2.99954 22.8935 3.06883ZM14.5465 1.01483C14.5575 1.01483 14.7402 1.00383 14.821 0.999825C14.9524 0.991849 15.0753 0.932415 15.1632 0.834406C15.251 0.736397 15.2967 0.607711 15.2903 0.476243C15.2839 0.344775 15.226 0.221118 15.1291 0.132078C15.0321 0.0430385 14.904 -0.00420982 14.7725 0.000575163C14.6861 0.00474183 14.6001 0.0096585 14.5145 0.0153252C14.3848 0.0235375 14.2634 0.0818928 14.176 0.178039C14.0886 0.274185 14.042 0.400576 14.0461 0.530458C14.0502 0.66034 14.1047 0.78352 14.1981 0.873924C14.2914 0.964328 14.4165 1.01486 14.5465 1.01483ZM2.96223 7.45307C3.07204 7.52669 3.20633 7.5543 3.33628 7.53C3.46622 7.50569 3.58146 7.4314 3.65723 7.32307C3.70307 7.25624 3.7494 7.18983 3.79623 7.12383C3.83422 7.07025 3.86128 7.00971 3.87587 6.94567C3.89046 6.88164 3.89229 6.81535 3.88126 6.75061C3.87024 6.68586 3.84656 6.62392 3.8116 6.56832C3.77663 6.51273 3.73106 6.46456 3.67748 6.42658C3.6239 6.38859 3.56337 6.36153 3.49933 6.34694C3.43529 6.33235 3.36901 6.33052 3.30426 6.34154C3.23952 6.35257 3.17758 6.37624 3.12198 6.41121C3.06638 6.44617 3.01822 6.49175 2.98023 6.54532C2.93023 6.61582 2.8809 6.68666 2.83223 6.75782C2.75731 6.86727 2.72891 7.00199 2.75329 7.13237C2.77767 7.26274 2.85282 7.3781 2.96223 7.45307ZM22.29 30.3936C22.3668 30.3547 22.4432 30.3155 22.5192 30.2758C22.5774 30.2454 22.6291 30.2038 22.6712 30.1534C22.7133 30.103 22.7451 30.0448 22.7648 29.9821C22.7844 29.9194 22.7915 29.8535 22.7857 29.7881C22.7798 29.7227 22.7612 29.659 22.7307 29.6008C22.7003 29.5426 22.6587 29.491 22.6083 29.4488C22.5579 29.4067 22.4997 29.3749 22.437 29.3553C22.3104 29.3156 22.1733 29.3279 22.0557 29.3893C21.9841 29.4267 21.9122 29.4635 21.8402 29.4998C21.7218 29.5596 21.6319 29.6639 21.5903 29.7898C21.5488 29.9158 21.5589 30.0531 21.6185 30.1716C21.6792 30.289 21.7835 30.378 21.909 30.4195C22.0345 30.461 22.1712 30.4517 22.29 30.3936ZM20.138 31.2748C20.2198 31.2482 20.3015 31.221 20.383 31.1933C20.4451 31.1721 20.5025 31.1388 20.5518 31.0954C20.6011 31.052 20.6414 30.9994 20.6704 30.9404C20.6993 30.8814 20.7164 30.8173 20.7206 30.7518C20.7247 30.6862 20.716 30.6205 20.6947 30.5583C20.6735 30.4962 20.6402 30.4388 20.5968 30.3895C20.5534 30.3402 20.5008 30.2999 20.4418 30.2709C20.3828 30.242 20.3187 30.2249 20.2532 30.2208C20.1876 30.2166 20.1219 30.2253 20.0597 30.2466C19.9839 30.2726 19.9077 30.2978 19.8312 30.3223C19.705 30.3631 19.6001 30.4524 19.5396 30.5704C19.4792 30.6885 19.468 30.8258 19.5087 30.9521C19.5508 31.0773 19.6402 31.1811 19.7577 31.2414C19.8753 31.3016 20.0118 31.3138 20.138 31.2748ZM15.815 31.9968C15.8807 31.9955 15.9455 31.9813 16.0057 31.9549C16.0659 31.9285 16.1203 31.8906 16.1658 31.8432C16.2113 31.7957 16.247 31.7398 16.2709 31.6786C16.2948 31.6174 16.3064 31.552 16.305 31.4863C16.3007 31.3542 16.245 31.2289 16.1496 31.1373C16.0542 31.0458 15.9267 30.9951 15.7945 30.9963C15.7141 30.998 15.6337 30.999 15.5532 30.9993C15.4875 30.9994 15.4225 31.0125 15.3619 31.0377C15.3012 31.0629 15.2461 31.0999 15.1997 31.1464C15.1533 31.1929 15.1166 31.2481 15.0915 31.3088C15.0665 31.3696 15.0536 31.4346 15.0537 31.5003C15.0538 31.566 15.0669 31.6311 15.0921 31.6917C15.1173 31.7524 15.1543 31.8075 15.2008 31.8538C15.2473 31.9002 15.3025 31.937 15.3632 31.962C15.424 31.9871 15.489 31.9999 15.5547 31.9998C15.5552 31.9998 15.7287 31.9986 15.815 31.9968ZM17.796 31.8208C17.822 31.8208 18.0452 31.7868 18.1297 31.7721C18.2598 31.7485 18.3752 31.6745 18.4509 31.5661C18.5265 31.4577 18.5562 31.3238 18.5334 31.1936C18.5106 31.0634 18.4372 30.9475 18.3293 30.8712C18.2213 30.795 18.0876 30.7645 17.9572 30.7866C17.8777 30.8004 17.7981 30.8137 17.7182 30.8266C17.5941 30.8464 17.4819 30.9122 17.4041 31.011C17.3263 31.1097 17.2885 31.2341 17.2983 31.3595C17.3081 31.4848 17.3647 31.6019 17.4569 31.6873C17.549 31.7728 17.6703 31.8205 17.796 31.8208ZM13.56 31.8706C13.6871 31.8707 13.8095 31.8225 13.9023 31.7358C13.9951 31.649 14.0515 31.5301 14.0598 31.4033C14.0682 31.2765 14.028 31.1512 13.9474 31.053C13.8667 30.9547 13.7517 30.8909 13.6257 30.8743C13.5457 30.8637 13.4659 30.8523 13.3862 30.8403C13.255 30.8205 13.1214 30.8537 13.0146 30.9324C12.9079 31.0112 12.8368 31.1291 12.817 31.2603C12.7972 31.3915 12.8303 31.5252 12.9091 31.6319C12.9879 31.7387 13.1058 31.8098 13.237 31.8296C13.322 31.8426 13.5377 31.8706 13.56 31.8706ZM24.282 29.1958C24.3523 29.1462 24.4221 29.0958 24.4915 29.0448C24.5985 28.9664 24.6699 28.8487 24.6901 28.7176C24.7103 28.5864 24.6775 28.4527 24.5991 28.3457C24.5207 28.2387 24.4029 28.1673 24.2718 28.1471C24.1407 28.1269 24.007 28.1596 23.9 28.2381C23.835 28.2857 23.7696 28.3329 23.7037 28.3796C23.5955 28.4563 23.5221 28.5728 23.4998 28.7036C23.4775 28.8343 23.5081 28.9686 23.5847 29.0768C23.6614 29.1851 23.778 29.2584 23.9087 29.2807C24.0395 29.303 24.1737 29.2725 24.282 29.1958ZM0.640482 13.7498C0.770999 13.771 0.904619 13.7401 1.01261 13.6638C1.1206 13.5875 1.19435 13.4719 1.21798 13.3418C1.23182 13.262 1.24615 13.1824 1.26098 13.1031C1.27313 13.0385 1.27244 12.9722 1.25897 12.9079C1.24549 12.8437 1.21948 12.7827 1.18243 12.7284C1.14538 12.6742 1.09801 12.6278 1.04303 12.5919C0.988047 12.556 0.926527 12.5312 0.861982 12.5191C0.797438 12.5069 0.731132 12.5076 0.666852 12.5211C0.602572 12.5346 0.541576 12.5606 0.487347 12.5976C0.433117 12.6347 0.386717 12.682 0.350794 12.737C0.314871 12.792 0.29013 12.8535 0.277982 12.9181C0.262149 13.0026 0.246899 13.0872 0.232232 13.1721C0.20976 13.3028 0.240147 13.4371 0.316708 13.5455C0.393269 13.6538 0.509733 13.7273 0.640482 13.7498ZM0.503982 20.0826C0.538515 20.21 0.621371 20.3189 0.734947 20.3863C0.848523 20.4536 0.98387 20.474 1.11223 20.4431C1.17589 20.4268 1.23572 20.3982 1.28831 20.3588C1.34089 20.3194 1.3852 20.2701 1.41871 20.2136C1.45221 20.1571 1.47425 20.0945 1.48356 20.0295C1.49287 19.9644 1.48928 19.8982 1.47298 19.8346C1.45298 19.7562 1.43357 19.6778 1.41473 19.5993C1.39945 19.5355 1.37174 19.4752 1.33317 19.4221C1.29461 19.3689 1.24596 19.3238 1.18999 19.2895C1.13402 19.2551 1.07183 19.2321 1.00697 19.2218C0.94211 19.2115 0.875854 19.214 0.811982 19.2293C0.748111 19.2446 0.687875 19.2723 0.634713 19.3109C0.581552 19.3494 0.536506 19.3981 0.502149 19.4541C0.467791 19.51 0.444794 19.5722 0.434471 19.6371C0.424147 19.7019 0.4267 19.7682 0.441982 19.8321C0.461982 19.9157 0.482649 19.9992 0.503982 20.0826ZM1.23773 22.2856C1.28984 22.4071 1.38742 22.5033 1.5096 22.5538C1.63177 22.6042 1.76884 22.6049 1.89148 22.5556C2.01404 22.5046 2.11134 22.4071 2.16197 22.2844C2.2126 22.1617 2.21243 22.0239 2.16148 21.9013C2.13032 21.827 2.0999 21.7523 2.07023 21.6773C2.02137 21.554 1.92552 21.4552 1.80379 21.4026C1.68205 21.3499 1.5444 21.3478 1.42111 21.3967C1.29781 21.4456 1.19898 21.5414 1.14636 21.6631C1.09373 21.7849 1.09162 21.9225 1.14048 22.0458C1.17232 22.1262 1.20482 22.2062 1.23798 22.2858L1.23773 22.2856ZM1.08448 17.6898C1.07582 17.6098 1.06773 17.5296 1.06023 17.4491C1.048 17.317 0.983799 17.1952 0.881756 17.1104C0.779713 17.0257 0.648185 16.985 0.516107 16.9972C0.38403 17.0094 0.262221 17.0736 0.177478 17.1757C0.0927349 17.2777 0.0519993 17.4092 0.0642324 17.5413C0.0722324 17.6273 0.080899 17.7131 0.0902324 17.7986C0.106432 17.9297 0.173103 18.0493 0.276082 18.132C0.379061 18.2147 0.510233 18.254 0.641732 18.2416C0.773561 18.2271 0.894251 18.1609 0.977275 18.0575C1.0603 17.9541 1.09886 17.8217 1.08448 17.6898ZM10.967 31.3033C11.0498 31.3295 11.1329 31.3549 11.2162 31.3796C11.3431 31.4163 11.4794 31.4013 11.5953 31.3379C11.7112 31.2745 11.7974 31.1678 11.8349 31.0412C11.8724 30.9145 11.8583 30.7781 11.7957 30.6618C11.733 30.5455 11.6269 30.4587 11.5005 30.4203C11.423 30.3973 11.346 30.3738 11.2695 30.3493C11.1438 30.3121 11.0086 30.3257 10.8928 30.3872C10.7771 30.4487 10.69 30.5531 10.6504 30.678C10.6108 30.8029 10.6218 30.9384 10.681 31.0553C10.7402 31.1722 10.8429 31.2613 10.967 31.3033ZM2.27873 24.3598C2.31232 24.4163 2.35669 24.4655 2.40932 24.5048C2.46194 24.5441 2.52179 24.5726 2.58545 24.5888C2.6491 24.605 2.71531 24.6084 2.78031 24.599C2.8453 24.5896 2.9078 24.5674 2.96423 24.5338C3.02067 24.5002 3.06994 24.4559 3.10922 24.4032C3.14851 24.3506 3.17705 24.2908 3.1932 24.2271C3.20936 24.1635 3.21282 24.0972 3.20339 24.0323C3.19396 23.9673 3.17182 23.9048 3.13823 23.8483C3.09707 23.779 3.0564 23.7093 3.01623 23.6393C2.95013 23.5243 2.84103 23.4402 2.71294 23.4056C2.58486 23.371 2.44827 23.3887 2.33323 23.4548C2.21819 23.5209 2.13413 23.63 2.09953 23.7581C2.06493 23.8862 2.08263 24.0228 2.14873 24.1378C2.19173 24.2122 2.23507 24.2862 2.27873 24.3598ZM0.484732 15.9958C0.551248 16.0015 0.618221 15.9932 0.681279 15.9712C0.744337 15.9493 0.802063 15.9143 0.850686 15.8686C0.89931 15.8228 0.93774 15.7674 0.963465 15.7058C0.98919 15.6442 1.00163 15.5778 0.999982 15.5111C1.00248 15.4301 1.00557 15.3492 1.00923 15.2686C1.01222 15.203 1.00226 15.1374 0.979907 15.0756C0.957558 15.0139 0.923264 14.9571 0.878982 14.9086C0.8347 14.8601 0.781298 14.8208 0.721824 14.7929C0.66235 14.7651 0.597969 14.7492 0.532357 14.7462C0.466746 14.7432 0.401188 14.7532 0.339427 14.7755C0.277667 14.7979 0.220913 14.8322 0.172406 14.8765C0.123899 14.9207 0.0845888 14.9741 0.0567201 15.0336C0.0288514 15.0931 0.0129699 15.1575 0.00998237 15.2231C0.00614904 15.3086 0.00289904 15.3944 0.000232369 15.4806C-0.00380753 15.6131 0.0449672 15.7418 0.135828 15.8384C0.226688 15.935 0.352192 15.9918 0.484732 15.9958ZM7.38198 28.4288C7.27324 28.3527 7.13873 28.323 7.00804 28.3461C6.87736 28.3692 6.76119 28.4432 6.68511 28.552C6.60902 28.6607 6.57925 28.7952 6.60234 28.9259C6.62543 29.0566 6.69949 29.1727 6.80823 29.2488C6.87907 29.2982 6.95023 29.3469 7.02173 29.3951C7.13166 29.4693 7.26657 29.4968 7.39677 29.4715C7.52696 29.4462 7.64179 29.3703 7.71598 29.2603C7.79018 29.1504 7.81766 29.0155 7.79239 28.8853C7.76712 28.7551 7.69116 28.6403 7.58123 28.5661C7.51457 28.5209 7.44815 28.4752 7.38198 28.4288ZM9.25173 29.5378C9.13278 29.479 8.99536 29.4699 8.86968 29.5125C8.74401 29.555 8.64039 29.6458 8.58161 29.7647C8.52283 29.8836 8.51371 30.0211 8.55626 30.1467C8.59881 30.2724 8.68953 30.376 8.80848 30.4348C8.88598 30.4732 8.96382 30.5107 9.04198 30.5476C9.16189 30.6043 9.29941 30.611 9.42429 30.5663C9.54917 30.5216 9.65117 30.4291 9.70786 30.3092C9.76455 30.1893 9.77128 30.0518 9.72658 29.9269C9.68187 29.802 9.58939 29.7 9.46948 29.6433C9.39665 29.6088 9.3239 29.5737 9.25173 29.5378ZM5.00873 27.7778C5.07123 27.8378 5.13473 27.8966 5.19848 27.9551C5.24661 28.0011 5.30344 28.0371 5.36565 28.0608C5.42785 28.0846 5.49418 28.0957 5.56073 28.0935C5.62729 28.0913 5.69273 28.0759 5.75324 28.048C5.81374 28.0202 5.86808 27.9806 5.91306 27.9315C5.95805 27.8824 5.99278 27.8248 6.01522 27.7621C6.03766 27.6994 6.04736 27.6329 6.04374 27.5664C6.04012 27.4999 6.02327 27.4348 5.99416 27.3749C5.96505 27.315 5.92428 27.2615 5.87423 27.2176C5.8149 27.1634 5.75615 27.1086 5.69798 27.0531C5.65038 27.0078 5.59433 26.9724 5.53303 26.9488C5.47173 26.9252 5.40638 26.9139 5.34072 26.9156C5.27505 26.9172 5.21036 26.9318 5.15033 26.9585C5.0903 26.9851 5.03611 27.0233 4.99086 27.0709C4.9456 27.1186 4.91016 27.1746 4.88657 27.2359C4.86297 27.2972 4.85168 27.3626 4.85334 27.4282C4.855 27.4939 4.86958 27.5586 4.89624 27.6186C4.9229 27.6786 4.96113 27.7326 5.00873 27.7778ZM4.31048 26.3363C4.4134 26.2527 4.47892 26.1316 4.49266 25.9997C4.50639 25.8678 4.46722 25.7359 4.38373 25.6328C4.3329 25.57 4.28248 25.5067 4.23248 25.4431C4.15036 25.3389 4.03022 25.2716 3.89847 25.256C3.76673 25.2403 3.63418 25.2777 3.52998 25.3598C3.42579 25.4419 3.35848 25.5621 3.34286 25.6938C3.32725 25.8256 3.36461 25.9581 3.44673 26.0623C3.49957 26.1295 3.5529 26.1964 3.60673 26.2631C3.69113 26.3649 3.81209 26.4297 3.94366 26.4434C4.07522 26.457 4.20692 26.4186 4.31048 26.3363ZM30.523 15.3661H30.5185C30.4148 15.3671 30.314 15.4006 30.2302 15.4618L29.8892 14.9336C29.8536 14.8784 29.8074 14.8308 29.7534 14.7935C29.6993 14.7561 29.6384 14.7298 29.5742 14.716C29.51 14.7022 29.4437 14.7012 29.379 14.713C29.3144 14.7249 29.2528 14.7493 29.1976 14.785C29.1424 14.8206 29.0948 14.8668 29.0575 14.9208C29.0202 14.9749 28.9939 15.0358 28.9801 15.1C28.9663 15.1642 28.9652 15.2305 28.9771 15.2951C28.9889 15.3597 29.0133 15.4214 29.049 15.4766L30.0642 17.0491C30.1095 17.1194 30.1717 17.1772 30.2452 17.2172C30.3186 17.2572 30.4009 17.2782 30.4845 17.2782C30.5681 17.2782 30.6504 17.2572 30.7238 17.2172C30.7972 17.1772 30.8594 17.1194 30.9047 17.0491L31.9197 15.4766C31.9554 15.4214 31.9798 15.3598 31.9917 15.2952C32.0035 15.2306 32.0025 15.1643 31.9887 15.1001C31.9749 15.0359 31.9486 14.975 31.9113 14.9209C31.874 14.8669 31.8264 14.8207 31.7712 14.7851C31.7161 14.7494 31.6544 14.725 31.5898 14.7131C31.5252 14.7013 31.4589 14.7023 31.3947 14.7161C31.3305 14.7299 31.2696 14.7562 31.2156 14.7935C31.1616 14.8308 31.1154 14.8784 31.0797 14.9336L30.7602 15.4286C30.6876 15.388 30.6062 15.3665 30.523 15.3661ZM11.5 21.4998H19.0062C19.0188 21.164 19.0574 20.8297 19.1217 20.4998L19.4017 19.4998C19.5304 19.1536 19.6886 18.819 19.8745 18.4998H11.5C11.3674 18.4998 11.2402 18.5525 11.1464 18.6463C11.0527 18.74 11 18.8672 11 18.9998V20.9998C11 21.1324 11.0527 21.2596 11.1464 21.3534C11.2402 21.4471 11.3674 21.4998 11.5 21.4998ZM11.5 25.4998H20.1957C20.0851 25.3438 19.9813 25.1827 19.8845 25.0171L19.88 25.0096C19.604 24.5357 19.3894 24.0286 19.2415 23.5006L19.2412 23.4998L19.2407 23.4983C19.1491 23.1712 19.0835 22.8373 19.0445 22.4998H11.5C11.3674 22.4998 11.2402 22.5525 11.1464 22.6463C11.0527 22.74 11 22.8672 11 22.9998V24.9998C11 25.1324 11.0527 25.2596 11.1464 25.3534C11.2402 25.4471 11.3674 25.4998 11.5 25.4998ZM11.5 17.4998H20.588L20.5895 17.4983C20.9121 17.1258 21.2757 16.7908 21.6735 16.4998L21.6737 16.4996C22.5303 15.8724 23.5282 15.4658 24.5792 15.3158L24.6175 15.3111C24.7391 15.2944 24.8618 15.2813 24.9855 15.2718L25.0822 15.2643C25.2205 15.2556 25.3597 15.2496 25.5 15.2496V14.9996C25.5 14.867 25.4473 14.7398 25.3535 14.646C25.2598 14.5523 25.1326 14.4996 25 14.4996H11.5C11.3674 14.4996 11.2402 14.5523 11.1464 14.646C11.0527 14.7398 11 14.867 11 14.9996V16.9996C11 17.1322 11.0527 17.2594 11.1464 17.3531C11.2402 17.4469 11.3674 17.4998 11.5 17.4998Z" fill="#05406B"/>
</svg>
