<svg width="23" height="25" viewBox="0 0 23 25" fill="none" xmlns="http://www.w3.org/2000/svg">
<path d="M15.5067 16.3571C18.0606 12.3496 17.7395 12.8496 17.8131 12.7451C18.7429 11.4336 19.2344 9.89009 19.2344 8.28125C19.2344 4.01469 15.7721 0.5 11.5 0.5C7.24178 0.5 3.76562 4.00775 3.76562 8.28125C3.76562 9.88906 4.26737 11.473 5.22766 12.8022L7.49322 16.3572C5.07095 16.7294 0.953125 17.8387 0.953125 20.2812C0.953125 21.1716 1.53428 22.4405 4.30291 23.4293C6.23612 24.1197 8.79208 24.5 11.5 24.5C16.5637 24.5 22.0469 23.0716 22.0469 20.2812C22.0469 17.8383 17.9339 16.7301 15.5067 16.3571ZM6.4023 12.0287C6.39457 12.0166 6.38649 12.0047 6.37806 11.9931C5.57898 10.8938 5.17188 9.59098 5.17188 8.28125C5.17188 4.76478 8.00341 1.90625 11.5 1.90625C14.9893 1.90625 17.8281 4.76605 17.8281 8.28125C17.8281 9.59309 17.4287 10.8517 16.6728 11.9221C16.6051 12.0114 16.9585 11.4624 11.5 20.0276L6.4023 12.0287ZM11.5 23.0938C5.96903 23.0938 2.35938 21.468 2.35938 20.2812C2.35938 19.4836 4.21413 18.1721 8.32413 17.6609L10.907 21.7138C10.9705 21.8135 11.0582 21.8956 11.1618 21.9525C11.2654 22.0093 11.3817 22.0391 11.5 22.0391C11.6182 22.0391 11.7345 22.0093 11.8381 21.9525C11.9417 21.8956 12.0294 21.8135 12.0929 21.7138L14.6757 17.6609C18.7858 18.1721 20.6406 19.4836 20.6406 20.2812C20.6406 21.4579 17.0635 23.0938 11.5 23.0938Z" fill="#0D99FF"/>
<path d="M11.5 4.76562C9.56148 4.76562 7.98438 6.34273 7.98438 8.28125C7.98438 10.2198 9.56148 11.7969 11.5 11.7969C13.4385 11.7969 15.0156 10.2198 15.0156 8.28125C15.0156 6.34273 13.4385 4.76562 11.5 4.76562ZM11.5 10.3906C10.3369 10.3906 9.39062 9.44436 9.39062 8.28125C9.39062 7.11814 10.3369 6.17188 11.5 6.17188C12.6631 6.17188 13.6094 7.11814 13.6094 8.28125C13.6094 9.44436 12.6631 10.3906 11.5 10.3906Z" fill="#0D99FF"/>
</svg>
