<svg width="716" height="461" viewBox="0 0 716 461" fill="none" xmlns="http://www.w3.org/2000/svg">
<path d="M267.036 117.384C268.117 116.385 269.385 115.61 270.768 115.104C272.15 114.598 273.619 114.372 275.089 114.437C276.96 114.374 278.813 114.821 280.45 115.73C282.087 116.638 283.446 117.975 284.382 119.596C287.538 125.067 287.404 135.148 285.287 141.389C283.787 145.806 281.329 152.566 275.406 157.412C274.102 158.496 272.588 159.299 270.958 159.77C269.329 160.24 267.619 160.368 265.938 160.145L265.03 159.991C264.138 163.006 263.05 165.96 261.773 168.833C259.308 175.528 245.4 199.421 227.974 207.838V212.928C226.647 214.009 199.397 235.488 197.332 236.952H192.533C190.468 235.488 163.227 214.003 161.89 212.928V206.821C154.408 202.633 147.817 197.022 142.486 190.306C135.11 181.4 129.635 171.079 126.398 159.978C124.608 160.357 122.755 160.324 120.98 159.88C119.206 159.436 117.555 158.594 116.154 157.417C110.231 152.571 107.773 145.812 106.275 141.395C104.157 135.155 104.024 125.073 107.178 119.601C108.114 117.98 109.473 116.644 111.11 115.735C112.747 114.827 114.6 114.38 116.471 114.443C117.942 114.377 119.41 114.604 120.793 115.11C122.175 115.616 123.443 116.391 124.524 117.39C124.524 117.39 118.643 57.5986 191.553 57.5986C264.463 57.5986 267.036 117.384 267.036 117.384Z" fill="white"/>
<path d="M179.388 5.19243C166.839 7.35133 154.973 12.4312 144.749 20.0217C134.144 27.7063 125.448 37.7276 119.336 49.3105C113.224 60.8934 109.858 73.7273 109.499 86.8191C109.231 96.3309 110.407 105.828 112.989 114.987C114.118 114.653 115.286 114.468 116.463 114.437C117.934 114.371 119.403 114.598 120.785 115.104C122.167 115.61 123.436 116.385 124.516 117.384L135.905 107.822C144.453 98.2972 159.538 83.942 170.121 78.3888C171.364 77.7383 172.966 78.6202 173.461 80.6932C173.873 82.3149 173.984 83.9986 173.787 85.6603C173.703 86.1309 173.751 86.6157 173.925 87.0609C174.1 87.506 174.394 87.894 174.776 88.1817C175.158 88.4695 175.612 88.6456 176.088 88.6907C176.564 88.7357 177.043 88.6479 177.472 88.4369C185.03 84.2379 198.494 75.7886 208.043 71.766C212.83 71.4618 217.631 72.0515 222.201 73.5052C226.981 75.4816 231.39 78.2546 235.242 81.706C243.837 89.1026 252.076 99.2474 255.725 108.429L267.027 117.384C268.108 116.385 269.376 115.61 270.758 115.104C272.14 114.598 273.609 114.372 275.08 114.437C276.148 114.467 277.209 114.621 278.241 114.896C280.834 105.775 281.981 96.3033 281.642 86.8267C280.218 53.1208 263.23 32.1826 246.817 20.3347C231.995 9.37923 213.995 3.57675 195.566 3.81362C190.143 3.7999 184.73 4.26127 179.388 5.19243Z" fill="#85807F"/>
<path d="M229.306 276.458C234.032 259.425 238.37 242.232 242.104 225.646C245.076 227.543 248.767 230.128 252.546 233.066C285.695 246.05 314.741 255.647 329.661 278.33C337.953 290.929 342.899 307.56 346.256 329.234C350.478 361.623 358.227 432.35 360.329 455.661H101.985C101.936 449.657 101.824 439.243 101.67 426.581L96.1966 430.24C91.069 434.4 85.6485 438.186 79.9771 441.568C71.287 446.161 63.9606 449.977 50.2749 447.872C38.609 446.076 29.2381 436.058 26.2187 424.65C25.0249 419.373 24.4036 413.982 24.3658 408.571C23.4744 387.775 24.123 377.467 21.9875 357.481L40.8906 290.566L80.7737 260.451C95.9197 248.933 115.879 240.489 136.884 233.383C140.804 230.314 144.66 227.619 147.732 225.646C154.835 257.179 164.113 290.9 174.095 321.56C181.491 344.277 183.927 351.987 193.39 375.339H196.444C205.906 351.987 208.341 344.277 215.74 321.56C220.474 307.027 225.048 291.807 229.306 276.458Z" fill="#4793CF"/>
<path d="M193.392 375.334C183.928 351.987 181.501 344.277 174.104 321.56C164.938 293.411 156.366 262.681 149.528 233.434C149.27 231.974 149.339 230.475 149.73 229.045C150.12 227.615 150.823 226.289 151.787 225.163C154.863 221.599 158.74 216.439 161.885 212.928C163.222 214.009 190.462 235.488 192.527 236.952H197.326C199.391 235.488 226.632 214.003 227.969 212.928C231.113 216.444 234.986 221.599 238.066 225.163C239.03 226.289 239.732 227.615 240.123 229.045C240.513 230.475 240.582 231.974 240.325 233.434C233.486 262.681 224.915 293.411 215.749 321.56C208.353 344.277 205.915 351.987 196.453 375.339L193.392 375.334Z" fill="white"/>
<path d="M185.167 354.282C187.352 360.193 189.891 366.691 193.392 375.334H196.446C205.157 353.836 207.913 345.595 214.067 326.698C211.084 301.111 207.135 270.683 207.135 269.785C207.196 268.17 207.442 266.566 207.869 265.006C208.051 264.292 208.215 263.577 208.362 262.863C209.151 259.309 209.295 257.49 210.211 253.725L210.266 253.536C205.872 247.611 200.558 240.584 197.318 236.941H192.52C189.309 240.544 184.055 247.491 179.682 253.384L180.092 254.533C181.039 256.904 181.79 259.348 182.337 261.841C183.329 264.563 183.927 267.414 184.112 270.305C184.137 271.811 179.984 300.664 176.133 327.807C179.616 338.504 182.024 345.789 185.167 354.282Z" fill="#FFDA71"/>
<path d="M173.296 374.431C156.32 345.002 139.537 315.447 123.881 285.292C122.619 283.363 121.56 281.309 120.719 279.162C120.516 278.364 120.486 278.572 121.315 277.687C122.111 276.836 122.917 275.992 123.731 275.157C127.092 271.711 130.582 268.397 134.092 265.105C134.496 264.691 134.801 264.192 134.985 263.644C135.168 263.096 135.225 262.513 135.151 261.94C135.077 261.367 134.874 260.818 134.558 260.334C134.241 259.851 133.82 259.445 133.324 259.148L126.766 255.394L123.486 253.522L121.846 252.587C120.961 251.993 120.781 251.926 121.307 252.386L121.825 254.3C122.374 253.184 123.053 252.137 123.847 251.18C124.63 250.11 125.47 249.083 126.362 248.102C128.757 245.457 131.314 242.965 134.02 240.639C138.939 236.361 144.162 232.445 149.648 228.922L144.076 226.655C153.348 267.76 164.977 308.298 178.906 348.067C182.246 357.597 185.946 366.991 189.736 376.348C190.029 377.302 190.675 378.108 191.542 378.602C192.409 379.095 193.432 379.239 194.401 379.004C195.369 378.731 196.19 378.089 196.687 377.216C197.184 376.343 197.317 375.309 197.057 374.338C182.376 337.3 170.073 299.364 160.221 260.76C157.069 248.771 154.126 236.73 151.391 224.638C151.231 224.08 150.947 223.567 150.56 223.135C150.173 222.704 149.693 222.367 149.156 222.148C148.619 221.93 148.04 221.836 147.462 221.875C146.884 221.914 146.322 222.083 145.819 222.371C137.172 227.775 129.211 234.207 122.111 241.527C120.448 243.29 118.897 245.157 117.469 247.116C115.846 248.963 114.741 251.207 114.267 253.619C114.042 257.183 117.002 258.55 119.657 260.067L129.495 265.683L128.727 259.726C125.43 262.817 122.151 265.93 118.98 269.152C116.135 272.046 112.187 275.196 112.968 279.731C113.527 281.821 114.394 283.816 115.542 285.65C116.603 287.706 117.667 289.758 118.736 291.805C120.772 295.704 122.828 299.594 124.901 303.474C133.512 319.595 142.397 335.57 151.412 351.469C156.487 360.418 161.598 369.347 166.745 378.254C169.184 382.482 175.743 378.666 173.296 374.425V374.431Z" fill="#211715"/>
<path d="M206.09 263.231C198.989 263.231 191.89 263.083 184.789 263.081C183.783 263.081 182.819 263.481 182.107 264.192C181.396 264.903 180.996 265.868 180.996 266.874C180.996 267.88 181.396 268.845 182.107 269.556C182.819 270.268 183.783 270.667 184.789 270.667C191.89 270.667 198.989 270.815 206.09 270.817C207.096 270.817 208.061 270.418 208.772 269.706C209.483 268.995 209.883 268.03 209.883 267.024C209.883 266.018 209.483 265.053 208.772 264.342C208.061 263.631 207.096 263.231 206.09 263.231Z" fill="#211715"/>
<path d="M206.553 252.722C205.722 256.223 205.195 259.783 204.387 263.288C203.698 265.603 203.366 268.009 203.401 270.425C203.708 274.254 204.33 278.083 204.804 281.893C206.67 296.853 208.536 311.815 210.283 326.791C210.313 327.788 210.722 328.735 211.427 329.44C212.132 330.145 213.08 330.554 214.076 330.584C215.081 330.578 216.042 330.176 216.752 329.466C217.462 328.756 217.864 327.795 217.87 326.791C216.144 311.998 214.304 297.235 212.462 282.464C211.975 278.565 211.444 274.667 211.025 270.76C210.94 268.917 211.169 267.072 211.702 265.306C212.51 261.799 213.029 258.239 213.868 254.74C214.994 249.999 207.681 247.967 206.553 252.722Z" fill="#211715"/>
<path d="M179.984 327.493C182.096 312.61 184.243 297.732 186.301 282.842C186.838 278.955 187.534 275.043 187.843 271.13C187.937 268.782 187.646 266.435 186.982 264.181C186.1 260.239 184.894 256.376 183.378 252.631C182.866 251.767 182.034 251.14 181.062 250.885C180.091 250.63 179.058 250.768 178.187 251.269C177.337 251.794 176.722 252.626 176.468 253.593C176.215 254.559 176.344 255.586 176.828 256.46C177.511 258.3 178.059 260.188 178.466 262.108C178.965 263.899 179.578 265.651 179.97 267.472C180.288 268.877 180.362 270.326 180.19 271.756C179.758 275.526 179.272 278.783 178.737 282.633C176.754 296.92 174.698 311.199 172.668 325.48C172.435 326.45 172.58 327.472 173.073 328.339C173.566 329.205 174.371 329.852 175.324 330.146C176.294 330.406 177.328 330.274 178.202 329.777C179.075 329.28 179.718 328.458 179.989 327.491L179.984 327.493Z" fill="#211715"/>
<path d="M96.1549 315.508C96.5817 333.763 96.8453 352.021 97.1146 370.277C97.4244 391.14 97.7019 412.002 97.9472 432.864C98.037 440.465 98.1173 448.065 98.1881 455.667C98.2279 460.545 105.814 460.558 105.774 455.667C105.644 439.595 105.427 423.526 105.219 407.454C104.938 385.982 104.622 364.512 104.27 343.043C104.115 333.865 103.954 324.689 103.739 315.514C103.624 310.64 96.0374 310.623 96.153 315.514L96.1549 315.508Z" fill="#211715"/>
<path d="M292.64 455.661C292.727 439.425 292.863 423.189 293.048 406.952C293.258 385.644 293.504 364.335 293.786 343.026C293.913 333.854 294.045 324.68 294.233 315.508C294.332 310.624 286.746 310.624 286.647 315.508C286.268 333.658 286.078 351.812 285.858 369.965C285.616 390.74 285.406 411.515 285.226 432.29C285.159 440.081 285.102 447.871 285.054 455.661C285.027 460.543 292.614 460.549 292.64 455.661Z" fill="#211715"/>
<path d="M18.1943 357.481C19.3133 368.079 19.7779 378.687 20.0093 389.344C20.1345 395.145 20.2654 400.945 20.4967 406.745C20.4878 413.108 21.1805 419.453 22.5621 425.665C23.8328 430.546 26.1005 435.111 29.2223 439.072C32.3441 443.033 36.2524 446.305 40.701 448.682C50.215 453.101 61.0946 453.561 70.9475 449.96C81.3199 446.199 90.2926 439.719 98.8803 432.929C99.586 432.214 99.9817 431.25 99.9817 430.246C99.9817 429.242 99.586 428.278 98.8803 427.563C98.1568 426.875 97.1963 426.491 96.1976 426.491C95.1989 426.491 94.2384 426.875 93.5149 427.563C80.5745 437.788 63.3593 449.71 46.0759 442.835C42.0931 441.081 38.5635 438.441 35.7562 435.116C32.9489 431.792 30.9381 427.869 29.8772 423.649C28.634 417.949 28.0265 412.129 28.066 406.295C27.863 401.123 27.7379 395.949 27.626 390.774C27.3851 379.647 26.9489 368.563 25.7806 357.489C25.7524 356.492 25.3437 355.543 24.6384 354.838C23.9331 354.133 22.9846 353.724 21.9875 353.696C20.9834 353.702 20.0224 354.104 19.3124 354.814C18.6025 355.524 18.2008 356.485 18.1943 357.489V357.481Z" fill="#211715"/>
<path d="M52.5906 276.177C54.3373 275.208 55.6479 273.603 57.332 272.53C59.177 271.52 61.2515 271.004 63.3544 271.032C65.4574 271.059 67.5176 271.63 69.3354 272.687C72.945 274.847 76.0684 277.731 78.5092 281.157C80.5221 283.793 81.7295 286.955 81.9856 290.261C82.06 291.315 81.8741 292.372 81.4442 293.338C81.0142 294.303 80.3535 295.149 79.5201 295.799C78.3465 296.742 76.9817 297.419 75.5204 297.782C74.0591 298.146 72.5362 298.187 71.0575 297.902L73.2443 302.329C74.5466 302.962 75.7404 303.797 76.7814 304.804C77.9941 306.157 78.7959 307.828 79.0928 309.621C79.3898 311.414 79.1695 313.254 78.458 314.926C76.7544 318.716 74.8598 322.417 72.7815 326.015L67.7575 323.87C65.5556 327.733 64.2735 332.006 65.1801 335.502C69.8968 355.355 68.0363 364.844 61.2712 369.655C55.888 373.381 49.7632 375.899 43.3163 377.037C41.5336 377.226 33.3612 377.795 31.8136 376.889C28.7696 375.11 25.7446 374.082 23.6583 371.009C22.0422 368.4 20.9905 365.481 20.5707 362.441C19.9448 358.822 17.8321 349.813 16.1517 343.917C13.9441 336.076 10.9335 328.484 7.16762 321.26C4.46537 316.908 3.33179 311.763 3.95482 306.678C4.48032 303.673 5.52993 300.784 7.05572 298.143C12.9768 290.678 18.1014 284.15 24.1249 277.922C25.5795 276.474 27.1103 275.104 28.7108 273.819C31.3321 271.706 34.6733 270.695 38.0268 271.001C39.6731 271.282 41.2261 271.96 42.5516 272.976C43.8771 273.993 44.935 275.316 45.634 276.833L52.5906 276.177Z" fill="white"/>
<path d="M49.2887 275.826C45.9298 266.723 34.4518 264.932 27.0987 270.315C19.1331 276.141 12.992 284.615 6.9078 292.269C5.50859 293.821 4.25 295.493 3.14689 297.267C2.23381 299.053 1.50126 300.926 0.96014 302.858C-0.275367 307.131 -0.319308 311.661 0.833069 315.958C1.91601 320.119 4.33794 323.639 6.12451 327.496C7.79729 331.115 9.21214 334.859 10.5151 338.626C12.9975 346.023 14.9963 353.574 16.4988 361.231C17.3333 365.288 18.016 369.411 20.3962 372.923C23.0629 376.523 26.77 379.218 31.0171 380.644C33.9289 381.311 36.9357 381.458 39.8987 381.078C42.869 380.987 45.8182 380.546 48.6856 379.766C55.5341 377.769 63.5718 374.387 67.822 368.352C71.8977 362.564 71.9945 354.792 71.2624 348.031C70.9817 345.47 70.6024 342.922 70.1244 340.386C69.448 337.976 68.9722 335.515 68.702 333.027C68.6223 328.395 71.9945 323.681 74.9986 320.447C78.3195 316.876 72.9655 311.499 69.6332 315.083C64.2261 320.902 59.7862 328.807 61.6486 336.953C63.183 343.674 64.8045 351.092 63.7918 357.955C63.55 360.004 62.873 361.978 61.8061 363.744C60.7388 365.347 59.291 366.662 57.5919 367.569C52.4438 370.933 46.5378 372.96 40.4089 373.466C38.9903 373.547 37.564 373.602 36.1454 373.596C35.1929 373.653 34.2371 373.589 33.3005 373.407C34.3683 373.725 33.3783 373.407 33.1109 373.242C32.6879 372.995 32.2479 372.775 31.8155 372.544C30.9791 372.096 30.1295 371.662 29.3234 371.157C27.7043 370.135 26.4487 368.629 25.7351 366.852C24.6596 363.731 23.8848 360.515 23.4213 357.246C22.602 353.502 21.7005 349.778 20.7168 346.073C18.8837 339.226 16.5451 332.524 13.7203 326.023C10.9911 319.69 6.134 313.583 7.89023 306.274C8.82457 302.678 10.6109 299.361 13.0982 296.601C16.349 292.52 19.6357 288.463 23.1197 284.577C25.9817 281.383 29.3595 276.991 33.4731 275.382C36.1416 274.335 40.7617 274.563 41.9736 277.848C43.6483 282.39 50.9823 280.425 49.2887 275.83V275.826Z" fill="#211715"/>
<path d="M32.3883 300.537C36.4299 296.013 40.5929 291.587 44.8146 287.234C45.4519 286.578 46.1271 285.95 46.751 285.282C46.8136 285.216 46.8876 285.155 46.9559 285.093C46.3983 285.609 47.0052 285.093 47.4148 284.831C47.7401 284.626 48.1032 284.488 48.4826 284.425L48.8847 284.34C48.5496 284.389 48.616 284.396 49.0838 284.361C49.3505 284.359 49.617 284.372 49.8823 284.399C49.532 284.37 49.5883 284.399 50.0511 284.486C50.4816 284.645 50.5556 284.657 50.2768 284.52C50.5234 284.634 50.7639 284.761 50.9975 284.899C51.4963 285.157 51.1207 284.899 51.557 285.301C51.758 285.485 51.9476 285.679 52.1259 285.885C52.4294 286.232 52.4825 286.295 52.2852 286.075C52.7405 286.644 53.055 287.312 53.2032 288.025C53.2677 288.271 53.3208 288.52 53.3625 288.77C53.3107 288.391 53.3037 288.427 53.3416 288.878C53.3416 289.123 53.3416 289.366 53.3416 289.61C53.4194 289.199 53.4175 289.218 53.3416 289.663C53.102 290.633 53.2438 291.658 53.7379 292.526C54.232 293.394 55.0407 294.04 55.9968 294.329C56.9674 294.587 58.0004 294.453 58.8732 293.957C59.746 293.46 60.3886 292.64 60.6624 291.674C61.0845 289.561 60.9639 287.376 60.3118 285.322C59.6597 283.269 58.4974 281.414 56.9337 279.932C55.2313 278.325 53.0735 277.283 50.7559 276.949C48.4383 276.616 46.0743 277.007 43.9877 278.07C42.1757 279.149 40.5571 280.524 39.1989 282.138C37.2125 284.194 35.2458 286.269 33.2986 288.362C31.1915 290.612 29.0901 292.869 27.0399 295.167C26.3493 295.89 25.9639 296.851 25.9639 297.85C25.9639 298.849 26.3493 299.81 27.0399 300.533C27.7558 301.235 28.7187 301.629 29.7217 301.629C30.7246 301.629 31.6875 301.235 32.4034 300.533L32.3883 300.537Z" fill="#211715"/>
<path d="M47.8093 305.434C49.1787 304.093 50.6276 302.835 52.069 301.572C52.8751 300.867 53.6698 300.146 54.4853 299.45C54.838 299.146 55.1984 298.852 55.5644 298.562C55.4298 298.668 55.1396 298.879 55.7541 298.41C55.9703 298.247 56.1865 298.086 56.4046 297.927C57.1898 297.348 57.9883 296.789 58.7886 296.233C59.557 295.808 60.2851 295.315 60.964 294.758C61.1973 294.515 60.8805 294.79 60.7402 294.83C60.9298 294.775 61.1347 294.72 61.3243 294.659C61.6126 294.568 61.8724 294.714 61.2352 294.659C61.3888 294.672 61.5519 294.659 61.7074 294.659C61.8307 294.659 62.5021 294.724 62.0033 294.659C61.5348 294.596 62.0716 294.682 62.1399 294.701C62.3485 294.758 62.5647 294.824 62.7752 294.877C63.4219 295.038 62.6273 294.729 62.9478 294.942C63.2683 295.154 63.64 295.321 63.9549 295.554C63.274 295.036 64.4613 296.089 64.0326 295.647C63.6818 295.283 64.0838 295.736 64.1559 295.865C64.228 295.994 64.3076 296.135 64.3835 296.271C64.7211 296.88 64.4442 296.404 64.3835 296.254C64.4764 296.516 64.5618 296.778 64.6358 297.045C64.6926 297.257 64.723 297.481 64.7856 297.692C64.9089 298.107 64.7723 297.563 64.7685 297.491C64.7837 297.906 64.7951 298.302 64.7685 298.72C64.7685 298.615 64.9582 298.098 64.7818 298.401C64.7306 298.49 64.5163 299.12 64.6737 298.763C64.8311 298.407 64.5447 298.985 64.539 298.993C64.3721 299.277 64.2109 299.562 64.0307 299.837C63.592 300.514 63.1079 301.161 62.5818 301.773C62.2574 302.183 61.9388 302.594 61.5898 302.983C60.7516 303.916 59.8507 304.796 58.9555 305.674C56.7062 307.88 54.4037 310.036 52.1013 312.183C51.398 312.899 51.0039 313.862 51.0039 314.865C51.0039 315.868 51.398 316.831 52.1013 317.547C52.8226 318.24 53.7839 318.627 54.784 318.627C55.7841 318.627 56.7454 318.24 57.4667 317.547C59.8374 315.33 62.2081 313.115 64.5257 310.837C67.2052 308.434 69.481 305.617 71.2662 302.492C72.0781 300.826 72.4442 298.979 72.3287 297.13C72.2133 295.28 71.6203 293.493 70.6076 291.941C69.5948 290.39 68.1971 289.127 66.5507 288.277C64.9043 287.427 63.0657 287.019 61.2143 287.092C58.9121 287.327 56.7297 288.234 54.9386 289.7C50.4815 292.803 46.2942 296.277 42.4212 300.085C41.7302 300.801 41.3479 301.759 41.3565 302.753C41.3652 303.748 41.7641 304.699 42.4674 305.402C43.1707 306.106 44.122 306.505 45.1166 306.513C46.1111 306.522 47.0693 306.14 47.7847 305.449L47.8093 305.434Z" fill="#211715"/>
<path d="M68.831 306.34C69.0813 306.198 69.3336 306.067 69.5896 305.944C69.307 306.054 69.3772 306.033 69.7963 305.879C69.9518 305.836 70.9988 305.614 70.2477 305.705C70.6125 305.665 70.9804 305.661 71.3458 305.695C70.6403 305.635 71.8731 305.885 72.0381 305.923C72.3567 306.033 72.2973 306.008 71.8598 305.847C72.0495 305.949 72.2391 306.061 72.4288 306.181C72.7303 306.37 73.0243 306.577 73.3069 306.793C72.7607 306.376 73.5231 306.983 73.6312 307.082C73.943 307.35 74.2387 307.636 74.5169 307.939C74.0826 307.467 74.4866 307.91 74.6497 308.187C74.8125 308.46 74.9588 308.743 75.0878 309.033C74.7369 308.244 75.1409 309.32 75.1902 309.498C75.2912 309.866 75.3698 310.239 75.4254 310.617C75.3286 309.936 75.3969 310.617 75.4045 310.915C75.4121 311.212 75.3874 311.565 75.3855 311.891C75.3413 312.336 75.3489 312.319 75.4083 311.84C75.3742 312.049 75.3324 312.256 75.2831 312.462C75.2129 312.758 75.0612 313.06 75.0195 313.356C75.084 312.914 75.2091 312.946 75.0745 313.234C74.9986 313.399 74.9228 313.564 74.845 313.729C74.6541 314.14 74.4644 314.55 74.276 314.96C73.7703 316.037 73.2494 317.112 72.7133 318.184C71.7809 320.229 70.71 322.208 69.508 324.107C69.0063 324.977 68.8676 326.01 69.1222 326.982C69.3767 327.954 70.0039 328.786 70.8679 329.298C71.7424 329.781 72.7694 329.909 73.7358 329.656C74.7022 329.402 75.534 328.787 76.0588 327.936C77.514 325.62 78.8007 323.202 79.9089 320.701C81.4374 318.085 82.4694 315.21 82.9529 312.219C83.1529 310.228 82.8759 308.218 82.1447 306.355C81.4136 304.492 80.2493 302.829 78.7482 301.506C77.0705 299.908 74.9917 298.794 72.7322 298.282C70.06 297.875 67.3294 298.407 65.0056 299.787C64.144 300.302 63.5188 301.133 63.2645 302.104C63.0101 303.074 63.147 304.106 63.6457 304.976C64.1679 305.829 64.9994 306.447 65.9665 306.701C66.9335 306.954 67.9612 306.825 68.8348 306.338L68.831 306.34Z" fill="#211715"/>
<path d="M54.5042 279.452C56.3724 278.347 57.8858 276.545 59.644 275.566C60.9566 274.912 62.4341 274.664 63.8885 274.851C67.9054 275.36 71.0253 278.237 73.654 281.222C75.0054 282.628 76.1417 284.225 77.0261 285.963C77.8124 287.565 78.2156 289.327 78.2038 291.111C78.1811 291.247 77.7885 292.195 78.0009 291.772C77.9857 291.805 77.3125 292.736 77.6728 292.311C77.523 292.486 76.3111 293.495 77.1645 292.88C76.9047 293.07 76.6373 293.244 76.3604 293.405C75.762 293.809 75.0785 294.068 74.3633 294.164C73.6088 294.333 72.8298 294.362 72.0646 294.251C71.0947 294.014 70.071 294.158 69.2031 294.651C68.3353 295.145 67.6892 295.952 67.3972 296.907C67.1381 297.877 67.2715 298.911 67.7683 299.784C68.2652 300.657 69.0856 301.299 70.0524 301.572C72.243 302.014 74.5061 301.942 76.6645 301.364C78.8229 300.785 80.8181 299.714 82.4939 298.236C86.2871 294.701 86.3326 289.512 84.7243 284.888C83.0248 280.553 80.3262 276.68 76.8478 273.584C73.46 270.132 69.0047 267.926 64.2052 267.326C61.5345 267.066 58.8439 267.547 56.4293 268.718C54.2387 269.759 52.6039 271.777 50.677 272.919C46.4779 275.403 50.2976 281.963 54.5042 279.469V279.452Z" fill="#211715"/>
<path d="M159.195 210.244C156.658 213.114 154.306 216.137 151.895 219.111C149.566 221.984 146.996 224.588 146.001 228.262C144.618 233.358 146.841 236.783 149.432 240.806C152.479 245.547 155.741 250.141 159.231 254.564C162.448 259.005 166.354 262.904 170.8 266.114C171.674 266.598 172.701 266.726 173.668 266.473C174.634 266.219 175.466 265.603 175.989 264.752C182.294 256.329 188.232 247.533 195.202 239.634C195.599 239.217 195.898 238.717 196.077 238.17C196.257 237.623 196.311 237.043 196.238 236.472C196.164 235.901 195.964 235.354 195.652 234.87C195.34 234.387 194.923 233.979 194.434 233.677C194.202 233.51 193.975 233.337 193.747 233.165C193.519 232.992 192.245 232.01 193.081 232.656C191.909 231.75 190.74 230.84 189.573 229.927C186.18 227.272 182.792 224.617 179.409 221.961C174.455 218.064 169.467 214.203 164.559 210.246C163.834 209.562 162.874 209.181 161.877 209.181C160.88 209.181 159.92 209.562 159.195 210.246C158.49 210.961 158.095 211.925 158.095 212.929C158.095 213.933 158.49 214.897 159.195 215.612C164.232 219.672 169.353 223.636 174.44 227.636C179.798 231.846 185.061 236.254 190.604 240.229L189.836 234.27C182.44 242.653 176.13 251.988 169.439 260.925L174.628 259.565C171.011 256.825 167.816 253.569 165.145 249.902C162.129 246.137 159.364 242.162 156.722 238.126C155.764 236.666 154.825 235.194 153.923 233.697C153.101 232.33 152.946 232.37 153.147 230.959C153.553 228.133 156.039 225.982 157.742 223.873C159.984 221.095 162.188 218.286 164.553 215.612C167.783 211.965 162.436 206.578 159.195 210.244Z" fill="#211715"/>
<path d="M223.091 378.26C241.133 346.987 259.221 315.616 275.472 283.363C276.161 282.3 276.612 281.102 276.795 279.849C276.978 278.596 276.888 277.318 276.532 276.103C275.462 273.916 273.946 271.978 272.081 270.413C268.535 266.74 264.833 263.223 261.11 259.732L260.341 265.689L269.771 260.308C272.529 258.732 275.785 257.34 275.569 253.617C275.124 251.301 274.077 249.143 272.535 247.358C271.061 245.311 269.452 243.365 267.719 241.532C260.619 234.213 252.659 227.781 244.012 222.377C243.509 222.089 242.947 221.919 242.369 221.881C241.791 221.842 241.211 221.936 240.674 222.154C240.137 222.372 239.657 222.71 239.27 223.141C238.883 223.572 238.599 224.086 238.44 224.643C229.167 265.749 217.538 306.287 203.609 346.056C200.269 355.585 196.569 364.978 192.78 374.338C192.52 375.309 192.653 376.343 193.15 377.216C193.647 378.089 194.468 378.731 195.435 379.004C196.405 379.246 197.431 379.106 198.3 378.611C199.169 378.116 199.814 377.306 200.101 376.348C214.778 339.312 227.079 301.377 236.93 262.776C240.082 250.787 243.026 238.747 245.761 226.655L240.188 228.922C245.674 232.445 250.897 236.361 255.816 240.639C258.437 242.896 260.921 245.307 263.256 247.859C264.228 248.915 265.14 250.024 265.989 251.18C266.784 252.137 267.462 253.184 268.011 254.3L268.529 252.386C269.056 251.927 268.877 251.994 267.99 252.587L266.35 253.522L263.071 255.394L256.512 259.138C256.017 259.435 255.595 259.841 255.278 260.325C254.962 260.808 254.759 261.357 254.685 261.931C254.611 262.504 254.668 263.086 254.852 263.634C255.035 264.182 255.34 264.682 255.744 265.095C258.826 267.988 261.897 270.897 264.874 273.897C266.202 275.238 267.583 276.566 268.819 277.996C269.898 279.246 269.331 278.261 269.115 279.153C268.701 280.224 268.175 281.249 267.545 282.21C263.72 289.629 259.826 297.011 255.862 304.354C247.687 319.538 239.284 334.599 230.768 349.593C226.056 357.889 221.314 366.171 216.544 374.438C214.099 378.675 220.652 382.501 223.093 378.268L223.091 378.26Z" fill="#211715"/>
<path d="M225.278 215.61C227.644 218.284 229.848 221.093 232.09 223.871C233.797 225.978 236.28 228.133 236.685 230.957C236.875 232.305 236.721 232.343 235.908 233.696C235.009 235.192 234.066 236.664 233.11 238.124C230.468 242.16 227.703 246.135 224.686 249.9C222.015 253.568 218.82 256.824 215.203 259.563L220.394 260.923C213.703 251.986 207.391 242.651 199.994 234.268L199.236 240.227C204.776 236.254 210.046 231.845 215.402 227.634C220.489 223.634 225.608 219.668 230.647 215.61C231.352 214.895 231.747 213.931 231.747 212.927C231.747 211.923 231.352 210.959 230.647 210.244C229.924 209.555 228.963 209.17 227.964 209.17C226.965 209.17 226.004 209.555 225.281 210.244C220.375 214.201 215.387 218.062 210.431 221.96C207.101 224.577 203.766 227.192 200.427 229.804C199.207 230.756 197.984 231.704 196.759 232.649C197.569 232.025 196.326 232.979 196.095 233.157C195.864 233.335 195.64 233.502 195.408 233.669C194.918 233.971 194.502 234.379 194.19 234.863C193.878 235.346 193.678 235.894 193.604 236.464C193.53 237.035 193.585 237.616 193.765 238.163C193.944 238.71 194.243 239.21 194.64 239.626C201.608 247.525 207.537 256.316 213.853 264.744C214.373 265.599 215.205 266.218 216.172 266.472C217.14 266.726 218.169 266.595 219.042 266.106C223.408 262.959 227.249 259.14 230.421 254.791C233.981 250.298 237.302 245.617 240.405 240.798C242.935 236.867 245.101 233.58 243.917 228.594C243.033 224.875 240.517 222.272 238.184 219.403C235.688 216.332 233.262 213.203 230.641 210.237C227.398 206.58 222.053 211.963 225.278 215.61Z" fill="#211715"/>
<path d="M364.122 455.661C361.277 424.239 357.641 392.869 353.987 361.532C351.986 344.389 350.452 327.024 346.452 310.205C342.101 291.909 334.625 274.208 319.922 261.865C302.25 247.032 279.482 239.469 258.284 231.249C257.313 230.989 256.279 231.123 255.406 231.619C254.533 232.116 253.891 232.937 253.618 233.904C253.374 234.874 253.514 235.901 254.009 236.77C254.503 237.64 255.315 238.284 256.273 238.57C274.846 245.777 294.394 252.436 310.682 264.21C317.675 269.179 323.579 275.526 328.032 282.859C332.495 290.656 335.856 299.035 338.019 307.755C342.402 324.136 344.005 341.059 345.985 357.853C348.03 375.241 349.989 392.637 351.864 410.043C353.513 425.24 355.174 440.441 356.551 455.667C356.577 456.665 356.985 457.615 357.691 458.32C358.396 459.026 359.346 459.434 360.344 459.46C361.348 459.453 362.308 459.051 363.018 458.341C363.728 457.631 364.13 456.671 364.137 455.667L364.122 455.661Z" fill="#211715"/>
<path d="M82.6893 263.726C99.1117 251.33 118.563 243.601 137.902 237.037C142.502 235.476 140.527 228.148 135.886 229.722C115.972 236.48 95.7737 244.409 78.8601 257.175C78.0149 257.704 77.4035 258.536 77.1508 259.501C76.8981 260.466 77.023 261.49 77.5002 262.366C78.0129 263.229 78.8448 263.856 79.8159 264.11C80.7869 264.365 81.8192 264.227 82.6893 263.726Z" fill="#211715"/>
<path d="M182.462 177.711C186.804 179.956 191.64 181.076 196.527 180.969C201.604 181.181 206.608 179.701 210.752 176.76C211.461 176.048 211.859 175.083 211.859 174.078C211.859 173.072 211.461 172.108 210.752 171.395C210.026 170.712 209.066 170.331 208.069 170.331C207.072 170.331 206.112 170.712 205.386 171.395C206.545 170.492 205.68 171.16 205.386 171.349C205.092 171.539 204.817 171.697 204.521 171.85C204.368 171.932 204.21 172.002 204.059 172.082C203.619 172.307 203.734 171.994 204.248 172.017C203.834 172.111 203.433 172.257 203.055 172.451C201.964 172.792 200.848 173.046 199.717 173.21C200.286 173.123 199.706 173.21 199.442 173.231C199.114 173.263 198.786 173.292 198.458 173.312C197.669 173.364 196.876 173.383 196.085 173.379C195.376 173.379 194.668 173.353 193.961 173.303C193.637 173.28 193.313 173.254 192.988 173.221C192.916 173.221 191.742 173.032 192.562 173.176C191.51 173.005 190.469 172.774 189.444 172.484C189.006 172.353 188.581 172.197 188.15 172.049C187.202 171.723 188.748 172.353 187.883 171.947C187.348 171.695 186.823 171.431 186.299 171.156C185.869 170.904 185.393 170.739 184.899 170.671C184.405 170.603 183.902 170.633 183.42 170.759C182.937 170.886 182.485 171.106 182.087 171.407C181.69 171.708 181.355 172.085 181.103 172.515C180.852 172.945 180.687 173.421 180.619 173.915C180.551 174.409 180.581 174.912 180.707 175.394C180.833 175.877 181.053 176.33 181.354 176.727C181.655 177.124 182.032 177.459 182.462 177.711Z" fill="#211715"/>
<path d="M194.526 144.668C195.17 146.991 195.686 149.348 196.07 151.727L195.936 150.719C195.981 151.041 195.99 151.368 195.962 151.693L196.097 150.684C196.076 150.834 196.04 150.981 195.991 151.124L196.37 150.218C196.327 150.316 196.276 150.411 196.216 150.5L196.808 149.732C196.74 149.816 196.663 149.892 196.579 149.96L197.337 149.366C197.155 149.479 196.965 149.578 196.768 149.662L197.675 149.283C197.371 149.412 197.052 149.504 196.727 149.558L197.734 149.421C197.44 149.456 197.143 149.456 196.85 149.421L197.857 149.556C197.523 149.509 197.197 149.429 196.861 149.383C196.371 149.226 195.847 149.202 195.344 149.315C194.842 149.337 194.354 149.493 193.933 149.766C193.064 150.274 192.433 151.106 192.178 152.079C191.923 153.052 192.065 154.087 192.573 154.955C192.813 155.384 193.138 155.76 193.527 156.06C193.917 156.359 194.363 156.577 194.839 156.698C195.615 156.803 196.366 157 197.155 157.034C198.348 157.041 199.525 156.76 200.586 156.215C201.261 155.907 201.858 155.452 202.335 154.884C202.812 154.316 203.156 153.648 203.342 152.93C203.586 151.769 203.574 150.568 203.308 149.412C202.928 147.136 202.397 144.879 201.811 142.647C201.539 141.695 200.916 140.882 200.068 140.371C199.417 139.99 198.667 139.811 197.913 139.859C197.16 139.906 196.438 140.177 195.84 140.637C195.242 141.097 194.794 141.725 194.555 142.441C194.315 143.157 194.295 143.928 194.496 144.655L194.526 144.668Z" fill="#211715"/>
<path d="M157.181 124.606C156.001 128.441 156.771 137.262 164.035 138.013C173.638 137.956 174.148 127.292 170.916 122.272C168.268 118.177 160.489 116.47 157.181 124.606Z" fill="#211715"/>
<path d="M234.366 124.606C235.546 128.439 234.777 137.26 227.512 138.011C217.911 137.953 217.399 127.288 220.631 122.27C223.279 118.177 231.058 116.47 234.366 124.606Z" fill="#211715"/>
<path d="M127.198 114.703C124.892 112.643 122.036 111.301 118.978 110.84C115.921 110.378 112.796 110.819 109.985 112.106C107.98 113.115 106.225 114.557 104.847 116.329C103.469 118.1 102.503 120.156 102.019 122.348C99.1914 132.739 101.884 144.856 107.836 153.709C111.819 159.627 118.026 164.916 125.63 163.93C126.626 163.899 127.572 163.489 128.277 162.784C128.982 162.08 129.391 161.133 129.423 160.137C129.417 159.133 129.016 158.171 128.306 157.461C127.596 156.751 126.634 156.349 125.63 156.344C115.253 157.69 109.393 142.626 108.678 134.287C108.299 129.913 108.299 124.424 110.977 120.692C110.597 121.221 111.339 120.288 111.356 120.263C111.5 120.125 111.859 119.757 111.967 119.672C112.761 119.081 113.673 118.669 114.641 118.462C115.88 118.127 117.181 118.098 118.434 118.376C119.687 118.654 120.853 119.231 121.835 120.058C125.467 123.3 130.851 117.953 127.198 114.695V114.703Z" fill="#211715"/>
<path d="M269.712 120.066C270.649 119.274 271.758 118.71 272.95 118.421C274.143 118.132 275.386 118.124 276.582 118.399C277.668 118.585 278.695 119.024 279.58 119.679C279.773 119.887 279.977 120.084 280.191 120.271C280.291 120.368 280.967 121.24 280.57 120.7C283.254 124.43 283.244 129.923 282.869 134.294C282.154 142.639 276.295 157.698 265.917 156.351C264.913 156.356 263.951 156.758 263.241 157.468C262.53 158.178 262.129 159.14 262.124 160.145C262.148 161.143 262.556 162.094 263.262 162.8C263.968 163.506 264.919 163.914 265.917 163.938C278.416 165.559 285.987 151.929 289.099 141.854C291.853 132.94 291.957 118.75 283.193 112.992C280.287 111.206 276.881 110.407 273.484 110.715C270.087 111.023 266.88 112.42 264.341 114.699C260.69 117.955 266.071 123.305 269.705 120.062L269.712 120.066Z" fill="#211715"/>
<path d="M262.705 153.753C261.552 158.798 259.927 163.724 257.853 168.465C258.255 167.494 257.582 169.049 257.426 169.373C257.074 170.119 256.698 170.856 256.313 171.588C255.427 173.271 254.479 174.921 253.489 176.542C248.476 185.053 242.082 192.672 234.569 199.085C230.438 202.647 225.54 205.209 220.257 206.569C215.504 207.678 217.517 214.993 222.273 213.884C233.141 211.352 242.174 203.453 249.273 195.186C255.357 188.333 260.437 180.652 264.362 172.372C264.552 171.972 264.711 171.569 264.882 171.166C264.922 171.071 265.451 169.792 265.273 170.217C265.453 169.796 266.386 167.609 266.79 166.528C268.145 163.032 269.223 159.435 270.014 155.769C271 151.005 263.691 148.968 262.699 153.753H262.705Z" fill="#211715"/>
<path d="M121.324 155.521C124.567 169.829 131.271 183.123 140.848 194.237C150.065 204.906 161.9 213.342 176.084 215.46C177.054 215.694 178.076 215.55 178.943 215.057C179.81 214.564 180.456 213.758 180.75 212.805C181.009 211.834 180.876 210.8 180.379 209.927C179.883 209.053 179.062 208.41 178.095 208.137C165.035 206.188 154.689 198.687 146.206 188.868C137.545 178.692 131.511 166.548 128.634 153.499C127.557 148.74 120.241 150.755 121.324 155.521Z" fill="#211715"/>
<path d="M245.015 14.497C232.273 6.37515 217.735 1.49878 202.673 0.294325C187.61 -0.910129 172.482 1.59402 158.611 7.58779C147.308 12.6794 137.178 20.0521 128.859 29.2434C120.539 38.4346 114.209 49.2459 110.265 60.9991C104.71 78.4132 104.267 97.0557 108.989 114.714C110.197 119.44 117.524 117.437 116.304 112.696C109.577 86.3336 114.502 57.7048 132.378 36.74C139.311 28.5275 147.743 21.7088 157.225 16.6477C170.395 10.0154 185.067 6.93288 199.792 7.70453C214.518 8.47617 228.787 13.0753 241.192 21.0478C245.3 23.7125 249.106 17.1465 245.019 14.497H245.015Z" fill="#211715"/>
<path d="M282.209 114.714C285.917 100.29 286.358 85.2208 283.499 70.6053C281.106 58.5331 276.15 47.1152 268.965 37.1232C265.406 32.2154 261.356 27.6838 256.876 23.5987C253.273 20.3214 247.89 25.6697 251.511 28.9641C259.836 36.66 266.481 45.9939 271.027 56.3798C275.574 66.7658 277.924 77.9795 277.93 89.3169C277.923 97.2076 276.903 105.065 274.896 112.696C273.737 117.437 281.048 119.461 282.209 114.714Z" fill="#211715"/>
<path d="M220.29 76.7805C227.248 79.9718 233.495 84.5254 238.664 90.1723C244.301 95.6955 248.849 102.23 252.07 109.434C252.363 110.388 253.009 111.194 253.876 111.687C254.744 112.181 255.766 112.324 256.736 112.089C257.704 111.817 258.525 111.175 259.022 110.302C259.519 109.428 259.652 108.394 259.391 107.424C255.839 99.166 250.773 91.6457 244.456 85.2507C238.757 78.9284 231.842 73.8202 224.124 70.2317C223.249 69.7554 222.224 69.6309 221.26 69.8836C220.295 70.1362 219.463 70.747 218.933 71.5915C218.433 72.4621 218.295 73.4948 218.55 74.4662C218.805 75.4376 219.432 76.2697 220.295 76.7824L220.29 76.7805Z" fill="#211715"/>
<path d="M138.589 110.504C147.036 100.72 156.651 92.0105 167.22 84.5698C168.314 83.8377 169.427 83.1322 170.569 82.4836C170.833 82.3785 171.082 82.2381 171.309 82.0663C171.711 81.5448 171.309 82.2218 170.988 81.9791C169.01 80.4903 169.947 82.0398 170.051 83.0449C169.959 84.6657 170.022 86.2916 170.241 87.9002C170.75 89.5627 171.889 90.9606 173.414 91.7957C176.638 93.5027 179.504 91.6687 182.286 90.0661C184.898 88.5621 187.494 87.0315 190.1 85.5143C196.499 81.6205 203.132 78.1223 209.959 75.0395C210.823 74.5274 211.451 73.6954 211.706 72.7237C211.961 71.752 211.822 70.7189 211.321 69.8486C210.795 68.9996 209.964 68.3849 208.998 68.1318C208.032 67.8787 207.006 68.0065 206.132 68.4887C200.076 71.2018 194.186 74.2714 188.493 77.6814C185.675 79.303 182.876 80.953 180.065 82.5879C178.801 83.1455 177.6 83.8352 176.481 84.6457C176.39 84.7367 176.006 84.8182 175.97 84.9548C176.431 85.1905 176.917 85.3725 177.419 85.4972C177.662 85.3815 177.474 85.6091 177.645 85.0344C177.715 84.603 177.727 84.1641 177.679 83.7296C177.603 80.2551 176.575 75.9878 172.875 74.7398C169.841 73.7157 167.185 75.5876 164.709 77.1599C159.153 80.8173 153.904 84.9212 149.014 89.4307C143.476 94.3798 138.206 99.6225 133.229 105.136C129.969 108.757 135.315 114.137 138.595 110.502L138.589 110.504Z" fill="#211715"/>
<path d="M593.732 133.782C594.785 132.809 596.021 132.054 597.368 131.56C598.714 131.067 600.145 130.846 601.578 130.909C603.4 130.85 605.204 131.286 606.798 132.172C608.391 133.057 609.714 134.358 610.627 135.937C613.701 141.268 613.57 151.092 611.507 157.178C610.046 161.482 607.651 168.068 601.88 172.791C600.609 173.846 599.133 174.627 597.546 175.084C595.959 175.541 594.294 175.664 592.657 175.446L592.019 175.34C590.927 178.528 589.554 181.361 589.101 182.761C586.808 188.982 574.281 210.59 558.34 219.435V223.894C557.092 224.905 531.623 244.986 529.692 246.353H525.207C523.276 244.986 497.809 224.905 496.569 223.894V221.664C487.813 217.321 480.115 211.113 474.015 203.477C467.15 195.19 461.993 185.626 458.842 175.336C457.13 175.657 455.369 175.595 453.684 175.154C452 174.713 450.434 173.904 449.099 172.785C443.328 168.063 440.934 161.476 439.474 157.173C437.411 151.104 437.28 141.27 440.354 135.931C441.266 134.353 442.589 133.052 444.182 132.166C445.775 131.281 447.579 130.844 449.401 130.903C450.834 130.84 452.265 131.061 453.611 131.554C454.958 132.048 456.194 132.803 457.247 133.776C457.247 133.776 449.128 76.4581 524.678 76.4581C601.802 76.4581 593.732 133.782 593.732 133.782Z" fill="white"/>
<path d="M449.507 73.0443C455.433 59.757 464.769 48.2741 476.567 39.7613C489.194 30.9966 503.938 25.7736 519.266 24.6349C534.595 23.4962 549.949 26.4836 563.732 33.2864C581.577 11.6085 608.815 22.9501 612.18 40.4934C614.376 51.9487 615.044 59.0248 620.288 69.3763C625.685 80.0313 630.199 81.3665 639.589 85.776C632.407 96.3835 623.089 105.491 607.816 103.052C608.139 112.584 606.901 122.106 604.152 131.239C603.306 131.052 602.445 130.944 601.58 130.916C598.773 130.794 596.028 131.765 593.922 133.625C582.542 131.277 570.666 119.875 563.848 111.169C557.329 102.849 553.25 92.854 549.813 81.5675C539.365 93.3263 521.666 102.97 501.953 113.771C491.187 118.826 480.1 123.165 468.763 126.759L457.254 133.79C456.201 132.816 454.966 132.061 453.619 131.568C452.272 131.075 450.841 130.853 449.408 130.916C448.45 130.945 447.496 131.072 446.563 131.296C443.788 122.146 442.507 112.608 442.77 103.05C443.035 96.1921 444.118 89.3903 445.994 82.7889C446.95 79.4672 448.124 76.2119 449.507 73.0443Z" fill="#85807F"/>
<path d="M502.042 309.346C503.821 314.383 505.566 319.354 507.233 324.232C514.152 344.475 518.011 353.136 526.019 372.762H528.877C536.884 353.136 540.744 344.475 547.653 324.232C556.256 299.063 566.928 271.362 573.757 245.187C571.466 244.222 569.744 243.489 569.744 243.489C570.092 242.071 570.095 240.59 569.751 239.171C569.408 237.752 568.728 236.436 567.77 235.334C564.893 232.004 561.268 227.179 558.329 223.896C557.081 224.907 531.612 244.988 529.681 246.355H525.195C523.265 244.988 497.798 224.907 496.557 223.896C493.617 227.185 489.993 232.004 487.116 235.334C486.158 236.436 485.478 237.752 485.135 239.171C484.791 240.59 484.793 242.071 485.142 243.489L481.079 244.988C486.585 266.148 494.617 288.317 502.042 309.346Z" fill="white"/>
<path d="M492.049 222.885C491.832 225.922 491.46 228.946 490.934 231.945C490.702 233.805 490.372 235.651 489.946 237.475C489.875 237.72 489.437 238.803 489.756 238.128C489.586 238.479 489.396 238.819 489.187 239.148C488.878 239.638 489.547 238.756 489.151 239.203C489.031 239.338 488.91 239.471 488.783 239.598C488.522 239.915 488.19 240.165 487.814 240.328C486.839 240.897 485.794 241.276 484.779 241.731C479.509 244.129 474.272 246.606 469.013 249.026C467.654 249.65 466.293 250.272 464.932 250.89C464.446 251.11 463.959 251.322 463.471 251.542C462.542 251.96 464.376 251.21 463.547 251.508C462.59 251.795 461.78 252.44 461.285 253.309C460.791 254.178 460.65 255.204 460.892 256.174C461.166 257.14 461.808 257.96 462.681 258.457C463.554 258.953 464.587 259.087 465.558 258.829C467.672 258.07 469.717 257.012 471.756 256.077C474.991 254.594 478.222 253.101 481.449 251.599C483.832 250.493 486.217 249.389 488.603 248.288C488.799 248.216 488.989 248.129 489.172 248.028C489.16 248.028 487.751 248.597 488.559 248.297C488.956 248.151 489.344 247.982 489.733 247.817C490.455 247.524 491.152 247.175 491.819 246.772C494.096 245.365 495.85 243.251 496.813 240.753C497.466 238.77 497.904 236.724 498.12 234.648C498.765 230.743 499.353 226.843 499.622 222.889C499.622 221.883 499.222 220.918 498.511 220.207C497.8 219.495 496.835 219.096 495.829 219.096C494.823 219.096 493.858 219.495 493.147 220.207C492.435 220.918 492.036 221.883 492.036 222.889L492.049 222.885Z" fill="#211715"/>
<path d="M552.461 221.123C552.779 226.823 553.491 232.494 554.592 238.096C555.023 240.404 556.061 242.557 557.599 244.331C559.138 246.106 561.121 247.439 563.345 248.193C564.724 248.741 562.357 247.704 563.334 248.176C563.685 248.345 564.041 248.504 564.394 248.669C565.505 249.19 566.616 249.714 567.726 250.241C570.735 251.662 573.744 253.086 576.752 254.51C578.804 255.482 580.839 256.525 582.929 257.416C583.805 257.891 584.829 258.014 585.793 257.761C586.757 257.508 587.588 256.898 588.118 256.054C588.619 255.184 588.758 254.152 588.503 253.181C588.249 252.209 587.622 251.378 586.758 250.865C582.326 248.969 578.015 246.746 573.672 244.686C571.557 243.687 569.452 242.664 567.324 241.695C566.224 241.263 565.155 240.756 564.125 240.178C563.653 239.901 563.245 239.528 562.927 239.084C562.608 238.64 562.387 238.134 562.275 237.599C561.771 235.524 561.391 233.421 561.137 231.3C560.584 227.93 560.221 224.531 560.051 221.119C560.03 220.12 559.624 219.167 558.917 218.46C558.21 217.753 557.257 217.347 556.258 217.326C555.254 217.336 554.295 217.738 553.586 218.448C552.876 219.157 552.474 220.116 552.464 221.119L552.461 221.123Z" fill="#211715"/>
<path d="M512.648 191.074C516.833 193.241 521.496 194.322 526.208 194.22C531.117 194.423 535.953 192.987 539.956 190.139C540.668 189.428 541.067 188.463 541.067 187.457C541.067 186.451 540.668 185.487 539.956 184.775C539.231 184.091 538.271 183.71 537.274 183.71C536.276 183.71 535.317 184.091 534.591 184.775C535.759 183.865 534.919 184.514 534.619 184.707C534.35 184.88 534.074 185.04 533.791 185.187C533.643 185.263 533.493 185.333 533.347 185.407C533.019 185.576 532.778 185.468 533.561 185.331C533.173 185.444 532.793 185.583 532.423 185.746C531.378 186.074 530.308 186.318 529.224 186.477C529.793 186.387 529.305 186.461 529.002 186.492C528.698 186.522 528.372 186.549 528.054 186.569C527.295 186.619 526.536 186.638 525.778 186.634C525.099 186.634 524.42 186.609 523.743 186.56C523.432 186.539 523.121 186.514 522.81 186.482C522.711 186.473 521.577 186.293 522.442 186.444C521.434 186.279 520.436 186.058 519.453 185.781C519.033 185.655 518.626 185.506 518.212 185.365C517.264 185.043 518.846 185.684 517.994 185.282C517.482 185.041 516.978 184.789 516.477 184.523C515.608 184.016 514.573 183.874 513.6 184.129C512.627 184.385 511.795 185.016 511.288 185.885C510.78 186.754 510.639 187.788 510.894 188.761C511.149 189.734 511.781 190.566 512.65 191.074H512.648Z" fill="#211715"/>
<path d="M524.139 159.314C524.756 161.543 525.251 163.805 525.62 166.088L525.484 165.079C525.528 165.389 525.536 165.703 525.51 166.014L525.645 165.005C525.624 165.149 525.59 165.29 525.542 165.426L525.922 164.52C525.882 164.615 525.832 164.706 525.774 164.791L526.368 164.023C526.302 164.104 526.227 164.177 526.146 164.241L526.904 163.647C526.732 163.755 526.553 163.85 526.368 163.932L527.274 163.553C526.984 163.677 526.68 163.766 526.369 163.818L527.378 163.682C527.096 163.716 526.811 163.716 526.529 163.682L527.538 163.818C527.217 163.773 526.904 163.695 526.589 163.651C526.099 163.493 525.575 163.471 525.072 163.585C524.571 163.607 524.084 163.762 523.663 164.034C523.233 164.286 522.856 164.619 522.555 165.016C522.254 165.413 522.034 165.865 521.907 166.347C521.781 166.829 521.751 167.331 521.818 167.824C521.886 168.318 522.05 168.793 522.301 169.223C522.542 169.653 522.869 170.03 523.26 170.33C523.651 170.63 524.099 170.847 524.577 170.968C525.336 171.069 526.068 171.26 526.838 171.294C528.009 171.301 529.165 171.024 530.206 170.488C530.871 170.183 531.459 169.733 531.928 169.173C532.398 168.612 532.737 167.953 532.92 167.245C533.16 166.104 533.148 164.924 532.886 163.788C532.518 161.607 532.014 159.445 531.452 157.303C531.169 156.353 530.524 155.552 529.657 155.071C528.789 154.59 527.768 154.468 526.812 154.731C525.856 154.994 525.041 155.621 524.541 156.477C524.041 157.334 523.897 158.352 524.139 159.314Z" fill="#211715"/>
<path d="M488.633 140.043C487.495 143.718 488.241 152.181 495.203 152.894C504.407 152.839 504.898 142.614 501.799 137.809C499.262 133.873 491.801 132.236 488.633 140.043Z" fill="#211715"/>
<path d="M562.338 140.043C563.476 143.718 562.732 152.181 555.77 152.894C546.566 152.837 546.075 142.614 549.174 137.809C551.71 133.873 559.169 132.236 562.338 140.043Z" fill="#211715"/>
<path d="M589.761 168.624C589.083 172.426 587.915 176.123 586.286 179.624C585.907 180.544 585.554 181.473 585.192 182.399C585.603 181.343 585.118 182.554 585.023 182.755C584.833 183.144 584.655 183.535 584.454 183.924C582.229 188.334 579.654 192.559 576.754 196.559C570 206.026 560.794 216.296 549.011 219.048C544.258 220.158 546.27 227.475 551.027 226.363C561.411 223.94 570.061 216.452 576.881 208.583C582.778 201.971 587.721 194.566 591.564 186.583C594.151 181.563 596.003 176.198 597.064 170.652C597.297 169.682 597.153 168.66 596.659 167.793C596.166 166.926 595.362 166.279 594.409 165.984C593.438 165.724 592.404 165.857 591.531 166.354C590.658 166.851 590.016 167.672 589.743 168.639L589.761 168.624Z" fill="#211715"/>
<path d="M453.568 170.369C456.742 184.058 463.2 196.77 472.385 207.405C481.519 217.943 493.644 226.881 507.719 229.003C508.688 229.238 509.711 229.094 510.578 228.601C511.445 228.107 512.091 227.302 512.384 226.348C512.644 225.378 512.511 224.344 512.014 223.471C511.517 222.598 510.696 221.955 509.729 221.683C496.792 219.733 486.132 211.722 477.743 202.036C469.479 192.34 463.694 180.78 460.886 168.353C459.779 163.6 452.462 165.612 453.571 170.369H453.568Z" fill="#211715"/>
<path d="M459.923 131.1C457.66 129.079 454.857 127.761 451.857 127.309C448.857 126.857 445.79 127.29 443.032 128.555C441.065 129.545 439.343 130.961 437.991 132.7C436.639 134.438 435.692 136.456 435.218 138.607C433.997 143.828 433.871 149.246 434.848 154.518C435.825 159.79 437.885 164.802 440.896 169.239C444.788 175.031 450.876 180.21 458.316 179.245C459.313 179.214 460.26 178.804 460.964 178.1C461.669 177.395 462.079 176.448 462.11 175.452C462.104 174.448 461.702 173.486 460.992 172.776C460.282 172.066 459.321 171.665 458.316 171.659C452.456 172.417 448.483 167.606 445.938 162.913C443.752 159.013 442.377 154.711 441.898 150.265C441.532 146.011 441.519 140.703 444.124 137.067C443.81 137.507 444.944 136.202 445.061 136.109C445.827 135.538 446.708 135.139 447.643 134.941C448.833 134.619 450.084 134.59 451.288 134.856C452.492 135.123 453.614 135.677 454.557 136.471C458.191 139.713 463.574 134.366 459.923 131.108V131.1Z" fill="#211715"/>
<path d="M596.416 136.464C597.315 135.703 598.38 135.163 599.525 134.886C600.67 134.608 601.864 134.601 603.012 134.865C604.062 135.045 605.055 135.468 605.912 136.102C605.633 135.885 606.591 136.769 606.481 136.671C606.585 136.777 607.251 137.638 606.843 137.067C609.441 140.701 609.434 146.013 609.07 150.265C608.377 158.341 602.701 172.963 592.651 171.659C591.646 171.664 590.685 172.065 589.974 172.775C589.264 173.485 588.863 174.447 588.858 175.452C588.881 176.45 589.289 177.401 589.995 178.108C590.701 178.814 591.652 179.221 592.651 179.245C604.872 180.832 612.284 167.511 615.33 157.656C618.027 148.932 618.112 135.06 609.532 129.424C606.681 127.674 603.34 126.893 600.009 127.196C596.677 127.5 593.533 128.872 591.045 131.108C587.394 134.364 592.774 139.715 596.41 136.471L596.416 136.464Z" fill="#211715"/>
<path d="M377.797 456.253C382.431 420.499 390.237 358.892 396.027 330.601C398.472 318.56 404.073 298.113 412.038 286.011C424.482 267.106 444.934 257.583 468.935 245.993C472.177 243.103 475.684 240.524 479.41 238.293C486.048 266.451 497.866 296.844 507.229 324.236C514.148 344.478 518.007 353.14 526.015 372.766H528.873C536.88 353.14 540.74 344.478 547.649 324.236C557.012 296.844 568.826 266.451 575.47 238.293C578.262 239.944 580.921 241.809 583.424 243.873C588.81 245.449 592.962 246.657 592.962 246.657C604.072 250.621 614.607 256.042 624.291 262.778L653.603 283.409L684.25 350.72C686.543 363.131 689.215 374.287 693.683 394.694C695.033 399.954 695.812 405.344 696.007 410.771C696.007 422.615 689.501 434.791 678.621 439.472C670.13 443.125 658.041 443.265 648.183 440.972C641.416 439.394 630.237 435.852 622.118 430.329L615.696 427.123C615.579 440.388 615.552 452.761 615.531 456.249L377.797 456.253Z" fill="#4793CF"/>
<path d="M626.222 259.502C616.207 252.677 605.375 247.133 593.98 243.002C593.01 242.745 591.977 242.879 591.104 243.376C590.231 243.872 589.588 244.692 589.313 245.657C589.066 246.628 589.205 247.656 589.7 248.526C590.195 249.396 591.008 250.041 591.968 250.325C602.728 254.28 612.949 259.568 622.393 266.066C622.823 266.321 623.299 266.488 623.794 266.558C624.289 266.628 624.793 266.599 625.277 266.474C625.76 266.348 626.215 266.128 626.613 265.827C627.012 265.525 627.347 265.148 627.599 264.716C627.851 264.285 628.016 263.808 628.083 263.313C628.15 262.818 628.119 262.314 627.991 261.831C627.863 261.348 627.641 260.895 627.338 260.498C627.034 260.101 626.655 259.767 626.222 259.517V259.502Z" fill="#211715"/>
<path d="M616.872 323.758C616.83 341.635 614.573 359.393 613.707 377.242C612.832 395.259 612.021 413.214 611.884 431.25C611.821 439.595 611.799 447.919 611.753 456.255C611.727 461.139 619.313 461.144 619.34 456.255C619.529 422.175 619.927 388.115 622.86 354.138C623.732 344.025 624.434 333.92 624.458 323.766C624.47 318.884 616.883 318.876 616.872 323.766V323.758Z" fill="#211715"/>
<path d="M432.197 323.758C432.241 341.635 434.497 359.393 435.362 377.242C436.238 395.259 437.048 413.214 437.187 431.25C437.249 439.595 437.27 447.919 437.316 456.255C437.342 461.135 444.929 461.146 444.902 456.255C444.712 422.175 444.314 388.115 441.384 354.138C440.511 344.025 439.808 333.92 439.783 323.766C439.772 318.884 432.186 318.876 432.197 323.766V323.758Z" fill="#211715"/>
<path d="M680.606 351.727C682.084 359.693 683.814 367.601 685.568 375.508C686.672 380.484 687.777 385.458 688.883 390.432C690.413 396.221 691.501 402.117 692.138 408.07C692.556 412.694 691.879 417.351 690.161 421.663C688.443 425.976 685.733 429.823 682.251 432.893C674.776 439.051 663.501 439.432 654.333 438.264C643.528 436.838 633.18 433.009 624.049 427.059C619.975 424.341 616.172 430.911 620.22 433.61C629.114 439.318 639.043 443.226 649.442 445.112C660.315 447.176 673.094 447.138 682.983 441.543C687.391 438.855 691.145 435.218 693.972 430.898C696.8 426.578 698.63 421.683 699.329 416.567C700.068 410.405 699.719 404.162 698.298 398.121C697.071 391.984 695.643 385.882 694.279 379.772C692.054 369.777 689.79 359.787 687.923 349.717C687.034 344.924 679.721 346.953 680.606 351.735V351.727Z" fill="#211715"/>
<path d="M381.591 456.253C385.784 423.89 389.843 391.498 394.867 359.253C396.722 345.683 399.341 332.229 402.711 318.954C404.843 310.645 407.761 302.557 411.424 294.799C415.005 287.573 419.923 281.091 425.917 275.695C440.726 262.23 460.171 254.528 477.92 245.83C482.302 243.681 478.462 237.136 474.09 239.279C457.493 247.414 440.115 254.749 425.455 266.21C418.778 271.342 413.018 277.566 408.418 284.619C403.883 292.165 400.329 300.259 397.842 308.705C393.67 322.562 390.558 336.716 388.534 351.044C385.824 367.795 383.474 384.604 381.194 401.419C378.719 419.683 376.367 437.964 373.999 456.245C374.004 457.25 374.405 458.212 375.115 458.922C375.825 459.632 376.787 460.034 377.792 460.039C378.79 460.014 379.741 459.607 380.447 458.9C381.153 458.194 381.56 457.244 381.585 456.245L381.591 456.253Z" fill="#211715"/>
<path d="M710.665 297.707C710.997 298.728 711.251 299.773 711.424 300.832C712.052 305.938 710.914 311.106 708.2 315.476C704.42 322.725 701.398 330.345 699.182 338.214C697.494 344.131 695.373 353.174 694.745 356.8C694.325 359.852 693.269 362.781 691.646 365.399C689.56 368.485 686.526 369.519 683.468 371.303C681.913 372.212 673.712 371.643 671.922 371.451C665.453 370.309 659.306 367.782 653.905 364.043C647.115 359.213 645.247 349.692 649.982 329.765C650.914 326.173 649.541 321.761 647.232 317.816L642.353 320.248C640.269 316.637 638.37 312.923 636.663 309.12C635.948 307.442 635.727 305.595 636.025 303.796C636.323 301.996 637.128 300.319 638.345 298.961C639.39 297.95 640.588 297.112 641.896 296.476L644.09 292.034C642.605 292.319 641.077 292.277 639.61 291.913C638.144 291.548 636.774 290.87 635.595 289.923C634.758 289.271 634.095 288.423 633.663 287.453C633.231 286.484 633.045 285.423 633.12 284.364C633.376 281.045 634.588 277.87 636.61 275.225C639.059 271.787 642.194 268.893 645.816 266.724C647.641 265.663 649.709 265.091 651.819 265.063C653.93 265.036 656.013 265.554 657.865 266.567C659.554 267.644 660.869 269.254 662.621 270.227L669.606 270.887C670.309 269.365 671.371 268.037 672.702 267.017C674.032 265.997 675.591 265.317 677.244 265.035C680.609 264.728 683.962 265.743 686.592 267.864C688.199 269.153 689.736 270.526 691.195 271.98C697.238 278.239 702.385 284.784 708.323 292.273C709.356 293.965 710.145 295.794 710.665 297.707Z" fill="white"/>
<path d="M673.242 271.896C674.175 269.364 677.727 268.483 680.043 268.911C684.087 269.67 687.25 273.319 689.936 276.181C692.991 279.441 695.885 282.849 698.709 286.312C701.131 289.284 704.437 292.408 706.002 295.935C707.364 298.844 707.961 302.052 707.737 305.255C707.403 309.21 705.448 312.335 703.701 315.772C700.529 322.155 697.936 328.809 695.954 335.655C693.985 342.215 692.367 348.875 691.108 355.607C690.438 359.243 689.549 363.194 686.291 365.379C685.489 365.891 684.662 366.363 683.814 366.792C683.381 367.023 682.949 367.249 682.52 367.484C682.355 367.575 680.98 368.242 681.761 367.931C682.456 367.66 680.889 367.948 681.572 367.931C680.754 367.962 679.943 368.02 679.123 368.024C673.523 368.186 667.959 367.074 662.851 364.772C661.039 363.953 659.283 363.018 657.592 361.972C656.931 361.561 656.264 361.142 655.648 360.671C655.72 360.726 655.251 360.337 654.86 359.96C653.669 358.792 652.764 357.364 652.217 355.788C650.032 349.114 651.342 341.459 652.755 334.658C653.73 329.958 654.591 325.949 652.945 321.264C651.314 316.802 648.777 312.725 645.493 309.291C642.163 305.707 636.807 311.082 640.13 314.655C643.167 317.678 645.303 321.487 646.297 325.655C646.495 327.584 646.291 329.534 645.698 331.381C645.156 333.859 644.685 336.355 644.323 338.868C643.35 345.637 642.789 352.962 645.525 359.414C648.236 365.801 654.225 369.276 660.372 371.916C666.608 374.604 673.368 375.86 680.153 375.59C688.58 375.334 695.57 368.705 697.723 360.812C698.671 357.292 699.199 353.622 700.033 350.066C700.966 346.092 701.96 342.13 703.096 338.21C705.072 330.975 707.872 323.99 711.441 317.393C713.756 313.524 715.049 309.13 715.201 304.624C715.352 300.118 714.356 295.648 712.306 291.632C711.027 289.51 709.539 287.521 707.866 285.694C705.986 283.333 704.097 280.979 702.176 278.66C698.778 274.359 695.036 270.343 690.986 266.65C686.814 263.037 681.908 260.452 676.193 261.382C673.896 261.804 671.745 262.807 669.945 264.294C668.145 265.782 666.755 267.706 665.908 269.882C664.216 274.47 671.545 276.45 673.223 271.9L673.242 271.896Z" fill="#211715"/>
<path d="M688.25 289.301C684.487 285.089 680.608 280.975 676.698 276.903C675.437 275.483 674.059 274.172 672.578 272.983C670.734 271.646 668.524 270.908 666.246 270.868C663.969 270.828 661.734 271.489 659.845 272.761C657.789 274.18 656.191 276.167 655.246 278.479C654.302 280.791 654.051 283.329 654.525 285.781C654.799 286.747 655.441 287.567 656.314 288.064C657.187 288.561 658.22 288.694 659.19 288.436C660.15 288.152 660.962 287.508 661.457 286.638C661.952 285.768 662.091 284.741 661.846 283.771C661.76 283.323 661.758 283.304 661.846 283.712C661.83 283.467 661.828 283.223 661.846 282.978C661.885 282.522 661.878 282.484 661.825 282.866C661.868 282.616 661.921 282.365 661.986 282.117C662.135 281.4 662.451 280.729 662.909 280.158C662.72 280.378 662.767 280.315 663.071 279.968C663.255 279.763 663.449 279.568 663.651 279.382C664.307 278.768 663.45 279.431 664.22 278.978C664.778 278.575 665.461 278.382 666.147 278.434C666.906 278.383 666.012 278.286 666.754 278.498C667.136 278.563 667.501 278.703 667.829 278.908C668.237 279.164 668.85 279.688 668.292 279.174C668.36 279.236 668.434 279.297 668.499 279.363C669.125 280.035 669.804 280.662 670.443 281.322C674.68 285.684 678.858 290.134 682.913 294.672C683.265 295.025 683.683 295.304 684.143 295.495C684.603 295.686 685.097 295.784 685.595 295.784C686.093 295.784 686.586 295.686 687.046 295.495C687.507 295.305 687.925 295.025 688.277 294.673C688.629 294.321 688.909 293.903 689.1 293.443C689.29 292.983 689.389 292.489 689.389 291.991C689.389 291.493 689.291 291 689.1 290.54C688.91 290.079 688.63 289.661 688.278 289.309L688.25 289.301Z" fill="#211715"/>
<path d="M672.772 294.217C669.305 290.79 665.577 287.638 661.622 284.787C659.96 283.358 658.053 282.24 655.995 281.487C654.186 281.058 652.296 281.102 650.509 281.618C648.723 282.133 647.1 283.101 645.797 284.428C644.494 285.755 643.557 287.396 643.075 289.191C642.593 290.987 642.583 292.877 643.047 294.678C643.979 297.129 645.381 299.373 647.174 301.286C647.971 302.281 648.824 303.231 649.728 304.131C652.317 306.733 655.012 309.23 657.694 311.738C658.046 312.09 658.464 312.37 658.924 312.56C659.385 312.751 659.878 312.849 660.376 312.849C660.874 312.849 661.367 312.751 661.828 312.561C662.288 312.37 662.706 312.091 663.058 311.739C663.411 311.387 663.69 310.968 663.881 310.508C664.072 310.048 664.17 309.555 664.17 309.057C664.17 308.559 664.072 308.065 663.881 307.605C663.691 307.145 663.412 306.727 663.059 306.374C661.04 304.478 659.02 302.596 657.034 300.673C656.034 299.706 655.039 298.735 654.081 297.726C653.301 296.907 652.374 295.753 651.856 295.071C651.357 294.397 650.899 293.693 650.485 292.964C650.18 292.395 650.732 293.362 650.422 292.838C650.345 292.708 650.364 292.537 650.295 292.404C650.55 292.901 650.307 292.958 650.322 292.554C650.322 292.298 650.345 292.03 650.337 291.776C650.324 291.228 650.172 292.357 650.337 291.816C650.385 291.659 650.404 291.488 650.443 291.329C650.495 291.13 650.957 289.971 650.608 290.676C650.768 290.356 651.001 290.047 651.139 289.728C651.295 289.366 651.054 289.866 650.984 289.918C650.999 289.904 651.623 289.297 651.302 289.576C650.982 289.855 651.517 289.434 651.606 289.387C651.75 289.296 651.898 289.216 652.044 289.131C652.647 288.778 652.234 289.036 652.057 289.098C652.264 289.021 652.476 288.95 652.689 288.892C652.846 288.848 653.017 288.829 653.171 288.778C653.69 288.605 652.588 288.753 653.127 288.778C653.279 288.778 653.453 288.778 653.607 288.763C654.438 288.715 653.296 288.594 653.685 288.738C653.875 288.814 654.073 288.866 654.276 288.893C654.656 288.924 654.164 288.865 654.07 288.797C654.4 289.03 654.762 289.231 655.098 289.462C655.89 290.012 656.689 290.557 657.476 291.114C657.912 291.424 658.346 291.733 658.777 292.049C658.995 292.211 659.213 292.372 659.429 292.537C659.501 292.59 659.926 292.916 659.63 292.69C660.556 293.424 661.434 294.208 662.32 294.995C664.027 296.503 665.779 297.988 667.414 299.586C668.129 300.277 669.087 300.66 670.082 300.651C671.077 300.642 672.028 300.243 672.731 299.54C673.435 298.837 673.833 297.886 673.842 296.891C673.851 295.896 673.468 294.938 672.777 294.223L672.772 294.217Z" fill="#211715"/>
<path d="M650.134 293.936C647.806 292.553 645.07 292.02 642.392 292.429C640.127 292.94 638.043 294.054 636.359 295.653C634.855 296.98 633.688 298.647 632.956 300.515C632.223 302.383 631.946 304.399 632.147 306.395C632.633 309.394 633.668 312.278 635.201 314.901C636.314 317.411 637.606 319.838 639.066 322.163C639.317 322.593 639.651 322.97 640.048 323.271C640.445 323.572 640.897 323.792 641.379 323.918C641.861 324.045 642.363 324.075 642.857 324.007C643.35 323.94 643.826 323.775 644.256 323.524C644.686 323.273 645.062 322.939 645.363 322.542C645.665 322.145 645.885 321.693 646.011 321.211C646.137 320.729 646.168 320.227 646.1 319.733C646.032 319.24 645.868 318.764 645.617 318.334C644.407 316.428 643.33 314.441 642.392 312.388C641.861 311.316 641.339 310.241 640.826 309.164C640.636 308.785 640.462 308.396 640.281 308.011L640.014 307.431C639.904 307.194 639.986 306.994 640.069 307.55C640.025 307.264 639.879 306.937 639.804 306.653C639.754 306.448 639.712 306.24 639.676 306.031C639.73 306.456 639.741 306.524 639.714 306.24C639.714 305.86 639.669 305.481 639.68 305.102C639.68 304.984 639.785 303.903 639.659 304.798C639.705 304.473 639.768 304.151 639.849 303.833C639.891 303.668 640.348 302.393 639.993 303.205C640.123 302.913 640.27 302.63 640.433 302.355C640.549 302.166 641.108 301.574 640.57 302.103C640.828 301.851 641.067 301.589 641.338 301.344C641.438 301.257 642.332 300.533 641.787 300.946C642.072 300.73 642.368 300.523 642.669 300.332C642.971 300.14 643.532 299.877 642.874 300.142C643.041 300.076 644.452 299.78 643.765 299.846C644.132 299.805 644.501 299.805 644.867 299.846C644.109 299.748 645.273 300.007 645.324 300.023C645.745 300.176 645.816 300.197 645.535 300.089C645.795 300.215 646.048 300.348 646.294 300.485C647.162 300.993 648.197 301.135 649.17 300.879C650.143 300.624 650.975 299.992 651.483 299.124C651.99 298.255 652.132 297.22 651.876 296.247C651.621 295.274 650.99 294.442 650.121 293.935L650.134 293.936Z" fill="#211715"/>
<path d="M664.514 266.952C662.819 265.949 661.37 264.261 659.556 263.172C657.436 261.944 655.033 261.287 652.583 261.264C647.74 261.355 643.097 263.213 639.529 266.489C636.028 269.306 633.187 272.856 631.204 276.888C629.198 281.468 628.204 286.874 631.5 291.099C633.142 293.014 635.269 294.451 637.658 295.259C640.047 296.068 642.609 296.217 645.076 295.693C646.043 295.42 646.865 294.778 647.362 293.904C647.859 293.03 647.991 291.996 647.731 291.025C647.445 290.067 646.801 289.256 645.931 288.761C645.062 288.267 644.036 288.127 643.066 288.37C641.569 288.614 640.035 288.31 638.743 287.515C638.465 287.353 638.197 287.175 637.935 286.987C638.768 287.587 637.717 286.731 637.556 286.559C637.189 286.194 636.953 285.718 636.885 285.205C636.868 283.495 637.237 281.803 637.964 280.255C638.859 278.422 640.036 276.741 641.454 275.274C644.09 272.281 647.225 269.395 651.263 268.875C652.727 268.679 654.215 268.93 655.534 269.596C657.301 270.578 658.821 272.388 660.691 273.495C664.901 275.987 668.723 269.433 664.52 266.944L664.514 266.952Z" fill="#211715"/>
<path d="M532.535 373.771C538.925 358.12 545.377 342.536 550.875 326.546C557.267 307.96 564.113 289.516 570.161 270.806C573.52 260.415 576.61 249.93 579.142 239.302L573.569 241.568C578.573 244.595 583.183 248.23 587.293 252.39C591.276 256.295 595.625 260.767 597.848 265.977L597.33 264.062L597.358 264.672L597.876 262.757C598.348 261.905 597.789 262.634 597.25 262.967C596.804 263.242 596.361 263.522 595.922 263.807C594.767 264.547 593.626 265.306 592.488 266.07C590.35 267.5 588.226 268.947 586.062 270.337C585.504 270.683 585.044 271.165 584.724 271.738C584.405 272.311 584.237 272.957 584.237 273.613C584.237 274.269 584.405 274.914 584.724 275.487C585.044 276.061 585.504 276.543 586.062 276.888C589.072 279.1 592.27 281.08 595.187 283.414C595.983 284.053 598.527 285.722 598.731 286.623C598.557 285.865 598.215 287.014 598.045 287.327C597.539 288.271 597.028 289.215 596.51 290.157C592.836 296.889 589.068 303.57 585.207 310.198C577.154 324.075 568.811 337.783 560.362 351.42C555.715 358.918 551.037 366.396 546.327 373.854C543.719 377.998 550.281 381.811 552.878 377.684C562.019 363.156 571.113 348.594 579.982 333.897C584.477 326.449 588.902 318.96 593.258 311.43C597.311 304.4 601.552 297.371 605.165 290.1C607.63 285.15 604.937 281.711 601.157 278.548C597.59 275.562 593.635 273.087 589.891 270.337V276.888C592.406 275.272 594.868 273.579 597.356 271.925C599.583 270.757 601.681 269.359 603.615 267.752C607.427 263.741 601.872 257.604 599.342 254.397C593.283 246.642 585.846 240.07 577.404 235.012C576.9 234.726 576.338 234.558 575.76 234.52C575.181 234.483 574.602 234.578 574.066 234.797C573.529 235.016 573.049 235.354 572.662 235.785C572.276 236.217 571.992 236.731 571.832 237.288C567.023 256.318 561.22 275.083 554.446 293.506C548.343 310.869 542.587 328.403 535.886 345.544C532.452 354.331 528.791 363.027 525.226 371.761C524.965 372.731 525.098 373.765 525.595 374.639C526.092 375.512 526.913 376.154 527.881 376.426C528.851 376.669 529.877 376.528 530.746 376.034C531.615 375.539 532.26 374.729 532.547 373.771H532.535Z" fill="#211715"/>
<path d="M529.679 371.755C523.289 356.104 516.837 340.52 511.339 324.53C504.948 305.944 498.103 287.498 492.053 268.79C488.694 258.397 485.604 247.914 483.073 237.286C482.913 236.729 482.629 236.215 482.242 235.783C481.855 235.352 481.376 235.014 480.839 234.795C480.303 234.576 479.723 234.481 479.145 234.518C478.567 234.556 478.004 234.724 477.5 235.01C469.058 240.067 461.621 246.639 455.563 254.395C453.097 257.513 447.787 263.333 450.994 267.365C452.545 269.319 455.483 270.546 457.546 271.917C460.037 273.571 462.497 275.265 465.011 276.881V270.33C461.685 272.773 458.212 275.007 454.96 277.558C451.969 279.906 448.386 282.678 448.701 286.883C449.047 288.79 449.788 290.603 450.878 292.205C451.911 294.113 452.953 296.014 454.004 297.91C455.958 301.45 457.94 304.97 459.949 308.47C468.541 323.493 477.512 338.297 486.617 353.015C491.718 361.257 496.854 369.476 502.025 377.67C504.619 381.793 511.187 377.991 508.576 373.841C491.761 347.118 474.997 320.308 459.762 292.641C458.784 290.871 457.816 289.095 456.858 287.314C456.621 286.99 456.43 286.635 456.289 286.259C456.306 286.405 455.878 287.113 456.45 286.343C457.068 285.63 457.758 284.983 458.508 284.412C461.723 281.613 465.412 279.394 468.841 276.875C469.399 276.53 469.859 276.047 470.178 275.474C470.498 274.901 470.665 274.256 470.665 273.6C470.665 272.943 470.498 272.298 470.178 271.725C469.859 271.152 469.399 270.669 468.841 270.324C466.677 268.934 464.552 267.479 462.415 266.057C461.387 265.366 460.359 264.68 459.318 264.01C458.872 263.722 458.426 263.441 457.977 263.157C457.652 262.952 457.325 262.751 456.996 262.554C456.549 262.239 456.558 262.302 457.023 262.744L457.543 264.659L457.569 264.048L457.052 265.964C459.274 260.754 463.623 256.28 467.606 252.377C471.716 248.217 476.326 244.582 481.33 241.555L475.757 239.289C480.566 258.319 486.369 277.084 493.143 295.507C499.247 312.87 505.003 330.404 511.703 347.547C515.138 356.332 518.798 365.028 522.364 373.761C522.657 374.715 523.303 375.521 524.17 376.014C525.037 376.508 526.06 376.652 527.029 376.417C527.997 376.145 528.819 375.503 529.316 374.63C529.813 373.756 529.946 372.722 529.685 371.751L529.679 371.755Z" fill="#211715"/>
<path d="M510.309 283.287C512.93 285.237 515.466 287.298 518.085 289.254C519.443 290.267 520.82 291.253 522.239 292.176C523.731 293.439 525.528 294.289 527.45 294.642C529.289 294.315 531.01 293.512 532.44 292.311C533.863 291.397 535.242 290.415 536.598 289.406C539.293 287.405 541.897 285.282 544.592 283.28C545.437 282.751 546.049 281.919 546.302 280.954C546.554 279.989 546.429 278.964 545.952 278.089C545.439 277.226 544.607 276.599 543.636 276.345C542.665 276.09 541.633 276.228 540.762 276.729C535.767 280.444 531.046 284.615 525.535 287.573H529.364C523.853 284.615 519.132 280.444 514.136 276.729C513.266 276.228 512.234 276.09 511.263 276.345C510.292 276.599 509.46 277.226 508.947 278.089C508.463 278.963 508.334 279.99 508.588 280.957C508.841 281.924 509.458 282.756 510.309 283.28V283.287Z" fill="#211715"/>
<path d="M496.559 223.892C493.619 227.181 489.995 232 487.118 235.33C486.16 236.432 485.48 237.748 485.137 239.167C484.793 240.587 484.795 242.068 485.144 243.486C486.247 245.691 498.463 265.279 506.691 270.55C509.289 267.087 520.056 252.142 525.207 246.348C523.284 244.984 497.809 224.903 496.559 223.892Z" fill="white"/>
<path d="M558.34 223.892C561.28 227.181 564.904 232 567.781 235.33C568.739 236.432 569.419 237.748 569.763 239.167C570.106 240.587 570.104 242.068 569.755 243.486C568.652 245.691 556.436 265.279 548.208 270.55C545.61 267.087 534.843 252.142 529.692 246.348C531.629 244.984 557.092 224.903 558.34 223.892Z" fill="white"/>
<path d="M493.887 221.21C491.395 224.027 489.094 227.003 486.721 229.918C484.535 232.603 482.236 235.038 481.4 238.503C480.262 243.186 482.348 246.391 484.728 250.093C487.588 254.535 490.652 258.834 493.921 262.99C496.943 267.156 500.611 270.813 504.784 273.823C505.659 274.308 506.686 274.437 507.653 274.183C508.62 273.929 509.452 273.313 509.975 272.462C515.855 264.604 521.397 256.399 527.898 249.029C528.295 248.613 528.594 248.113 528.774 247.566C528.953 247.019 529.008 246.439 528.934 245.868C528.861 245.297 528.66 244.75 528.348 244.266C528.036 243.782 527.62 243.374 527.13 243.072C526.55 242.655 525.992 242.211 525.423 241.775C526.252 242.412 525.366 241.729 525.194 241.595L524.298 240.901L522.553 239.539C519.408 237.083 516.266 234.618 513.128 232.142C508.498 228.503 503.834 224.894 499.252 221.199C498.527 220.514 497.568 220.133 496.57 220.133C495.573 220.133 494.614 220.514 493.889 221.199C493.184 221.914 492.788 222.877 492.788 223.881C492.788 224.885 493.184 225.848 493.889 226.563C503.561 234.354 513.217 242.376 523.303 249.615L522.544 243.658C515.616 251.512 509.702 260.253 503.434 268.629L508.623 267.267C505.353 264.787 502.458 261.849 500.026 258.543C497.156 254.983 494.526 251.216 492.024 247.393C491.141 246.044 490.27 244.684 489.435 243.304C489.166 242.907 488.922 242.494 488.707 242.065C488.624 241.938 488.55 241.805 488.487 241.667C488.628 242.213 488.656 240.882 488.677 240.696C489.056 238.09 491.476 236.042 493.039 234.092C495.08 231.56 497.092 229.005 499.246 226.568C502.465 222.929 497.111 217.539 493.887 221.21Z" fill="#211715"/>
<path d="M555.658 226.574C557.813 229.011 559.831 231.568 561.866 234.098C563.409 236.011 565.716 237.997 566.194 240.519C566.461 241.932 566.325 241.915 565.482 243.309C564.64 244.703 563.775 246.05 562.894 247.398C560.441 251.14 557.875 254.829 555.074 258.321C552.596 261.716 549.639 264.733 546.295 267.278L551.484 268.64C545.216 260.265 539.302 251.523 532.376 243.67L531.608 249.627C541.694 242.388 551.355 234.365 561.022 226.574C561.728 225.86 562.124 224.896 562.124 223.892C562.124 222.888 561.728 221.924 561.022 221.21C560.299 220.52 559.339 220.135 558.34 220.135C557.341 220.135 556.381 220.52 555.658 221.21C551.072 224.905 546.414 228.514 541.783 232.154C538.645 234.62 535.503 237.086 532.357 239.55C531.777 240.005 531.195 240.459 530.612 240.912L529.838 241.513C529.679 241.637 528.622 242.462 529.487 241.786C528.918 242.223 528.359 242.666 527.78 243.084C527.291 243.386 526.875 243.794 526.563 244.278C526.251 244.761 526.051 245.308 525.977 245.879C525.904 246.45 525.958 247.03 526.137 247.577C526.316 248.124 526.615 248.624 527.012 249.041C533.514 256.411 539.054 264.615 544.935 272.473C545.456 273.327 546.288 273.946 547.256 274.2C548.224 274.454 549.252 274.323 550.126 273.835C554.3 270.824 557.967 267.167 560.989 263.001C564.26 258.853 567.325 254.554 570.182 250.105C572.568 246.401 574.641 243.199 573.511 238.515C572.678 235.061 570.368 232.603 568.189 229.929C565.816 227.014 563.516 224.038 561.024 221.222C557.782 217.539 552.434 222.927 555.658 226.574Z" fill="#211715"/>
<path d="M608.504 129.522C611.575 117.639 612.32 105.274 610.697 93.1082C609.353 82.8773 606.159 72.976 601.273 63.8876C597.122 56.2321 591.615 49.3945 585.019 43.7081C577.983 37.418 570.104 32.1384 561.612 28.0215C540.791 18.9402 517.319 18.0102 495.846 25.4156C478.595 31.5951 463.742 43.0741 453.412 58.2093C439.117 79.0375 435.878 105.33 442.127 129.53C443.347 134.254 450.662 132.252 449.442 127.514C444.248 107.399 446.093 85.8367 456.46 67.6239C464.59 53.4717 476.879 42.1647 491.658 35.238C510.733 26.7526 532.295 25.7267 552.089 32.3628C560.546 35.4805 568.425 39.9823 575.405 45.6843C581.628 50.3081 587.047 55.9258 591.443 62.3116C597.045 70.8677 600.855 80.4706 602.642 90.5402C604.842 102.825 604.345 115.44 601.187 127.514C600.015 132.255 607.33 134.275 608.502 129.53L608.504 129.522Z" fill="#211715"/>
<path d="M567.187 35.0426C572.179 29.442 578.74 25.3359 586.421 25.1975C592.47 25.0669 598.336 27.2826 602.788 31.3803C604.853 33.2664 606.484 35.5777 607.569 38.1549C608.796 42.0476 609.647 46.0486 610.113 50.1033C611.533 58.9166 614.594 67.3853 619.137 75.0698C621.193 78.4273 623.912 81.3311 627.127 83.6044C630.482 85.7084 634.011 87.523 637.674 89.0286L636.312 83.8377C633.49 88.3343 629.869 92.276 625.627 95.4675C621.12 98.5909 615.658 100.028 610.198 99.5281C605.326 99.1772 605.348 106.765 610.198 107.114C617.008 107.663 623.801 105.872 629.456 102.037C634.774 98.1242 639.32 93.258 642.863 87.6859C643.366 86.8165 643.506 85.7832 643.251 84.8113C642.997 83.8393 642.368 83.0074 641.503 82.4968C638.159 81.0869 634.911 79.4587 631.781 77.6226C629.033 75.7676 626.764 73.2873 625.16 70.3853C620.314 62.2073 618.353 53.2137 616.671 43.9755C616.176 40.082 615.059 36.2931 613.363 32.7535C611.705 29.7142 609.476 27.0237 606.797 24.8296C601.146 20.1475 594.033 17.5928 586.694 17.6093C581.933 17.7691 577.259 18.9262 572.974 21.006C568.688 23.0857 564.887 26.0418 561.816 29.6829C558.577 33.3167 563.923 38.7011 567.18 35.0464L567.187 35.0426Z" fill="#211715"/>
<path d="M486.517 98.5551C490.532 105.675 495.302 113.811 499.565 120.06C500.227 121.023 501.206 121.724 502.33 122.041C503.455 122.358 504.655 122.272 505.723 121.798C506.751 121.344 507.864 120.849 508.919 120.368C509.528 120.093 510.075 119.699 510.53 119.209C510.985 118.72 511.337 118.145 511.567 117.517C511.796 116.89 511.899 116.223 511.867 115.556C511.836 114.888 511.672 114.234 511.385 113.631C508.506 107.6 503.533 97.4911 500.504 91.6099C499.892 90.4222 498.847 89.5151 497.585 89.076C496.323 88.6369 494.941 88.6994 493.724 89.2505C492.144 89.9655 490.378 90.7678 488.775 91.5264C488.146 91.8184 487.585 92.2374 487.125 92.7572C486.666 93.2769 486.32 93.8861 486.108 94.5463C485.895 95.2066 485.822 95.9036 485.893 96.5935C485.963 97.2835 486.175 97.9513 486.517 98.5551Z" fill="#211715"/>
<path d="M547.124 78.8782C538.498 88.4748 527.136 95.238 516.044 101.592C506.668 107.147 496.915 112.039 486.856 116.233C480.567 118.744 474.159 120.944 467.739 123.093C463.134 124.637 465.108 131.965 469.757 130.41C479.903 127.009 489.891 123.324 499.654 118.938C505.839 116.157 511.716 112.764 517.617 109.426C523.929 105.857 530.189 102.17 536.163 98.0468C542.129 94.1018 547.609 89.4682 552.491 84.2417C555.747 80.6192 550.405 75.2367 547.127 78.8782H547.124Z" fill="#211715"/>
<path d="M546.147 82.5689C549.849 94.614 554.681 106.132 562.814 115.882C570.286 124.832 579.972 133.621 591.405 136.913C596.106 138.266 598.113 130.949 593.423 129.598C583.257 126.67 574.798 118.435 568.178 110.519C560.914 101.829 556.754 91.2647 553.462 80.5528C552.032 75.9005 544.707 77.8825 546.147 82.5689Z" fill="#211715"/>
</svg>
