<svg width="29" height="28" viewBox="0 0 29 28" fill="none" xmlns="http://www.w3.org/2000/svg">
<path d="M18.7637 0.469238H1.43034C1.25369 0.469766 1.08443 0.540173 0.959517 0.665083C0.834607 0.789993 0.764199 0.959256 0.763672 1.1359V13.8026C0.764199 13.9792 0.834607 14.1485 0.959517 14.2734C1.08443 14.3983 1.25369 14.4687 1.43034 14.4692H5.43034V15.8026C5.43083 15.9724 5.49582 16.1358 5.61216 16.2595C5.72849 16.3833 5.8875 16.4583 6.057 16.4692C6.15034 16.4759 6.25701 16.4759 6.37701 16.4759C7.34813 16.4825 8.30098 16.2119 9.12367 15.6959C9.63694 15.3737 10.0848 14.9575 10.4437 14.4692H13.9437C14.0843 14.2609 14.25 14.0706 14.437 13.9026C14.4614 13.0707 14.6229 12.2485 14.915 11.4692H9.43034C9.43034 11.646 9.3601 11.8156 9.23508 11.9406C9.11005 12.0657 8.94048 12.1359 8.76367 12.1359C8.58686 12.1359 8.41729 12.0657 8.29227 11.9406C8.16724 11.8156 8.09701 11.646 8.09701 11.4692V10.1359C8.09701 9.95909 8.16724 9.78952 8.29227 9.6645C8.41729 9.53948 8.58686 9.46924 8.76367 9.46924C8.94048 9.46924 9.11005 9.53948 9.23508 9.6645C9.3601 9.78952 9.43034 9.95909 9.43034 10.1359H15.4303C15.4724 10.14 15.5139 10.1482 15.5543 10.1606C16.4374 8.71049 17.8135 7.62721 19.4303 7.10924V1.1359C19.4298 0.959256 19.3594 0.789993 19.2345 0.665083C19.1096 0.540173 18.9403 0.469766 18.7637 0.469238ZM6.76367 11.4692H4.76367C4.58686 11.4692 4.41729 11.399 4.29227 11.274C4.16724 11.149 4.09701 10.9794 4.09701 10.8026C4.09701 10.6258 4.16724 10.4562 4.29227 10.3312C4.41729 10.2061 4.58686 10.1359 4.76367 10.1359H6.76367C6.94048 10.1359 7.11005 10.2061 7.23508 10.3312C7.3601 10.4562 7.43034 10.6258 7.43034 10.8026C7.43034 10.9794 7.3601 11.149 7.23508 11.274C7.11005 11.399 6.94048 11.4692 6.76367 11.4692ZM8.43034 8.13591V3.46924L12.4303 5.80257L8.43034 8.13591ZM12.097 19.1359H0.763672L2.09701 27.1359H13.4303L12.097 19.1359ZM7.09701 24.4692C6.8333 24.4692 6.57551 24.391 6.35625 24.2445C6.13698 24.098 5.96608 23.8898 5.86517 23.6461C5.76425 23.4025 5.73784 23.1344 5.78929 22.8758C5.84074 22.6171 5.96773 22.3796 6.1542 22.1931C6.34067 22.0066 6.57824 21.8796 6.83688 21.8282C7.09553 21.7767 7.36362 21.8032 7.60725 21.9041C7.85088 22.005 8.05912 22.1759 8.20563 22.3951C8.35214 22.6144 8.43034 22.8722 8.43034 23.1359C8.42928 23.4892 8.28847 23.8277 8.03865 24.0775C7.78883 24.3274 7.4503 24.4682 7.09701 24.4692Z" fill="white"/>
<path d="M21.4305 20.4692C20.5222 20.4632 19.6276 20.2469 18.8169 19.8372C18.0062 19.4275 17.3014 18.8356 16.7578 18.1078C16.6497 18.1266 16.5402 18.136 16.4305 18.1358C15.9898 18.1362 15.5613 17.9909 15.2117 17.7225C14.8621 17.454 14.6111 17.0776 14.4978 16.6516C14.3845 16.2257 14.4151 15.7743 14.585 15.3676C14.7549 14.9609 15.0545 14.6219 15.4372 14.4032C15.4327 14.3141 15.4305 14.225 15.4305 14.1358C15.3893 12.5011 15.9975 10.9167 17.1221 9.72966C18.2467 8.54258 19.796 7.8496 21.4305 7.80249C23.065 7.8496 24.6143 8.54258 25.7389 9.72966C26.8635 10.9167 27.4718 12.5011 27.4305 14.1358C27.4305 14.2238 27.4285 14.3125 27.4238 14.4032C27.8065 14.6219 28.1061 14.9609 28.276 15.3676C28.4459 15.7743 28.4765 16.2257 28.3632 16.6516C28.2499 17.0776 27.9989 17.454 27.6493 17.7225C27.2998 17.9909 26.8712 18.1362 26.4305 18.1358C26.3208 18.136 26.2113 18.1266 26.1032 18.1078C25.5596 18.8356 24.8549 19.4275 24.0441 19.8372C23.2334 20.2469 22.3388 20.4632 21.4305 20.4692ZM17.0225 16.6578C17.1343 16.6578 17.2443 16.6859 17.3423 16.7394C17.4404 16.793 17.5235 16.8704 17.5838 16.9645C17.9837 17.6271 18.5479 18.1753 19.2218 18.5557C19.8958 18.9362 20.6566 19.1361 21.4305 19.1361C22.2044 19.1361 22.9652 18.9362 23.6392 18.5557C24.3131 18.1753 24.8773 17.6271 25.2772 16.9645C25.3659 16.8259 25.5029 16.7252 25.6615 16.6816C25.8202 16.638 25.9894 16.6547 26.1365 16.7285C26.2375 16.78 26.3501 16.8046 26.4634 16.8C26.5767 16.7954 26.6869 16.7617 26.7834 16.7021C26.8799 16.6426 26.9595 16.5592 27.0144 16.4601C27.0694 16.3609 27.0979 16.2492 27.0972 16.1358C27.0964 15.9845 27.0443 15.838 26.9495 15.72C26.8547 15.6021 26.7228 15.5198 26.5752 15.4865C26.414 15.4509 26.2718 15.3569 26.176 15.2225C26.0802 15.0882 26.0376 14.9231 26.0565 14.7592C26.082 14.5523 26.0955 14.3442 26.0972 14.1358C26.1384 12.8547 25.6706 11.6095 24.796 10.6725C23.9215 9.73543 22.7114 9.18293 21.4305 9.13582C20.1496 9.18293 18.9395 9.73543 18.065 10.6725C17.1904 11.6095 16.7226 12.8547 16.7638 14.1358C16.7652 14.3442 16.7786 14.5523 16.8038 14.7592C16.8228 14.923 16.7803 15.088 16.6846 15.2224C16.5889 15.3567 16.4469 15.4508 16.2858 15.4865C16.1382 15.5198 16.0063 15.6021 15.9115 15.72C15.8167 15.838 15.7646 15.9845 15.7638 16.1358C15.7631 16.2492 15.7916 16.3609 15.8466 16.4601C15.9015 16.5592 15.9811 16.6426 16.0776 16.7021C16.1741 16.7617 16.2843 16.7954 16.3976 16.8C16.5109 16.8046 16.6235 16.78 16.7245 16.7285C16.817 16.6822 16.919 16.658 17.0225 16.6578ZM28.7638 27.1358H14.0972L14.5112 23.4092C14.5856 22.74 14.8608 22.109 15.3008 21.5993C15.7407 21.0897 16.3247 20.7252 16.9758 20.5538L17.2972 20.4692C18.501 21.3361 19.947 21.8025 21.4305 21.8025C22.914 21.8025 24.36 21.3361 25.5638 20.4692L25.8852 20.5538C26.5363 20.7252 27.1203 21.0897 27.5602 21.5993C28.0002 22.109 28.2755 22.74 28.3498 23.4092L28.7638 27.1358Z" fill="white"/>
<path d="M26.7171 15.3691C26.7304 15.3758 26.7504 15.3758 26.7637 15.3824H22.4771C22.3614 15.3824 22.2477 15.3523 22.1472 15.295C22.0466 15.2377 21.9627 15.1553 21.9037 15.0558L20.5437 12.7891C20.5094 12.7309 20.4581 12.6845 20.3967 12.6561C20.3354 12.6277 20.2668 12.6188 20.2002 12.6303C20.1336 12.6419 20.0721 12.6735 20.0239 12.721C19.9757 12.7684 19.9431 12.8294 19.9304 12.8958L19.5371 14.8424C19.5081 14.9944 19.4269 15.1315 19.3077 15.2301C19.1884 15.3287 19.0385 15.3826 18.8837 15.3824H16.0971C16.1104 15.3758 16.1304 15.3758 16.1437 15.3691C16.1145 15.1369 16.0989 14.9032 16.0971 14.6691C16.0545 13.2109 16.5921 11.7953 17.592 10.7329C18.5918 9.6706 19.9723 9.04825 21.4304 9.00244C22.8886 9.04825 24.269 9.6706 25.2688 10.7329C26.2687 11.7953 26.8063 13.2109 26.7637 14.6691C26.7619 14.9032 26.7464 15.1369 26.7171 15.3691Z" fill="white"/>
</svg>
