<svg width="29" height="30" viewBox="0 0 29 30" fill="none" xmlns="http://www.w3.org/2000/svg">
<path d="M23.5044 15.0185H6.63885C5.79975 15.0185 5.1171 15.7012 5.1171 16.5404C5.1171 17.3795 5.79975 18.0621 6.63885 18.0621H23.4346C23.4999 18.2894 23.5815 18.5117 23.6788 18.7272H6.63885C5.43301 18.7272 4.45198 17.7462 4.45198 16.5404C4.45198 15.3345 5.43301 14.3535 6.63885 14.3535H23.7356C23.6462 14.5776 23.5694 14.7993 23.5044 15.0185H23.5044ZM24.9756 12.0016C25.3496 12.0016 25.654 11.6973 25.654 11.3232C25.654 10.9492 25.3496 10.6448 24.9756 10.6448H8.35139C8.42362 11.1096 8.43729 11.5621 8.39235 12.0016H24.9756V12.0016ZM6.63885 5.42762C6.26482 5.42762 5.96048 5.73201 5.96048 6.10611C5.96048 6.48021 6.26482 6.78449 6.63885 6.78449H23.2719C23.227 6.34503 23.2408 5.8925 23.313 5.42768L6.63885 5.42762ZM6.63885 8.29292H23.6788C23.5815 8.07738 23.4999 7.85509 23.4346 7.6278H6.63885C5.79975 7.6278 5.1171 6.94515 5.1171 6.10605C5.1171 5.26695 5.79975 4.58418 6.63885 4.58418H23.5044C23.5713 4.35908 23.6485 4.13716 23.7357 3.91912H6.63885C5.43301 3.91912 4.45198 4.90014 4.45198 6.10605C4.45198 7.31196 5.43301 8.29292 6.63885 8.29292ZM4.08933 1.46899C4.01716 1.18122 3.80975 0.969892 3.45547 0.823084C3.35312 0.780377 3.24333 0.758388 3.13243 0.758388C3.02153 0.758388 2.91173 0.780377 2.80938 0.823084C2.70683 0.865242 2.61365 0.927323 2.53525 1.00573C2.45685 1.08415 2.39478 1.17733 2.35264 1.27989C2.33145 1.33106 2.30039 1.37755 2.26123 1.41671C2.22207 1.45587 2.17559 1.48693 2.12442 1.50812C2.07326 1.52931 2.01842 1.54021 1.96304 1.54021C1.90766 1.5402 1.85283 1.52929 1.80167 1.50809C1.69751 1.46495 1.58806 1.44339 1.47866 1.44339C1.36926 1.44339 1.2598 1.46495 1.15564 1.50809C1.05308 1.55025 0.959905 1.61233 0.881494 1.69074C0.803084 1.76916 0.741001 1.86234 0.698836 1.96489C0.552028 2.31923 0.554859 2.61526 0.70739 2.86984C1.11317 3.54737 2.44589 3.87345 3.14752 3.97779C3.56963 3.40815 4.28162 2.23496 4.08945 1.46893L4.08933 1.46899ZM25.0255 9.1363H7.92837C8.01562 9.35435 8.09281 9.57629 8.1597 9.80142H24.9756C25.8147 9.80142 26.4973 10.4841 26.4973 11.3232C26.4973 12.1624 25.8147 12.845 24.9756 12.845H8.22964C8.16426 13.0723 8.08254 13.2946 7.98512 13.5101H25.0254C26.2313 13.5101 27.2123 12.5291 27.2123 11.3232C27.2123 10.1174 26.2313 9.1363 25.0254 9.1363H25.0255ZM28.8292 1.77218C28.787 1.66962 28.725 1.57643 28.6466 1.49801C28.5682 1.4196 28.475 1.35752 28.3724 1.31537C28.2701 1.27262 28.1603 1.25061 28.0494 1.25061C27.9385 1.25061 27.8287 1.27262 27.7263 1.31537C27.6752 1.33658 27.6203 1.34751 27.5649 1.34752C27.5096 1.34753 27.4547 1.33662 27.4036 1.31543C27.3524 1.29424 27.3059 1.26317 27.2668 1.22401C27.2276 1.18485 27.1965 1.13835 27.1754 1.08718C27.1332 0.984627 27.0711 0.891452 26.9927 0.813042C26.9143 0.734633 26.8211 0.672547 26.7186 0.630373C26.6144 0.58724 26.5049 0.565674 26.3955 0.565674C26.2861 0.565674 26.1767 0.58724 26.0725 0.630373C25.7182 0.777181 25.5108 0.988446 25.4387 1.27628C25.2466 2.04236 25.9583 3.21532 26.3807 3.7852C27.082 3.68086 28.4149 3.35472 28.8207 2.67713C28.9732 2.42255 28.976 2.12652 28.8293 1.77224L28.8292 1.77218ZM22.1672 21.9885C21.1112 22.6651 18.0136 24.7653 17.9595 24.7963C17.5254 25.0753 16.8785 25.1847 16.1322 25.1847C14.9053 25.1847 13.4108 24.8903 12.1561 24.5729C12.0483 24.5449 11.956 24.4754 11.8993 24.3795C11.8426 24.2837 11.8261 24.1693 11.8534 24.0614C11.8807 23.9534 11.9496 23.8606 12.0451 23.8033C12.1406 23.746 12.2548 23.7287 12.363 23.7553C14.9231 24.403 16.8487 24.5247 17.5138 24.0809C17.8025 23.8883 17.9331 23.5741 17.9324 23.3636C17.9321 23.2809 17.9115 23.2161 17.8787 23.1945C15.3644 21.5427 13.1476 21.2102 11.0039 20.8886C9.27181 20.6287 6.52608 21.7073 5.53963 22.1293L7.58283 27.0621C7.6138 27.0535 7.64416 27.0455 7.67572 27.0367C8.49488 26.808 9.4232 26.5487 12.1755 27.4181C16.1303 28.6673 18.1406 27.1665 20.9229 25.0892C21.5498 24.6211 22.1981 24.1371 22.9182 23.6453C23.6466 23.1479 23.6538 22.5893 23.4176 22.2324C23.1764 21.8677 22.6693 21.6668 22.1672 21.9885H22.1672ZM4.60294 22.0717C4.55534 21.9559 4.48523 21.8507 4.39669 21.7621C4.30814 21.6736 4.20292 21.6035 4.0871 21.5559C3.96951 21.5071 3.84589 21.4828 3.72228 21.4828C3.59866 21.4828 3.47511 21.5071 3.35746 21.5559C3.24164 21.6035 3.13641 21.6736 3.04787 21.7621C2.95933 21.8507 2.88922 21.9559 2.84161 22.0717C2.79336 22.1873 2.76851 22.3113 2.76851 22.4365C2.76851 22.5617 2.79336 22.6857 2.84161 22.8013L5.18174 28.4507C5.38289 28.9363 5.94162 29.1678 6.42723 28.9665C6.66241 28.8691 6.84566 28.6859 6.94307 28.4507C7.04048 28.2155 7.04048 27.9564 6.94307 27.7211L4.60294 22.0717ZM6.63885 15.8619C6.26482 15.8619 5.96048 16.1663 5.96048 16.5404C5.96048 16.9145 6.26482 17.2187 6.63885 17.2187H23.2719C23.227 16.7793 23.2408 16.3267 23.313 15.862L6.63885 15.8619Z" fill="white"/>
</svg>
