<svg width="24" height="24" viewBox="0 0 24 24" fill="none" xmlns="http://www.w3.org/2000/svg">
<g clip-path="url(#clip0_134_376)">
<path d="M18.5253 23.5489H5.47472C2.70028 23.5489 0.451141 21.2997 0.451141 18.5253V5.47471C0.451141 2.70027 2.70028 0.451126 5.47472 0.451126H18.5253C21.2997 0.451126 23.5489 2.70027 23.5489 5.47471V18.5253C23.5489 21.2997 21.2997 23.5489 18.5253 23.5489Z" fill="black"/>
<mask id="mask0_134_376" style="mask-type:luminance" maskUnits="userSpaceOnUse" x="0" y="0" width="24" height="24">
<path d="M18.5253 23.5489H5.47472C2.70028 23.5489 0.451141 21.2997 0.451141 18.5253V5.47471C0.451141 2.70027 2.70028 0.451126 5.47472 0.451126H18.5253C21.2997 0.451126 23.5489 2.70027 23.5489 5.47471V18.5253C23.5489 21.2997 21.2997 23.5489 18.5253 23.5489Z" fill="white"/>
</mask>
<g mask="url(#mask0_134_376)">
<path d="M18.5253 23.5489H5.47472C2.70028 23.5489 0.451141 21.2997 0.451141 18.5253V5.47471C0.451141 2.70027 2.70028 0.451126 5.47472 0.451126H18.5253C21.2997 0.451126 23.5489 2.70027 23.5489 5.47471V18.5253C23.5489 21.2997 21.2997 23.5489 18.5253 23.5489Z" fill="#0ABF00"/>
</g>
<mask id="mask1_134_376" style="mask-type:luminance" maskUnits="userSpaceOnUse" x="0" y="0" width="24" height="24">
<path d="M18.5253 23.5489H5.47472C2.70028 23.5489 0.451141 21.2997 0.451141 18.5253V5.47471C0.451141 2.70027 2.70028 0.451126 5.47472 0.451126H18.5253C21.2997 0.451126 23.5489 2.70027 23.5489 5.47471V18.5253C23.5489 21.2997 21.2997 23.5489 18.5253 23.5489Z" fill="white"/>
</mask>
<g mask="url(#mask1_134_376)">
<path d="M18.1603 15.172V17.7907C18.1603 17.9686 18.0155 18.1124 17.836 18.1124H16.5391C13.6816 18.1124 10.9949 17.0079 8.97386 15.0025C6.95281 12.9972 5.83978 10.3314 5.83978 7.49593V6.20932C5.83978 6.03121 5.9845 5.88757 6.16405 5.88757H8.76219C9.09945 5.88757 9.39124 6.10213 9.48634 6.41738L10.1607 9.20769C10.1737 9.26213 10.1723 9.31899 10.1568 9.37275C10.1413 9.4265 10.1121 9.47533 10.0721 9.51446L9.22685 10.3337C9.14708 10.41 9.09315 10.5093 9.07261 10.6178C9.05206 10.7262 9.06593 10.8384 9.11226 10.9386C9.2947 11.3221 9.5057 11.6913 9.74348 12.0431C10.0387 12.4746 10.3738 12.8774 10.7443 13.2464C11.1166 13.6145 11.5226 13.9469 11.9569 14.2394C12.3118 14.4769 12.6848 14.6863 13.0723 14.8657C13.1729 14.9117 13.2852 14.9254 13.394 14.9051C13.5027 14.8847 13.6025 14.8313 13.6797 14.7521L14.648 13.7718C14.6893 13.7297 14.7413 13.6996 14.7984 13.6848C14.8556 13.6701 14.9157 13.6712 14.9722 13.6881L17.6655 14.4666C17.81 14.5198 17.9348 14.6158 18.0232 14.7419C18.1116 14.868 18.1594 15.018 18.1603 15.172Z" fill="white"/>
</g>
</g>
<defs>
<clipPath id="clip0_134_376">
<rect width="24" height="24" fill="white"/>
</clipPath>
</defs>
</svg>
