<svg width="126" height="38" viewBox="0 0 126 38" fill="none" xmlns="http://www.w3.org/2000/svg">
<g clip-path="url(#clip0_0_2094)">
<path d="M120.682 37.5664H5.21404C2.67365 37.5664 0.592773 35.4855 0.592773 32.9451V5.18767C0.592773 2.64728 2.67365 0.566406 5.21404 0.566406H120.667C123.208 0.566406 125.288 2.64728 125.288 5.18767V32.9451C125.288 35.4855 123.222 37.5664 120.682 37.5664Z" fill="black"/>
<path d="M44.3995 10.0369C44.3995 10.8065 44.1716 11.4266 43.712 11.8862C43.1853 12.4391 42.5091 12.7118 41.6723 12.7118C40.8354 12.7118 40.1854 12.4279 39.6325 11.8749C39.0796 11.322 38.7957 10.6309 38.7957 9.80902C38.7957 8.98713 39.0796 8.29599 39.6325 7.74308C40.1854 7.19018 40.8765 6.90625 41.6723 6.90625C42.0645 6.90625 42.4568 6.98844 42.808 7.13414C43.1741 7.29478 43.458 7.50025 43.671 7.75429L43.1853 8.23995C42.8192 7.79539 42.3074 7.57871 41.6723 7.57871C41.0932 7.57871 40.5777 7.78044 40.1592 8.19886C39.7259 8.60233 39.5241 9.14403 39.5241 9.80528C39.5241 10.4665 39.7408 10.9933 40.1592 11.4117C40.5926 11.8152 41.0895 12.0319 41.6723 12.0319C42.2924 12.0319 42.808 11.8301 43.2264 11.4117C43.4954 11.1427 43.6448 10.7617 43.6859 10.2909H41.6723V9.6297H44.3621C44.3882 9.76419 44.4032 9.89868 44.4032 10.0332" fill="white"/>
<path d="M44.3996 10.036H44.3062C44.3062 10.7907 44.0895 11.3884 43.6449 11.818C43.1443 12.3448 42.498 12.6138 41.6724 12.6138C40.8468 12.6138 40.2416 12.3448 39.6999 11.8031C39.1582 11.2614 38.8892 10.6002 38.8892 9.80442C38.8892 9.00868 39.1582 8.34369 39.6999 7.80573C40.2416 7.26776 40.9028 6.99505 41.6724 6.99505C42.0647 6.99505 42.4271 7.07723 42.7782 7.22293C43.1294 7.36863 43.3984 7.5741 43.6151 7.81694L43.6823 7.76463L43.6151 7.69739L43.1294 8.18305L43.1966 8.2503L43.2639 8.19799C42.8866 7.73848 42.3449 7.5106 41.6687 7.5106C41.0597 7.5106 40.533 7.72728 40.0884 8.16064C39.6438 8.594 39.4272 9.1469 39.4272 9.8231C39.4272 10.4993 39.6438 11.0671 40.0884 11.4856C40.533 11.9189 41.0597 12.1356 41.6687 12.1356C42.2776 12.1356 42.8567 11.9189 43.2751 11.4856C43.559 11.2016 43.7197 10.7982 43.7608 10.3088L43.7757 10.2154H41.7509V9.7297H44.3436V9.6363L44.2502 9.65125C44.2763 9.78574 44.2912 9.92023 44.2912 10.0547H44.4818C44.4818 9.92023 44.4668 9.77079 44.4407 9.62136L44.4257 9.53917H41.5753V10.3909H43.6823V10.2826L43.5889 10.2677C43.5478 10.7272 43.3984 11.0783 43.1555 11.3361C42.7633 11.7284 42.2776 11.9301 41.6687 11.9301C41.1008 11.9301 40.6301 11.7396 40.2229 11.3361C39.8194 10.9439 39.6139 10.4432 39.6139 9.79694C39.6139 9.15064 39.8157 8.66124 40.2229 8.25777C40.6264 7.8655 41.1158 7.66377 41.6687 7.66377C42.2888 7.66377 42.7633 7.8655 43.1145 8.28392L43.1817 8.36611L43.7346 7.8132L43.7869 7.7609L43.7346 7.69365C43.5067 7.42467 43.2078 7.20799 42.8305 7.04361C42.4532 6.88297 42.0609 6.80078 41.6537 6.80078C40.8281 6.80078 40.1258 7.08471 39.5467 7.66377C38.9676 8.23162 38.6837 8.9489 38.6837 9.79694C38.6837 10.645 38.9676 11.3623 39.5467 11.9301C40.1258 12.498 40.8318 12.7931 41.6537 12.7931C42.4756 12.7931 43.2191 12.5092 43.7608 11.9413C44.2352 11.4669 44.478 10.8206 44.478 10.0248L44.3959 10.0398M48.651 7.71607H46.1256V9.47192H48.3932V10.1332H46.1256V11.889H48.651V12.5652H45.4083V7.03988H48.651V7.71607Z" fill="white"/>
<path d="M48.6548 7.71214V7.61874H46.0359V9.56513H48.3036V10.0508H46.0359V11.9972H48.5614V12.4978H45.5092V7.13682H48.5614V7.73082H48.6548V7.71588H48.7481V6.94629H45.3298V12.6883H48.7481V11.8253H46.2227V10.2451H48.4904V9.39328H46.2227V7.81301H48.7481V7.71961H48.6548M51.6546 12.5949H50.9374V7.73082H49.3832V7.05463H53.1938V7.73082H51.6397V12.5949" fill="white"/>
<path d="M51.6547 12.5883V12.4949H51.0345V7.63076H49.4804V7.13015H53.1004V7.63076H51.5463V12.5883H51.6547H51.7481V7.80634H53.3022V6.94336H49.3048V7.80634H50.8589V12.6704H51.7518V12.577L51.6584 12.592M55.9659 12.592V7.04049H56.6831V12.592H55.9659Z" fill="white"/>
<path d="M55.962 12.5879H56.0553V7.12981H56.5821V12.4908H55.962V12.5842V12.6776H56.7726V6.93555H55.8798V12.6776H55.9732V12.5842M59.8248 12.5842H59.1075V7.72008H57.5534V7.04389H61.364V7.72008H59.8099V12.5842" fill="white"/>
<path d="M59.825 12.588V12.4946H59.2048V7.63054H57.6507V7.12994H61.2707V7.63054H59.7166V12.588H59.825H59.9184V7.80613H61.4725V6.94314H57.4751V7.80613H59.0292V12.6702H59.9221V12.5768L59.8287 12.5918M65.0552 11.4038C65.4586 11.8222 65.9742 12.0239 66.5532 12.0239C67.1323 12.0239 67.6479 11.8222 68.0513 11.4038C68.4548 10.9853 68.6715 10.4586 68.6715 9.80855C68.6715 9.15851 68.4698 8.63175 68.0513 8.21334C67.6479 7.79492 67.1473 7.59318 66.5532 7.59318C65.9592 7.59318 65.4586 7.79492 65.0552 8.21334C64.6517 8.63175 64.435 9.15851 64.435 9.80855C64.435 10.4586 64.6517 10.9853 65.0552 11.4038ZM68.593 11.8633C68.0513 12.4311 67.3789 12.7001 66.5682 12.7001C65.7575 12.7001 65.0813 12.4162 64.5434 11.8633C64.0054 11.3104 63.7327 10.6192 63.7327 9.80855C63.7327 8.99787 64.0017 8.31047 64.5434 7.75383C65.0851 7.18597 65.7575 6.91699 66.5682 6.91699C67.3789 6.91699 68.0551 7.20092 68.593 7.76877C69.1347 8.33662 69.4187 9.01281 69.4187 9.82349C69.4037 10.6192 69.1347 11.3104 68.593 11.8633Z" fill="white"/>
<path d="M65.0552 11.399L64.9879 11.4662C65.4063 11.8996 65.948 12.1163 66.5533 12.1163C67.1585 12.1163 67.7002 11.8996 68.1186 11.4662C68.5519 11.0329 68.7686 10.465 68.7686 9.80378C68.7686 9.14253 68.5519 8.57468 68.1186 8.14132C67.7002 7.70796 67.1585 7.49128 66.5533 7.49128C65.948 7.49128 65.4063 7.70796 64.9879 8.14132C64.5546 8.57468 64.3379 9.14253 64.3379 9.80378C64.3379 10.465 64.5546 11.0329 64.9879 11.4662L65.0552 11.399L65.1224 11.3317C64.7302 10.9283 64.5284 10.4277 64.5284 9.80378C64.5284 9.17989 64.7302 8.66808 65.1224 8.27581C65.5147 7.87234 65.9854 7.68181 66.5682 7.68181C67.151 7.68181 67.6068 7.88355 68.014 8.27581C68.4062 8.67929 68.608 9.17989 68.608 9.80378C68.608 10.4277 68.4062 10.9395 68.014 11.3317C67.6217 11.7352 67.151 11.9258 66.5682 11.9258C65.9854 11.9258 65.5296 11.724 65.1224 11.3317L65.0552 11.399ZM68.593 11.8585L68.5258 11.7913C67.999 12.333 67.349 12.6019 66.5533 12.6019C65.7575 12.6019 65.1224 12.333 64.5957 11.7913C64.0689 11.2496 63.8111 10.5883 63.8111 9.79257C63.8111 8.99683 64.0689 8.34679 64.5957 7.79389C65.1224 7.25219 65.7725 6.9832 66.5533 6.9832C67.3341 6.9832 67.9841 7.25219 68.5108 7.80883C69.0376 8.36547 69.3066 9.01178 69.3066 9.79631C69.3066 10.5808 69.0488 11.2421 68.5221 11.795L68.5893 11.8622L68.6565 11.9295C69.2095 11.3504 69.4934 10.6331 69.4934 9.80752C69.4934 8.98189 69.2095 8.26834 68.6416 7.68555C68.0738 7.10649 67.3714 6.80762 66.5495 6.80762C65.7276 6.80762 65.0103 7.10649 64.4574 7.6706C63.8896 8.24966 63.6206 8.96695 63.6206 9.79257C63.6206 10.6182 63.9045 11.3317 64.4574 11.9145C65.0103 12.4936 65.7276 12.7775 66.5495 12.7775C67.3714 12.7775 68.0887 12.4787 68.6416 11.9145L68.5893 11.8622L68.593 11.8585ZM70.4049 12.587V7.03551H71.2679L73.9577 11.3579H73.9839L73.9577 10.2894V7.04671H74.675V12.5982H73.9316L71.1073 8.07408H71.0811L71.1073 9.14253V12.6019L70.4049 12.587Z" fill="white"/>
<path d="M70.4048 12.5877H70.4982V7.12964H71.2267L73.9165 11.452H74.0921L74.0659 10.2902V7.12964H74.5927V12.4906H73.9987L71.1744 7.96647H70.9988L71.0249 9.12833V12.4906H70.4048V12.584V12.6774H71.2155V9.12459L71.1893 8.05614H71.0959V8.14953H71.1221V8.05614L71.0399 8.10844L73.8904 12.6737H74.7832V6.93164H73.8904V10.2678L73.9165 11.3362H74.0099V11.2428H73.9837V11.3362L74.0659 11.2839L71.3238 6.93538H70.3114V12.6774H70.4048V12.584M99.3652 28.3083H101.095V16.7458H99.3652V28.3083ZM114.899 20.9075L112.926 25.9173H112.874L110.819 20.9075H108.97L112.048 27.9197L110.293 31.8237H112.09L116.83 20.9225L114.899 20.9075ZM105.118 27.0007C104.551 27.0007 103.766 26.7168 103.766 26.0144C103.766 25.1216 104.752 24.7853 105.589 24.7853C106.344 24.7853 106.695 24.946 107.169 25.1776C107.035 26.2311 106.116 27.0007 105.115 27.0007H105.118ZM105.335 20.6535C104.091 20.6535 102.795 21.2064 102.257 22.4243L103.785 23.0594C104.11 22.4243 104.715 22.2076 105.365 22.2076C106.258 22.2076 107.162 22.7493 107.177 23.6945V23.8177C106.867 23.6422 106.191 23.3732 105.38 23.3732C103.732 23.3732 102.059 24.2773 102.059 25.9808C102.059 27.5349 103.411 28.5212 104.924 28.5212C106.086 28.5212 106.721 27.9944 107.125 27.3855H107.177V28.2784H108.839V23.8476C108.839 21.8079 107.311 20.6609 105.339 20.6609L105.335 20.6535ZM94.6767 22.3159H92.2334V18.3596H94.6767C95.9618 18.3596 96.7015 19.4281 96.7015 20.3471C96.7015 21.2662 95.9581 22.3197 94.6767 22.3197V22.3159ZM94.6356 16.7495H90.5037V28.312H92.2334V23.9223H94.6393C96.5446 23.9223 98.42 22.5326 98.42 20.3285C98.42 18.1243 96.5409 16.7495 94.6393 16.7495H94.6356ZM72.1158 27.0007C70.9278 27.0007 69.9266 25.9995 69.9266 24.6359C69.9266 23.2723 70.9278 22.23 72.1158 22.23C73.3038 22.23 74.2079 23.2424 74.2079 24.6359C74.2079 26.0294 73.2889 27.0007 72.1158 27.0007ZM74.0884 21.5575H74.036C73.6438 21.098 72.9003 20.6796 71.9701 20.6796C70.0125 20.6796 68.2006 22.4093 68.2006 24.6247C68.2006 26.8401 69.9976 28.5436 71.9701 28.5436C72.9003 28.5436 73.6438 28.1252 74.036 27.6507H74.0884V28.2186C74.0884 29.7167 73.2926 30.5274 71.9963 30.5274C70.9428 30.5274 70.2815 29.7727 70.0088 29.1227L68.5107 29.7428C68.9441 30.7814 70.091 32.0665 71.9963 32.0665C74.0211 32.0665 75.7247 30.8785 75.7247 27.972V20.9075H74.0884V21.5575ZM76.9127 28.312H78.6424V16.7495H76.9127V28.312ZM81.194 24.4902C81.1529 22.9622 82.3708 22.1926 83.2487 22.1926C83.9361 22.1926 84.5189 22.5289 84.7094 23.0295L81.1977 24.4902H81.194ZM86.5437 23.1789C86.2187 22.301 85.2212 20.6796 83.1814 20.6796C81.1417 20.6796 79.4792 22.2748 79.4792 24.6097C79.4792 26.8102 81.1417 28.5399 83.3832 28.5399C85.1801 28.5399 86.2187 27.4341 86.6521 26.799L85.3146 25.9061C84.8701 26.5673 84.2611 27.0007 83.3832 27.0007C82.5053 27.0007 81.8851 26.5972 81.4779 25.8127L86.7343 23.6384L86.5437 23.1789ZM44.6946 21.8826V23.5562H48.6807C48.5575 24.5014 48.2474 25.1776 47.7767 25.6633C47.1976 26.2423 46.2898 26.8774 44.6983 26.8774C42.2401 26.8774 40.3199 24.8899 40.3199 22.4317C40.3199 19.9735 42.2364 17.9861 44.6983 17.9861C46.0208 17.9861 46.9959 18.5128 47.7094 19.1741L48.8862 17.9973C47.885 17.0372 46.5625 16.3087 44.6983 16.3087C41.336 16.3087 38.5117 19.0508 38.5117 22.4131C38.5117 25.7753 41.336 28.5175 44.6983 28.5175C46.5102 28.5175 47.885 27.9235 48.9535 26.8027C50.0593 25.6969 50.3992 24.154 50.3992 22.8987C50.3992 22.5065 50.3731 22.1553 50.3058 21.8602L44.6983 21.8751L44.6946 21.8826ZM54.9346 27.0007C53.7466 27.0007 52.7192 26.0144 52.7192 24.6097C52.7192 23.2051 53.7466 22.2188 54.9346 22.2188C56.1226 22.2188 57.1499 23.1901 57.1499 24.6097C57.1499 26.0144 56.1226 27.0007 54.9346 27.0007ZM54.9346 20.6796C52.7603 20.6796 50.9895 22.3271 50.9895 24.6097C50.9895 26.8924 52.7603 28.5399 54.9346 28.5399C57.1089 28.5399 58.8797 26.8662 58.8797 24.6097C58.8797 22.3533 57.0976 20.6796 54.9346 20.6796ZM63.5271 27.0007C62.3391 27.0007 61.3117 26.0144 61.3117 24.6097C61.3117 23.2051 62.3391 22.2188 63.5271 22.2188C64.7151 22.2188 65.7424 23.1901 65.7424 24.6097C65.7574 26.0144 64.73 27.0007 63.5271 27.0007ZM63.5271 20.6796C61.3528 20.6796 59.582 22.3271 59.582 24.6097C59.582 26.8924 61.3528 28.5399 63.5271 28.5399C65.7013 28.5399 67.4721 26.8662 67.4721 24.6097C67.4721 22.3533 65.7013 20.6796 63.5271 20.6796Z" fill="white"/>
<path d="M10.306 7.60402C9.99595 7.88795 9.80542 8.34746 9.80542 8.96761V29.1637C9.80542 29.7315 9.96606 30.1761 10.2388 30.46L10.306 30.5273C10.5227 30.729 10.8066 30.8262 11.1167 30.8262C11.4268 30.8262 11.778 30.7328 12.1553 30.5161L25.5558 22.8837L30.1621 20.2649C30.7412 19.9286 31.0812 19.5102 31.1335 19.0619C31.0812 18.6286 30.7561 18.1989 30.1621 17.859L25.5558 15.2401L12.1553 7.60402C11.778 7.38734 11.4268 7.29395 11.1167 7.29395C10.8066 7.29395 10.5227 7.40229 10.306 7.60402Z" fill="#00C1FF"/>
<path d="M10.306 30.5287L10.2388 30.4615C9.9698 30.1776 9.80542 29.733 9.80542 29.1651V8.96906C9.80542 8.34891 9.99595 7.88939 10.306 7.60547L21.749 19.0596L10.306 30.5287Z" fill="url(#paint0_linear_0_2094)"/>
<path d="M25.5707 22.8809L21.7489 19.0591L25.5595 15.2373L30.1658 17.8561C30.7449 18.1924 31.0848 18.6108 31.1371 19.0591C31.0848 19.4925 30.7598 19.9221 30.1658 20.262L25.5744 22.8809" fill="url(#paint1_linear_0_2094)"/>
<path d="M11.1278 30.8236C10.8028 30.8236 10.5338 30.7153 10.3171 30.5248L21.7451 19.0557L25.5557 22.8775L12.1552 30.5098C11.7891 30.7116 11.4379 30.8199 11.1278 30.8199" fill="url(#paint2_linear_0_2094)"/>
<path d="M21.7452 19.059L10.306 7.58988C10.5227 7.38815 10.8066 7.29102 11.1167 7.29102C11.4268 7.29102 11.778 7.38441 12.1553 7.60109L25.5558 15.2335L21.7452 19.0553" fill="url(#paint3_linear_0_2094)"/>
<path d="M10.2388 30.5949C9.9698 30.311 9.80542 29.8664 9.80542 29.2986V29.1641C9.80542 29.7319 9.96606 30.1765 10.2388 30.4604L10.306 30.5277L10.2388 30.5949Z" fill="url(#paint4_linear_0_2094)"/>
<path d="M25.6492 22.9626L25.567 22.8804L30.1733 20.2615C30.7524 19.9253 31.0924 19.5069 31.1447 19.0586C31.1447 19.2192 31.1036 19.3836 31.0363 19.533C30.8869 19.8431 30.603 20.142 30.1733 20.3848L25.6492 22.9663" fill="url(#paint5_linear_0_2094)"/>
<path d="M31.1333 19.0583C31.081 18.6249 30.756 18.1953 30.162 17.8553L25.5557 15.2365L25.6379 15.1543L30.162 17.7208C30.812 18.0869 31.1333 18.5726 31.1333 19.0583Z" fill="url(#paint6_linear_0_2094)"/>
<path d="M9.82031 8.96846V8.68453C9.84646 8.18392 9.9959 7.8066 10.2387 7.54883L10.306 7.61607C9.9959 7.87385 9.82031 8.34457 9.82031 8.96846Z" fill="url(#paint7_linear_0_2094)"/>
</g>
<defs>
<linearGradient id="paint0_linear_0_2094" x1="15.25" y1="14.3418" x2="5.30844" y2="24.123" gradientUnits="userSpaceOnUse">
<stop stop-color="#00A1FF"/>
<stop offset="0.26" stop-color="#00BEFF"/>
<stop offset="0.51" stop-color="#00D2FF"/>
<stop offset="0.76" stop-color="#00DFFF"/>
<stop offset="1" stop-color="#00E3FF"/>
</linearGradient>
<linearGradient id="paint1_linear_0_2094" x1="31.2971" y1="24.4607" x2="9.02171" y2="24.4607" gradientUnits="userSpaceOnUse">
<stop stop-color="#FFE000"/>
<stop offset="0.41" stop-color="#FFBD00"/>
<stop offset="0.78" stop-color="#FFA500"/>
<stop offset="1" stop-color="#FF9C00"/>
</linearGradient>
<linearGradient id="paint2_linear_0_2094" x1="22.1864" y1="21.1755" x2="5.49058" y2="37.765" gradientUnits="userSpaceOnUse">
<stop stop-color="#FF3A44"/>
<stop offset="1" stop-color="#C31162"/>
</linearGradient>
<linearGradient id="paint3_linear_0_2094" x1="6.04602" y1="6.43072" x2="13.4876" y2="13.8358" gradientUnits="userSpaceOnUse">
<stop stop-color="#32A071"/>
<stop offset="0.07" stop-color="#2DA771"/>
<stop offset="0.48" stop-color="#15CF74"/>
<stop offset="0.8" stop-color="#06E775"/>
<stop offset="1" stop-color="#00F076"/>
</linearGradient>
<linearGradient id="paint4_linear_0_2094" x1="11.3286" y1="4.92985" x2="2.69809" y2="13.5828" gradientUnits="userSpaceOnUse">
<stop stop-color="#008DE0"/>
<stop offset="0.26" stop-color="#00A7E0"/>
<stop offset="0.51" stop-color="#00B8E0"/>
<stop offset="0.76" stop-color="#00C4E0"/>
<stop offset="1" stop-color="#00C7E0"/>
</linearGradient>
<linearGradient id="paint5_linear_0_2094" x1="32.8709" y1="26.7628" x2="10.3773" y2="26.7628" gradientUnits="userSpaceOnUse">
<stop stop-color="#E0C500"/>
<stop offset="0.41" stop-color="#E0A600"/>
<stop offset="0.78" stop-color="#E09100"/>
<stop offset="1" stop-color="#E08900"/>
</linearGradient>
<linearGradient id="paint6_linear_0_2094" x1="32.8722" y1="22.9186" x2="10.3785" y2="22.9186" gradientUnits="userSpaceOnUse">
<stop stop-color="#FFE840"/>
<stop offset="0.41" stop-color="#FFCE40"/>
<stop offset="0.78" stop-color="#FFBC40"/>
<stop offset="1" stop-color="#FFB540"/>
</linearGradient>
<linearGradient id="paint7_linear_0_2094" x1="9.3673" y1="1.04499" x2="1.06381" y2="9.03099" gradientUnits="userSpaceOnUse">
<stop stop-color="#40B9FF"/>
<stop offset="0.26" stop-color="#40CEFF"/>
<stop offset="0.51" stop-color="#40DDFF"/>
<stop offset="0.76" stop-color="#40E7FF"/>
<stop offset="1" stop-color="#40EAFF"/>
</linearGradient>
<clipPath id="clip0_0_2094">
<rect width="124.696" height="37" fill="white" transform="translate(0.592773 0.566406)"/>
</clipPath>
</defs>
</svg>
