<svg width="20" height="20" viewBox="0 0 20 20" fill="none" xmlns="http://www.w3.org/2000/svg">
<g clip-path="url(#clip0_134_398)">
<path d="M10 0C4.48578 0 0 4.48578 0 10C0 15.5142 4.48578 20 10 20C15.5142 20 20 15.5142 20 10C20 4.48578 15.5142 0 10 0Z" fill="#10910A"/>
<path d="M14.375 10.8333H10.8333V14.375C10.8333 14.8351 10.46 15.2083 10 15.2083C9.53996 15.2083 9.16672 14.8351 9.16672 14.375V10.8333H5.625C5.16496 10.8333 4.79172 10.4601 4.79172 10C4.79172 9.53999 5.16496 9.16675 5.625 9.16675H9.16672V5.62503C9.16672 5.16499 9.53996 4.79175 10 4.79175C10.46 4.79175 10.8333 5.16499 10.8333 5.62503V9.16675H14.375C14.835 9.16675 15.2083 9.53999 15.2083 10C15.2083 10.4601 14.835 10.8333 14.375 10.8333Z" fill="white"/>
</g>
<defs>
<clipPath id="clip0_134_398">
<rect width="20" height="20" fill="white"/>
</clipPath>
</defs>
</svg>
