<svg width="20" height="20" viewBox="0 0 20 20" fill="none" xmlns="http://www.w3.org/2000/svg">
<path d="M17.0541 9.1454V4.10125C17.0541 2.90241 16.0723 1.91222 14.8734 1.91222H14.6018V1.57029C14.6018 0.714933 13.9084 0.0215108 13.053 0.0215108C12.1977 0.0215108 11.5043 0.714933 11.5043 1.57029V1.91222H5.82542V1.57029C5.82542 0.703059 5.12236 0 4.25513 0C3.3879 0 2.68484 0.703059 2.68484 1.57029V1.91222H2.45016C1.25128 1.91222 0.275635 2.90241 0.275635 4.10125V15.6837C0.275635 16.8826 1.25128 17.8732 2.45016 17.8732H9.27312C9.82881 18.5379 10.5234 19.0728 11.308 19.4402C12.0926 19.8077 12.9482 19.9987 13.8145 20C17.0713 20 19.7242 17.3466 19.7242 14.0897C19.7243 12.0255 18.6458 10.2017 17.0541 9.1454ZM12.3647 1.57029C12.3581 1.19557 12.6564 0.886417 13.0311 0.879791C13.0372 0.879705 13.0432 0.879662 13.0492 0.879705C13.4275 0.875704 13.7374 1.17909 13.7414 1.55738C13.7414 1.56168 13.7414 1.56599 13.7414 1.57029V3.24589H12.3647V1.57029ZM3.54527 1.57029C3.54936 1.18477 3.86523 0.875575 4.25074 0.879662C4.2514 0.879654 4.25206 0.879669 4.25272 0.879705C4.63966 0.879705 4.96499 1.18339 4.96499 1.57029V3.24589H3.54527V1.57029ZM1.13607 4.10125C1.13607 3.37681 1.72572 2.77265 2.45016 2.77265H2.68484V3.694C2.68484 3.93157 2.88326 4.10632 3.12087 4.10632H5.38466C5.62223 4.10632 5.82542 3.93157 5.82542 3.694V2.77265H11.5043V3.694C11.5027 3.74864 11.5123 3.80301 11.5325 3.8538C11.5527 3.90458 11.5831 3.95069 11.6218 3.98931C11.6605 4.02792 11.7066 4.05822 11.7574 4.07834C11.8083 4.09847 11.8626 4.10799 11.9173 4.10632H14.1811C14.2361 4.10815 14.2909 4.09881 14.3423 4.07884C14.3936 4.05888 14.4403 4.02871 14.4796 3.99017C14.519 3.95163 14.5501 3.90551 14.5711 3.85461C14.5921 3.8037 14.6025 3.74907 14.6018 3.694V2.77265H14.8734C15.6028 2.78001 16.1909 3.3719 16.1936 4.10125V5.48301H1.13607V4.10125ZM2.45016 17.0128C1.72572 17.0128 1.13607 16.4081 1.13607 15.6837V6.34344H16.1936V8.67754C15.4447 8.34874 14.6357 8.17912 13.8178 8.17943C10.5611 8.17943 7.90977 10.8367 7.90977 14.0936C7.90812 15.1167 8.1726 16.1227 8.67723 17.0128H2.45016ZM13.8145 19.1319C11.0277 19.1319 8.76848 16.8727 8.76848 14.0859C8.76848 11.299 11.0277 9.03982 13.8145 9.03982C16.6014 9.03982 18.8606 11.299 18.8606 14.0859V14.0859C18.8574 16.8714 16.6001 19.1288 13.8145 19.1319Z" fill="#767676"/>
<path d="M15.8412 14.0871H13.9564V11.4985C13.9564 11.2608 13.7638 11.0682 13.5262 11.0682C13.2886 11.0682 13.0959 11.2608 13.0959 11.4985V14.5168C13.0978 14.6318 13.1448 14.7415 13.2268 14.8221C13.3088 14.9026 13.4193 14.9477 13.5343 14.9475H15.8412C16.0788 14.9475 16.2714 14.7549 16.2714 14.5173C16.2714 14.2797 16.0788 14.0871 15.8412 14.0871Z" fill="#333333"/>
</svg>
