<svg width="21" height="25" viewBox="0 0 21 25" fill="none" xmlns="http://www.w3.org/2000/svg">
<path d="M19.0732 18.6113L18.9875 18.5864C17.7468 18.2524 17.3272 17.9331 16.7749 17.7222C16.3501 17.561 15.9942 17.4087 15.6946 17.268C16.468 17.1362 17.1726 16.9706 17.804 16.7729C19.2197 16.3262 19.7463 15.8647 19.802 15.8134L20.218 15.4282L19.7836 15.0634C18.7173 14.167 18.5108 12.0909 18.291 9.89364C18.0742 7.72058 17.8501 5.47351 16.8269 3.66879C15.6228 1.54444 13.5536 0.508063 10.4987 0.5C7.44676 0.508063 5.37762 1.54444 4.17283 3.66847C3.14963 5.47318 2.92551 7.72058 2.70871 9.89369C2.48971 12.091 2.28243 14.167 1.21605 15.0635L0.782452 15.4282L1.19847 15.8135C1.25341 15.8648 1.78076 16.3262 3.19655 16.773C3.82792 16.9707 4.53175 17.1363 5.3059 17.2681C5.00632 17.4087 4.64965 17.561 4.22486 17.7222C3.67262 17.9331 3.25294 18.2525 2.01219 18.5865L1.92725 18.6113C0.797874 18.9834 0.0375977 20.0308 0.0375977 21.2129V24.5H20.9621V21.2129C20.9621 20.0307 20.2026 18.9834 19.0732 18.6113ZM17.2963 9.99325C17.5066 12.1012 17.7065 14.1069 18.6799 15.3491C18.4016 15.4926 17.9805 15.6758 17.3769 15.8574C16.4512 16.1372 15.4133 16.3217 14.3755 16.4404C14.27 16.3364 14.2099 16.25 14.1755 16.1841C14.1711 16.1753 14.1674 16.165 14.163 16.1562L14.1586 15.5644C15.693 14.0454 16.9477 11.8031 16.9477 9.45494C16.9477 8.92758 16.9016 8.42297 16.8144 7.94324C16.8986 7.95421 16.9836 7.9641 17.0686 7.97254C17.1609 8.63977 17.229 9.32017 17.2963 9.99325ZM13.8928 14.3896C13.3185 15.0429 12.6756 15.5907 12.0325 15.9716C11.459 16.3129 10.9148 16.5004 10.5002 16.5004C10.0857 16.5004 9.54145 16.3129 8.96797 15.9716C8.32493 15.5908 7.68189 15.0429 7.10766 14.3896C5.80541 12.9054 5.0576 11.1139 5.05245 9.47176C5.92476 9.28318 6.80443 8.96569 7.68259 8.52108C8.87717 7.9161 10.0725 7.07529 11.2356 6.02204C11.3615 5.9081 11.486 5.7926 11.6091 5.67559C12.3848 6.25966 13.9015 7.25651 15.7488 7.73554C15.8806 8.27826 15.948 8.85357 15.948 9.45489C15.948 11.1021 15.1987 12.9002 13.8928 14.3896ZM15.9568 4.16174C16.4219 4.98206 16.706 5.93565 16.9009 6.94568C14.9313 6.67615 13.2036 5.5973 12.3284 4.96012C13.4826 3.75819 14.2136 2.73391 14.3966 2.46878C15.0368 2.8877 15.5502 3.44431 15.9568 4.16174ZM5.04293 4.16174C5.52195 3.31723 6.14737 2.69472 6.95532 2.25854C7.88031 1.75903 9.07349 1.50375 10.4987 1.50009C11.6604 1.503 12.6667 1.67259 13.5001 2.00476C13.1684 2.46873 12.102 3.89183 10.5478 5.29627C9.4521 6.28572 8.33295 7.07239 7.2197 7.63452C6.08296 8.20875 4.95138 8.54747 3.8462 8.646C4.0359 7.02148 4.32302 5.43211 5.04293 4.16174ZM3.62354 15.8574C3.02001 15.6758 2.59813 15.4927 2.31983 15.3491C3.29325 14.1069 3.49393 12.1012 3.70412 9.99255C3.71509 9.88122 3.7261 9.76989 3.73782 9.65781C3.84329 9.6505 3.94876 9.64169 4.05498 9.63072C4.11503 11.9144 5.34476 14.0835 6.84113 15.5644L6.83747 16.1562C6.83307 16.165 6.82941 16.1753 6.825 16.1841C6.7906 16.25 6.7305 16.3364 6.62503 16.4404C5.58716 16.3217 4.54858 16.1372 3.62354 15.8574ZM19.9624 23.4995H1.03806V21.2128C1.03806 20.4687 1.51413 19.8081 2.22528 19.5649L2.28097 19.5488C3.21628 19.2969 3.73191 19.0508 4.14719 18.8515C4.30759 18.7754 4.44602 18.708 4.58154 18.6567C5.70069 18.2304 7.24243 17.5581 7.71339 16.6426C7.73172 16.606 7.74489 16.5767 7.7522 16.5591L7.82106 16.4067C8.75051 17.0952 9.70561 17.4995 10.5002 17.4995C11.2942 17.4995 12.25 17.0952 13.1794 16.4067L13.2482 16.5591C13.2548 16.5752 13.268 16.606 13.2856 16.6411C13.7558 17.5566 15.299 18.2304 16.4197 18.6567C16.5537 18.708 16.6921 18.7754 16.8525 18.8515C17.2678 19.0508 17.7842 19.2969 18.7195 19.5488L18.7751 19.5649C19.4855 19.8081 19.9623 20.4687 19.9623 21.2128L19.9624 23.4995Z" fill="#0D99FF"/>
</svg>
