<?xml version="1.0" encoding="iso-8859-1"?>
<!-- Uploaded to: SVG Repo, www.svgrepo.com, Generator: SVG Repo Mixer Tools -->
<svg height="800px" width="800px" version="1.1" id="Layer_1" xmlns="http://www.w3.org/2000/svg" xmlns:xlink="http://www.w3.org/1999/xlink" 
	 viewBox="0 0 511.984 511.984" xml:space="preserve">
<path style="fill:#8CC153;" d="M405.315,363.566c0,5.875-4.797,10.672-10.656,10.672H117.324c-5.859,0-10.656-4.797-10.656-10.672
	v-60.67c0-5.858,4.797-10.655,10.656-10.655h277.335c5.859,0,10.656,4.797,10.656,10.655V363.566z"/>
<path style="fill:#434A54;" d="M501.313,245.32c-5.891,0-10.656,4.781-10.656,10.672c0,31.687-6.203,62.42-18.438,91.341
	c-11.812,27.937-28.733,53.03-50.295,74.592s-46.655,38.483-74.592,50.296c-28.921,12.233-59.654,18.437-91.341,18.437
	s-62.42-6.203-91.341-18.437c-27.938-11.812-53.03-28.734-74.592-50.296c-21.562-21.562-38.483-46.655-50.296-74.592
	c-12.232-28.921-18.435-59.654-18.435-91.341s6.203-62.42,18.437-91.341c11.812-27.937,28.733-53.03,50.296-74.592
	c21.562-21.562,46.654-38.483,74.592-50.296c28.92-12.233,59.653-18.436,91.34-18.436s62.42,6.203,91.341,18.437
	c25.858,10.938,49.264,26.25,69.701,45.562H377.91c-5.891,0-10.671,4.781-10.671,10.672s4.78,10.671,10.671,10.671h63.998
	c5.891,0,10.656-4.78,10.656-10.671V31.999c0-5.891-4.766-10.672-10.656-10.672s-10.671,4.781-10.671,10.672v37.39
	C385.441,26.358,323.802,0,255.992,0C114.605,0,0,114.605,0,255.992s114.605,255.992,255.992,255.992
	c141.386,0,255.992-114.605,255.992-255.992C511.984,250.101,507.203,245.32,501.313,245.32z"/>
<path style="fill:#A0D468;" d="M117.324,149.323c-5.859,0-10.656,4.812-10.656,10.672v63.998c0,5.859,0,15.468,0,21.327v63.998
	c0,5.875,4.797,10.672,10.656,10.672h277.335c5.859,0,10.656-4.797,10.656-10.672V245.32c0-5.859,0-15.468,0-21.327v-63.998
	c0-5.859-4.797-10.672-10.656-10.672H117.324z"/>
<path style="fill:#8CC153;" d="M298.46,233.993c0,23.562-19.094,42.67-42.655,42.67s-42.671-19.108-42.671-42.67
	s19.109-42.671,42.671-42.671S298.46,210.43,298.46,233.993z"/>
<path style="fill:#A0D468;" d="M106.668,336.443v10.671l0,0c0,5.891,4.766,10.672,10.656,10.672h277.335
	c5.891,0,10.656-4.781,10.656-10.672v-10.671H106.668z"/>
</svg>