<svg width="17" height="21" viewBox="0 0 17 21" fill="none" xmlns="http://www.w3.org/2000/svg">
<path d="M3.78218 1.68042C4.87437 1.68042 5.37593 2.19136 5.61031 2.53354C5.95249 3.03511 6.26187 3.84605 6.26187 5.04136V8.92261H7.29781L9.03687 10.6992H6.26187V15.7242C6.26187 16.1179 6.40718 16.4742 6.70718 16.7976C7.00249 17.1164 7.4853 17.2757 8.15093 17.2757C9.01343 17.2757 9.9228 16.7976 10.8884 15.832C11.8728 14.8476 12.3931 13.8351 12.44 12.7992L11.9947 12.8367C10.4197 12.8367 9.62749 11.9976 9.62749 10.3242C9.62749 9.75698 9.81031 9.25073 10.1806 8.81011C10.5509 8.3648 11.165 8.14448 12.0275 8.14448C12.9416 8.14448 13.7056 8.53823 14.3197 9.32573C14.9619 10.1132 15.2806 11.0742 15.2806 12.2085C15.2806 13.8867 14.5681 15.4851 13.1384 17.0132C11.7322 18.5414 9.04624 19.3054 8.10874 19.3054C6.60874 19.3054 6.03218 19.0101 5.54468 18.6773C5.05249 18.3398 4.41499 17.5382 4.41499 16.5351V10.6992H2.64312L0.936868 8.9273H4.41031V5.41636C4.41031 4.63355 3.62749 4.2023 3.11656 4.16011C3.07906 4.15542 3.03687 4.15542 2.99937 4.15542C2.72281 4.15542 2.44624 4.23511 2.33843 4.34761C2.11812 3.97729 1.90718 3.53667 1.71031 3.01636C1.71031 3.01636 1.88374 2.39292 2.45093 2.01792C2.84468 1.75542 3.21031 1.68042 3.78218 1.68042ZM3.78218 0.74292C3.20562 0.74292 2.58687 0.803857 1.93531 1.23042C1.10562 1.77886 0.838431 2.66011 0.810306 2.75854C0.754056 2.95073 0.763431 3.15698 0.838431 3.34448C1.05406 3.91167 1.28843 4.40854 1.53687 4.82573C1.68687 5.07417 1.93999 5.23823 2.22593 5.27573C2.26343 5.28042 2.30093 5.28511 2.34312 5.28511C2.53999 5.28511 2.73218 5.22417 2.89156 5.10698C2.91968 5.10229 2.95718 5.09761 2.99937 5.09761H3.03687C3.16343 5.10698 3.47281 5.24761 3.47281 5.42104V7.99448H0.936868C0.561868 7.99448 0.224368 8.21948 0.0743682 8.56167C-0.0709443 8.90854 -0.000631772 9.30698 0.261868 9.57886L1.96343 11.3554C2.14156 11.5382 2.38531 11.646 2.63843 11.646H3.47281V16.5445C3.47281 17.1632 3.65093 17.7867 3.98843 18.3492C4.26031 18.7992 4.62124 19.1929 5.01031 19.4601C5.70406 19.9382 6.49624 20.257 8.10874 20.257C9.30406 20.257 12.2337 19.3898 13.8228 17.6648C15.4119 15.9679 16.2181 14.1351 16.2181 12.2226C16.2181 10.8773 15.8244 9.71011 15.0509 8.75386C14.6619 8.25698 14.2119 7.8773 13.715 7.61948C13.1994 7.3523 12.6322 7.22105 12.0275 7.22105C10.8791 7.22105 10.0119 7.55855 9.45874 8.22417C9.20093 8.52886 9.00874 8.86167 8.88218 9.21323L7.96812 8.27573C7.78999 8.09761 7.55093 7.99448 7.29781 7.99448H7.19937V5.05073C7.19937 3.5273 6.75874 2.55698 6.38843 2.01323C5.99468 1.43198 5.22593 0.74292 3.78218 0.74292ZM7.19937 11.6414H8.85874C8.99937 12.1242 9.22437 12.532 9.53374 12.8601C9.96968 13.3242 10.5509 13.6148 11.2634 13.7273C11.0525 14.2054 10.7056 14.6929 10.2228 15.1757C9.44937 15.9492 8.75093 16.3429 8.15093 16.3429C7.78531 16.3429 7.50406 16.2773 7.39624 16.1648C7.22281 15.9773 7.19937 15.832 7.19937 15.7289V11.6414Z" fill="#0D99FF"/>
</svg>
