<svg width="51" height="50" viewBox="0 0 51 50" fill="none" xmlns="http://www.w3.org/2000/svg">
<path d="M10.2918 36.875C8.2085 34.5834 6.9585 32.0834 6.9585 27.9167C6.9585 20.625 12.1668 14.1667 19.4585 10.8334L21.3335 13.5417C14.4585 17.2917 13.0002 22.0834 12.5835 25.2084C13.6252 24.5834 15.0835 24.375 16.5418 24.5834C20.2918 25 23.2085 27.9167 23.2085 31.875C23.2085 33.75 22.3752 35.625 21.1252 37.0834C19.6668 38.5417 18.0002 39.1667 15.9168 39.1667C13.6252 39.1667 11.5418 38.125 10.2918 36.875ZM31.1252 36.875C29.0418 34.5834 27.7918 32.0834 27.7918 27.9167C27.7918 20.625 33.0002 14.1667 40.2918 10.8334L42.1668 13.5417C35.2918 17.2917 33.8335 22.0834 33.4168 25.2084C34.4585 24.5834 35.9168 24.375 37.3752 24.5834C41.1252 25 44.0418 27.9167 44.0418 31.875C44.0418 33.75 43.2085 35.625 41.9585 37.0834C40.7085 38.5417 38.8335 39.1667 36.7502 39.1667C34.4585 39.1667 32.3752 38.125 31.1252 36.875Z" fill="#3DADFF"/>
</svg>
