<svg width="134" height="38" viewBox="0 0 134 38" fill="none" xmlns="http://www.w3.org/2000/svg">
<g clip-path="url(#clip0_0_2023)">
<path d="M128.848 37.1315H4.94863C2.19939 37.1315 0 35.1153 0 32.5494V5.24027C0 2.76595 2.19939 0.658203 4.94863 0.658203H128.848C131.597 0.658203 133.796 2.67431 133.796 5.24027V32.641C133.796 35.1153 131.597 37.1315 128.848 37.1315Z" fill="black"/>
<path d="M30.4249 13.9455C30.4249 16.4198 28.4088 18.4359 25.9345 18.4359C23.4602 18.4359 21.4441 16.4198 21.4441 13.9455C21.4441 11.4712 23.4602 9.45508 25.9345 9.45508C28.4088 9.45508 30.4249 11.4712 30.4249 13.9455Z" fill="#02CCC0"/>
<path d="M33.8158 26.4084C33.8158 27.0499 33.2659 27.5081 32.7161 27.5081H19.1532C18.5117 27.5081 18.0535 26.9583 18.0535 26.4084C18.0535 22.6511 21.0776 19.627 24.8349 19.627H27.126C30.7916 19.627 33.8158 22.6511 33.8158 26.4084Z" fill="#02CCC0"/>
<path d="M16.3122 26.4094C16.3122 26.6843 16.4038 26.9593 16.4954 27.2342H12.1883C11.7301 27.2342 11.3635 26.8676 11.3635 26.4094V26.0428C11.3635 23.4769 13.4713 21.3691 16.0372 21.3691H16.7704C17.3202 21.3691 17.8701 21.4608 18.3283 21.6441C17.0453 23.0187 16.3122 24.6682 16.3122 26.4094Z" fill="#02CCC0"/>
<path d="M19.6114 17.2464C19.6114 19.0792 18.1451 20.5454 16.3123 20.5454C14.4794 20.5454 13.0132 19.0792 13.0132 17.2464C13.0132 15.4135 14.4794 13.9473 16.3123 13.9473C18.1451 13.9473 19.6114 15.4135 19.6114 17.2464Z" fill="#02CCC0"/>
<path d="M35.5568 26.4094C35.5568 26.6843 35.4651 26.9593 35.3735 27.2342H39.6806C40.1388 27.2342 40.5054 26.8676 40.5054 26.4094V26.0428C40.5054 23.4769 38.3976 21.3691 35.8317 21.3691H35.0986C34.5487 21.3691 33.9989 21.4608 33.5406 21.6441C34.9153 23.0187 35.5568 24.6682 35.5568 26.4094Z" fill="#02CCC0"/>
<path d="M32.2578 17.2464C32.2578 19.0792 33.7241 20.5454 35.5569 20.5454C37.3897 20.5454 38.856 19.0792 38.856 17.2464C38.856 15.4135 37.3897 13.9473 35.5569 13.9473C33.7241 13.9473 32.2578 15.4135 32.2578 17.2464Z" fill="#02CCC0"/>
<path d="M51.3191 5.33203V6.34009H49.303V12.755H48.1117V6.34009H46.0956V5.33203H51.3191Z" fill="white"/>
<path d="M57.8257 6.79785V12.6629H56.6344V11.9298C56.4511 12.2047 56.1762 12.388 55.9012 12.4796C55.6263 12.6629 55.2597 12.6629 54.8932 12.6629C54.435 12.6629 53.9768 12.5713 53.6102 12.388C53.2436 12.2047 52.9687 11.9298 52.7854 11.5632C52.6021 11.1966 52.5105 10.7384 52.5105 10.1886V6.79785H53.7018V10.0969C53.7018 10.6468 53.7935 11.0134 54.0684 11.2883C54.3433 11.5632 54.7099 11.7465 55.1681 11.7465C55.6263 11.7465 55.9929 11.5632 56.2678 11.2883C56.5427 11.0134 56.6344 10.6468 56.6344 10.0969V6.79785H57.8257Z" fill="white"/>
<path d="M60.8499 7.80553V11.013C60.8499 11.1963 60.9415 11.3795 61.0332 11.4712C61.1248 11.5628 61.3081 11.6545 61.583 11.6545H62.3161V12.6625H61.3997C60.8499 12.6625 60.3917 12.5709 60.1167 12.296C59.8418 12.021 59.6585 11.6545 59.6585 11.013V7.80553H58.9254V6.79747H59.5669V5.42285H60.7582V6.88911H62.2245V7.89717L60.8499 7.80553Z" fill="white"/>
<path d="M64.4239 12.3878C63.9657 12.1129 63.5991 11.7463 63.3242 11.2881C63.0493 10.8299 62.9576 10.2801 62.9576 9.73022C62.9576 9.08873 63.0493 8.63052 63.3242 8.17232C63.5991 7.71411 63.9657 7.34754 64.4239 7.07262C64.8821 6.7977 65.3403 6.70605 65.9818 6.70605C66.6233 6.70605 67.0815 6.7977 67.5397 7.07262C67.9979 7.34754 68.3645 7.71411 68.6394 8.17232C68.9143 8.63052 69.006 9.18037 69.006 9.73022C69.006 10.3717 68.9143 10.8299 68.6394 11.2881C68.3645 11.7463 67.9979 12.1129 67.5397 12.3878C67.0815 12.6627 66.5317 12.7544 65.9818 12.7544C65.3403 12.846 64.8821 12.6627 64.4239 12.3878ZM66.8066 11.563C67.0815 11.3798 67.2648 11.1965 67.4481 10.9216C67.6314 10.6466 67.723 10.2801 67.723 9.82186C67.723 9.36365 67.6314 8.99709 67.4481 8.72216C67.2648 8.44724 67.0815 8.17232 66.8066 8.08067C66.5317 7.89739 66.2567 7.89739 65.8902 7.89739C65.6152 7.89739 65.2487 7.98903 65.0654 8.08067C64.7905 8.26396 64.6072 8.44724 64.4239 8.72216C64.2406 8.99709 64.149 9.36365 64.149 9.82186C64.149 10.4634 64.3323 10.9216 64.6072 11.2881C64.9738 11.6547 65.3403 11.838 65.7985 11.838C66.2567 11.7463 66.5317 11.6547 66.8066 11.563Z" fill="white"/>
<path d="M72.1219 6.98098C72.3968 6.7977 72.7633 6.70605 73.1299 6.70605V7.98903H72.855C72.3968 7.98903 72.0302 8.08067 71.7553 8.3556C71.4804 8.63052 71.3887 8.99709 71.3887 9.63858V12.7544H70.1974V6.7977H71.3887V7.62247C71.572 7.43919 71.8469 7.16426 72.1219 6.98098Z" fill="white"/>
<path d="M75.1459 12.5713C74.7794 12.388 74.5044 12.2047 74.3212 11.9298C74.1379 11.6548 73.9546 11.2883 73.9546 10.9217H75.2376C75.2376 11.1966 75.4209 11.3799 75.6041 11.5632C75.7874 11.7465 76.0623 11.8381 76.4289 11.8381C76.7955 11.8381 77.0704 11.7465 77.2537 11.6548C77.437 11.5632 77.5286 11.3799 77.5286 11.105C77.5286 10.9217 77.437 10.7384 77.2537 10.6468C77.0704 10.5551 76.7038 10.4635 76.2456 10.2802C75.7874 10.1886 75.4209 10.0053 75.1459 9.91366C74.871 9.82202 74.5961 9.63873 74.4128 9.36381C74.2295 9.08889 74.1379 8.81396 74.1379 8.4474C74.1379 8.17247 74.2295 7.80591 74.4128 7.62262C74.5044 7.3477 74.7794 7.16442 75.1459 6.98113C75.5125 6.79785 75.8791 6.79785 76.3373 6.79785C76.9788 6.79785 77.5286 6.98113 77.9868 7.3477C78.3534 7.71426 78.6283 8.17247 78.6283 8.72232H77.437C77.437 8.4474 77.3453 8.26411 77.162 8.08083C76.9788 7.89755 76.7038 7.80591 76.4289 7.80591C76.154 7.80591 75.8791 7.89755 75.6958 7.98919C75.5125 8.08083 75.4209 8.26411 75.4209 8.4474C75.4209 8.63068 75.5125 8.72232 75.6041 8.81396C75.6958 8.9056 75.8791 8.99724 76.0623 9.08889C76.2456 9.18053 76.4289 9.18053 76.7955 9.27217C77.2537 9.36381 77.5286 9.45545 77.8035 9.63873C78.0785 9.73037 78.3534 9.91366 78.5367 10.1886C78.7199 10.4635 78.8116 10.7384 78.8116 11.105C78.8116 11.4716 78.7199 11.7465 78.5367 12.0214C78.3534 12.2963 78.0785 12.4796 77.7119 12.6629C77.3453 12.8462 76.9788 12.8462 76.5206 12.8462C75.9707 12.8462 75.5125 12.7545 75.1459 12.5713Z" fill="white"/>
<path d="M46.8288 19.9027C47.1953 19.2612 47.7452 18.7113 48.3867 18.3448C49.0282 17.9782 49.8529 17.7949 50.6777 17.7949C51.6858 17.7949 52.5105 18.0698 53.2437 18.5281C53.9768 18.9863 54.5267 19.7194 54.8016 20.6358H52.7855C52.6022 20.1776 52.3273 19.9027 51.9607 19.7194C51.5941 19.5361 51.1359 19.4445 50.6777 19.4445C50.1279 19.4445 49.6697 19.5361 49.3031 19.811C48.9365 20.086 48.57 20.3609 48.3867 20.8191C48.2034 21.2773 48.0201 21.7355 48.0201 22.377C48.0201 22.9268 48.1118 23.4767 48.3867 23.9349C48.6616 24.3931 48.9365 24.7597 49.3031 24.9429C49.6697 25.2179 50.1279 25.3095 50.6777 25.3095C51.1359 25.3095 51.5941 25.2179 51.9607 25.0346C52.3273 24.8513 52.6022 24.4847 52.7855 24.1182H54.8016C54.5267 25.0346 53.9768 25.6761 53.2437 26.2259C52.5105 26.6841 51.6858 26.9591 50.6777 26.9591C49.8529 26.9591 49.1198 26.7758 48.3867 26.4092C47.7452 26.0426 47.1953 25.4928 46.8288 24.8513C46.4622 24.2098 46.2789 23.385 46.2789 22.5603C46.2789 21.7355 46.3706 20.6358 46.8288 19.9027Z" fill="white"/>
<path d="M57.5508 26.3184C57.0009 26.0435 56.6343 25.5853 56.2678 25.0354C55.9929 24.4856 55.8096 23.8441 55.8096 23.111C55.8096 22.3778 55.9929 21.7363 56.2678 21.1865C56.5427 20.6366 57.0009 20.1784 57.5508 19.9035C58.1006 19.6286 58.7421 19.4453 59.3836 19.4453C60.0251 19.4453 60.6666 19.6286 61.2164 19.9035C61.7663 20.1784 62.2245 20.6366 62.4994 21.1865C62.7743 21.7363 62.9576 22.3778 62.9576 23.111C62.9576 23.8441 62.7743 24.4856 62.4994 25.0354C62.1328 25.5853 61.7663 26.0435 61.2164 26.3184C60.6666 26.5933 60.0251 26.7766 59.3836 26.7766C58.7421 26.7766 58.1006 26.5933 57.5508 26.3184ZM60.3 25.0354C60.5749 24.8522 60.8498 24.6689 60.9415 24.3023C61.1248 24.0274 61.2164 23.5692 61.2164 23.2026C61.2164 22.5611 61.0331 22.0113 60.6666 21.6447C60.3 21.2781 59.9334 21.0949 59.3836 21.0949C58.9254 21.0949 58.4672 21.2781 58.1006 21.6447C57.734 22.0113 57.5508 22.4695 57.5508 23.2026C57.5508 23.9357 57.734 24.3939 58.009 24.7605C58.3755 25.1271 58.7421 25.3104 59.2919 25.3104C59.7501 25.2187 60.0251 25.1271 60.3 25.0354Z" fill="white"/>
<path d="M75.0542 20.3609C75.604 20.9108 75.879 21.6439 75.879 22.5603V26.6842H74.1378V22.8352C74.1378 22.2854 73.9545 21.8272 73.6796 21.5522C73.4046 21.2773 73.0381 21.094 72.5799 21.094C72.1217 21.094 71.7551 21.2773 71.4802 21.5522C71.2053 21.8272 71.022 22.2854 71.022 22.8352V26.6842H69.2808V22.8352C69.2808 22.2854 69.0975 21.8272 68.8226 21.5522C68.5477 21.2773 68.1811 21.094 67.7229 21.094C67.2647 21.094 66.8065 21.2773 66.5315 21.5522C66.2566 21.8272 66.0733 22.2854 66.0733 22.8352V26.6842H64.3322V19.7194H66.0733V20.5442C66.2566 20.2693 66.6232 19.9943 66.9898 19.8111C67.3563 19.6278 67.7229 19.5361 68.1811 19.5361C68.7309 19.5361 69.1891 19.6278 69.6474 19.9027C70.1056 20.1776 70.3805 20.4525 70.6554 20.9108C70.8387 20.5442 71.2053 20.1776 71.6635 19.9027C72.1217 19.6278 72.5799 19.5361 73.0381 19.5361C73.8629 19.5361 74.5043 19.8111 75.0542 20.3609Z" fill="white"/>
<path d="M88.2506 20.3609C88.8005 20.9108 89.0754 21.6439 89.0754 22.5603V26.6842H87.3342V22.8352C87.3342 22.2854 87.1509 21.8272 86.876 21.5522C86.6011 21.2773 86.2345 21.094 85.7763 21.094C85.3181 21.094 84.9515 21.2773 84.6766 21.5522C84.4017 21.8272 84.2184 22.2854 84.2184 22.8352V26.6842H82.4772V22.8352C82.4772 22.2854 82.2939 21.8272 82.019 21.5522C81.7441 21.2773 81.3775 21.094 80.9193 21.094C80.4611 21.094 80.0029 21.2773 79.728 21.5522C79.453 21.8272 79.2698 22.2854 79.2698 22.8352V26.6842H77.5286V19.7194H79.2698V20.5442C79.453 20.2693 79.8196 19.9943 80.1862 19.8111C80.5527 19.6278 80.9193 19.5361 81.3775 19.5361C81.9274 19.5361 82.3856 19.6278 82.8438 19.9027C83.302 20.1776 83.5769 20.4525 83.8518 20.9108C84.0351 20.5442 84.4017 20.1776 84.8599 19.9027C85.3181 19.6278 85.7763 19.5361 86.2345 19.5361C87.0593 19.5361 87.7008 19.8111 88.2506 20.3609Z" fill="white"/>
<path d="M97.3231 19.7196V26.6843H95.5819V25.7679C95.3987 26.0428 95.0321 26.3177 94.6655 26.501C94.299 26.6843 93.9324 26.776 93.4742 26.776C92.9243 26.776 92.4661 26.6843 92.0079 26.4094C91.5497 26.1345 91.2748 25.8595 90.9999 25.4013C90.7249 24.9431 90.6333 24.3933 90.6333 23.7518V19.6279H92.3745V23.4769C92.3745 24.0267 92.5578 24.4849 92.8327 24.7598C93.1076 25.0348 93.4742 25.2181 93.9324 25.2181C94.3906 25.2181 94.7572 25.0348 95.0321 24.7598C95.307 24.4849 95.4903 24.0267 95.4903 23.4769V19.6279H97.3231V19.7196Z" fill="white"/>
<path d="M104.929 20.3609C105.479 20.9108 105.662 21.6439 105.662 22.5603V26.6842H103.921V22.8352C103.921 22.2854 103.738 21.8272 103.463 21.5522C103.188 21.2773 102.822 21.094 102.363 21.094C101.905 21.094 101.447 21.2773 101.172 21.5522C100.897 21.8272 100.714 22.2854 100.714 22.8352V26.6842H98.9727V19.7194H100.714V20.5442C100.989 20.2693 101.264 19.9943 101.63 19.8111C101.997 19.6278 102.363 19.5361 102.822 19.5361C103.738 19.5361 104.379 19.8111 104.929 20.3609Z" fill="white"/>
<path d="M107.495 18.5283C107.312 18.345 107.22 18.0701 107.22 17.7952C107.22 17.5202 107.312 17.2453 107.495 17.062C107.679 16.8788 107.953 16.7871 108.228 16.7871C108.503 16.7871 108.778 16.8788 108.962 17.062C109.145 17.2453 109.236 17.5202 109.236 17.7952C109.236 18.0701 109.145 18.345 108.962 18.5283C108.778 18.7116 108.503 18.8032 108.228 18.8032C107.953 18.8032 107.679 18.7116 107.495 18.5283ZM109.145 19.7196V26.6844H107.404V19.7196H109.145Z" fill="white"/>
<path d="M112.902 21.0943V24.4851C112.902 24.76 112.994 24.8516 113.085 25.0349C113.177 25.1265 113.36 25.2182 113.635 25.2182H114.46V26.6844H113.36C111.894 26.6844 111.161 25.9513 111.161 24.4851V21.0943H110.336V19.6281H111.161V17.9785H112.902V19.7197H114.46V21.186H112.902V21.0943Z" fill="white"/>
<path d="M122.433 19.7197L118.126 29.9836H116.293L117.759 26.5012L115.01 19.7197H117.026L118.859 24.5767L120.692 19.7197H122.433Z" fill="white"/>
</g>
<defs>
<clipPath id="clip0_0_2023">
<rect width="133.796" height="36.6565" fill="white" transform="translate(0 0.566406)"/>
</clipPath>
</defs>
</svg>
