<?xml version="1.0" encoding="utf-8"?>
<!-- Generator: Adobe Illustrator 17.1.0, SVG Export Plug-In . SVG Version: 6.00 Build 0)  -->
<!DOCTYPE svg PUBLIC "-//W3C//DTD SVG 1.1//EN" "http://www.w3.org/Graphics/SVG/1.1/DTD/svg11.dtd">
<svg version="1.1" id="Layer_1" xmlns="http://www.w3.org/2000/svg" xmlns:xlink="http://www.w3.org/1999/xlink" x="0px" y="0px"
	 viewBox="0 0 727 800" enable-background="new 0 0 727 800" xml:space="preserve">
<g>
	<path fill="#3D3C3C" d="M302.1,370.9l2.7,45c0,0,37.5,14.9,53.7,14.9c16.2,0,63.9-14.9,63.9-14.9l2.7-45H302.1L302.1,370.9z"/>
	<g>
		<path fill="#F4B382" d="M4,147.3c0-8.2,35-3.8,45.7-6l12.4,5.8c77-4.7,112.9,1.1,112.9,1.1c45.9-4.9,128.4-2,145.7,1.1
			c10.4,1.8,0.9,47.5-12.2,47.5c-20-2-118.2-18.4-133.5-20.2C173,176.4,61.9,166,61.9,166s-4.4,0-12,2.7
			c-10.2,3.5-25.5,2.7-33.7-1.3C9.5,164.2,4,155.8,4,147.3z"/>
		<path fill="#F4B382" d="M38.8,146.7c0,0-11.1,0.9-12.2-4.9c-0.9-4.9-0.7-6.7,22.8,1.6C49.5,143.3,49,146.7,38.8,146.7z"/>
		<path fill="#F4B382" d="M723.1,147.3c0-8.2-35-3.8-45.7-6l-12.4,5.8c-77-4.7-112.9,1.1-112.9,1.1c-45.9-4.9-128.4-2-145.7,1.1
			c-10.4,1.8-0.9,47.5,12.2,47.5c20-2,118.2-18.4,133.5-20.2c2-0.2,113.1-10.6,113.1-10.6s4.4,0,12,2.7c10.2,3.5,25.5,2.7,33.7-1.3
			C717.6,164.2,723.1,155.8,723.1,147.3z"/>
		<path fill="#F4B382" d="M688.3,146.7c0,0,11.1,0.9,12.2-4.9c0.9-4.9,0.7-6.7-22.8,1.6C677.7,143.3,678.1,146.7,688.3,146.7z"/>
	</g>
	<path fill="#B3233B" d="M422.3,221.9c4.2-25.5-16.6-71.9-16.6-71.9c-10-1.3-20.4-1.8-28.2-1.8h-27.9c-8,0-18.2,0.4-28.2,1.8
		c0,0-20.9,46.6-16.6,71.9c4,23.7,10.6,58.6-2.7,149.3h61.4l0,0H425C411.7,280.4,418.4,245.6,422.3,221.9z"/>
	<path fill="#E2A379" d="M382.2,122.5h-37.5c5.8,17.7,0.4,25.7,0.4,25.7s1.1,11.5,18.4,11.5c17.1,0,18.2-11.5,18.2-11.5
		S376.4,140.2,382.2,122.5z"/>
	<path fill="#F4B382" d="M401.9,71c0-44.6-17.3-54.8-38.4-54.8c-21.3,0-38.4,10.2-38.4,54.8c0,15.1,2.7,26.8,6.7,35.9
		c8.9,20,24.2,27.1,31.7,27.1c7.5,0,22.8-7.1,31.7-27.1C399.3,97.9,401.9,86.1,401.9,71z"/>
	<path fill="#D6876B" d="M374.4,115.8c0,0-4.9,2.4-10.9,2.4s-10.9-2.4-10.9-2.4c0-0.7,3.5-4.7,5.8-4.9c1.3-0.2,5.1,1.1,5.1,1.1
		s3.5-1.3,5.1-1.1C370.9,111.2,374.4,115.8,374.4,115.8z"/>
	<path fill="#CC785E" d="M374.4,115.8c0,0-4.9,4.4-10.9,4.4s-10.9-4.4-10.9-4.4s1.1-1.3,7.5-1.8c1.1,0,2.4,0.9,3.3,0.9
		c0.9,0,2-0.9,2.9-0.9C373.1,114.5,374.4,115.8,374.4,115.8z"/>
	<ellipse fill="#4C230C" cx="363.6" cy="18.4" rx="20.2" ry="13.8"/>
	<path fill="#602F0F" d="M403.5,72.8c0-44.6-12.2-56.6-39.9-56.6s-39.9,12.2-39.9,56.6c0,0,59.2-12.9,59.2-29.1
		C382.9,60.2,403.5,72.8,403.5,72.8z"/>
	<g>
		<path fill="#F4B382" d="M321.4,86.8c2,12.2,4.7,12.6,8.4,12l-4-26.4C322.1,73,319.2,74.6,321.4,86.8z"/>
		<path fill="#F4B382" d="M401.3,72.4l-4,26.4c3.8,0.7,6.2,0,8.4-12C407.9,74.6,405,73,401.3,72.4z"/>
	</g>
	<g>
		<path fill="#602F0F" d="M328.1,74.8c-0.2-1.3-0.2-2.4-0.2-3.5c0-1.3,0.2-2.2,0.2-2.2l-4.4,1.8c0,0.7,0,1.3,0,2
			c0,0,0.4-0.2,1.3-0.4c0,0,0,0-0.2,0c0.7,1.1,1.3,2.7,2.2,5.1C327,77.5,328.7,78.8,328.1,74.8z"/>
		<path fill="#602F0F" d="M399.1,71.5c0,0.9,0,2.2-0.2,3.3c-0.7,4,1.1,2.7,1.1,2.7c0.7-2.4,1.6-4,2.2-5.1c0.9,0.2,1.3,0.4,1.3,0.4
			c0-0.7,0-1.3,0-2l-4.4-1.8C398.8,69,399.1,69.9,399.1,71.5"/>
	</g>
	<path fill="#F4B382" d="M409.7,795c-8.9-2.2-29.9-19.3-32.8-20.6c-4.9-2.4-12.2-4.7-12.2-12.4c0-5.5,0.9-10.9,0.4-14.4
		c-1.3-18.4-9.1-53.9-10.6-76.3c-0.2-5.1-0.4-10.4-0.7-16c-0.2-22,44.8-8.7,43.9-0.7c-2.7,31.9-8.9,87.4-11.3,98.7
		c0,0,32.8,23.1,31.7,31.5C417.9,789.7,418.6,797.3,409.7,795z"/>
	<g>
		<path fill="#3D3C3C" d="M359.4,583.4c-3.8,25.3-5.3,49.7-5.1,71.6c7.3-2.7,37.3-2.9,43.9-0.7c0.7-8,1.1-14.4,1.3-18.4
			c0.7-20,0.7-51,0.7-51c1.6-18,34.4-142,31.9-169s-7.1-44.8-7.1-44.8h-28.8c-5.8,17.7-37,13.8-40.1,31.7
			c1.8,39.3,4.4,98.3,3.1,128.2C358.2,548.8,359.4,583.4,359.4,583.4z"/>
		<path fill="#3D3C3C" d="M295.9,435.9c-22.2,3.1-39.5,4.2-63.7,6.2c-3.8,6.7-6.7,36.4-5.5,43.3c-13.5,2.4-81.2,20-81.2-16.6
			c0-53.7,162.1-93.6,156.6-97.8c0,0,68.8,35.5,33.7,55.5C335.8,426.4,318.1,433,295.9,435.9z"/>
	</g>
	<path fill="#282828" d="M202.7,447.7c0,0,22-6.2,41.7-10.6C244.2,437.2,230.7,435,202.7,447.7z"/>
	<path fill="#E2A379" d="M360,489.6c-0.4-9.1,0.4-45,1.1-48.4c1.1-8-2-14.2-9.5-16.2c-5.8-1.6-11.5-0.4-14.9,1.1
		c-20.9,8.9-71.4,4.7-104.5,14c-5.1,1.6-8,46.1-5.5,45.3c43.7-15.1,95.2-31.5,111.4-37c0,0,1.6,47.5,10,47.9
		C353.1,496.7,360.5,498.7,360,489.6z"/>
</g>
</svg>
