<svg width="56" height="56" viewBox="0 0 56 56" fill="none" xmlns="http://www.w3.org/2000/svg">
<path opacity="0.2" d="M28.0002 33.25C20.6279 33.2615 13.3836 31.3234 7.00195 27.6321V45.5C7.00195 45.7298 7.04722 45.9573 7.13516 46.1697C7.22311 46.382 7.35201 46.5749 7.51451 46.7374C7.67702 46.8999 7.86993 47.0288 8.08225 47.1167C8.29458 47.2047 8.52214 47.25 8.75195 47.25H47.252C47.4818 47.25 47.7093 47.2047 47.9216 47.1167C48.134 47.0288 48.3269 46.8999 48.4894 46.7374C48.6519 46.5749 48.7808 46.382 48.8687 46.1697C48.9567 45.9573 49.002 45.7298 49.002 45.5V27.6301C42.6195 31.3227 35.3739 33.2616 28.0002 33.25Z" fill="#F249C8"/>
<path d="M47.252 15.75H8.75195C7.78545 15.75 7.00195 16.5335 7.00195 17.5V45.5C7.00195 46.4665 7.78545 47.25 8.75195 47.25H47.252C48.2185 47.25 49.002 46.4665 49.002 45.5V17.5C49.002 16.5335 48.2185 15.75 47.252 15.75Z" stroke="#F249C8" stroke-width="3" stroke-linecap="round" stroke-linejoin="round"/>
<path d="M36.7511 15.75V12.25C36.7511 11.3217 36.3824 10.4315 35.726 9.77513C35.0696 9.11875 34.1794 8.75 33.2511 8.75H22.7511C21.8228 8.75 20.9326 9.11875 20.2762 9.77513C19.6198 10.4315 19.2511 11.3217 19.2511 12.25V15.75" stroke="#F249C8" stroke-width="3" stroke-linecap="round" stroke-linejoin="round"/>
<path d="M49.0023 27.6301C42.6198 31.3227 35.3742 33.2616 28.0005 33.25C20.6281 33.2616 13.3837 31.3234 7.00195 27.632" stroke="#F249C8" stroke-width="3" stroke-linecap="round" stroke-linejoin="round"/>
<path d="M25.3745 26.25H30.6245" stroke="#F249C8" stroke-width="3" stroke-linecap="round" stroke-linejoin="round"/>
</svg>
