<svg width="56" height="56" viewBox="0 0 56 56" fill="none" xmlns="http://www.w3.org/2000/svg">
<path opacity="0.2" d="M28 49C39.598 49 49 39.598 49 28C49 16.402 39.598 7 28 7C16.402 7 7 16.402 7 28C7 39.598 16.402 49 28 49Z" fill="#FF8800"/>
<path d="M28 49C39.598 49 49 39.598 49 28C49 16.402 39.598 7 28 7C16.402 7 7 16.402 7 28C7 39.598 16.402 49 28 49Z" stroke="#FF8800" stroke-width="3" stroke-miterlimit="10"/>
<path d="M37.0952 33.2492C36.1727 34.8448 34.8467 36.1697 33.2502 37.0907C31.6538 38.0118 29.8431 38.4967 28 38.4967C26.157 38.4967 24.3463 38.0119 22.7498 37.0908C21.1534 36.1698 19.8273 34.845 18.9048 33.2494" stroke="#FF8800" stroke-width="3" stroke-linecap="round" stroke-linejoin="round"/>
<path d="M20.125 22.5C20.7463 22.5 21.25 23.0037 21.25 23.625C21.25 24.2463 20.7463 24.75 20.125 24.75C19.5037 24.75 19 24.2463 19 23.625C19 23.0037 19.5037 22.5 20.125 22.5Z" fill="#FF8800" stroke="#FF8800" stroke-width="3"/>
<path d="M35.875 22.5C36.4963 22.5 37 23.0037 37 23.625C37 24.2463 36.4963 24.75 35.875 24.75C35.2537 24.75 34.75 24.2463 34.75 23.625C34.75 23.0037 35.2537 22.5 35.875 22.5Z" fill="#FF8800" stroke="#FF8800" stroke-width="3"/>
</svg>
