<svg width="100" height="25" viewBox="0 0 100 25" fill="none" xmlns="http://www.w3.org/2000/svg">
<path d="M27.8035 0.29882C29.3035 0.199218 30.5035 1.29484 30.6035 2.68927C30.6035 2.88847 30.6035 2.98808 30.6035 3.18728C30.6035 5.07972 29.6035 6.17534 27.8035 6.17534H25.6035V0.199219H27.8035V0.29882ZM26.6035 5.47813H27.7035C28.7035 5.57773 29.6035 4.78091 29.7035 3.68529C29.7035 3.58569 29.7035 3.38648 29.7035 3.28688C29.8035 2.29086 29.1035 1.29484 28.1035 1.19524C28.0035 1.19524 27.9035 1.19524 27.7035 1.19524H26.6035V5.47813Z" fill="white"/>
<path d="M31.7037 3.9838C31.6037 2.78858 32.4037 1.79256 33.6037 1.69296C34.8037 1.59336 35.8037 2.39017 35.9037 3.5854C35.9037 3.685 35.9037 3.8842 35.9037 3.9838C36.0037 5.17903 35.2037 6.17505 34.0037 6.27465C32.8037 6.37425 31.8037 5.57744 31.7037 4.38221C31.7037 4.28261 31.7037 4.18301 31.7037 3.9838ZM35.0037 3.9838C35.0037 2.98778 34.6037 2.48977 33.8037 2.48977C33.0037 2.48977 32.6037 3.08739 32.6037 3.9838C32.6037 4.97983 33.0037 5.57744 33.8037 5.57744C34.6037 5.57744 35.0037 4.97983 35.0037 3.9838Z" fill="white"/>
<path d="M41.6036 6.27457H40.7036L39.8036 2.98771H39.7036L38.8036 6.27457H37.9036L36.7036 1.79248H37.6036L38.4036 5.17895H38.5036L39.4036 1.79248H40.3036L41.2036 5.17895H41.3036L42.1036 1.79248H43.0036L41.6036 6.27457Z" fill="white"/>
<path d="M43.9038 1.79255H44.8038V2.48977H44.9038C45.1038 1.99176 45.7038 1.69295 46.2038 1.69295C47.0038 1.59335 47.7038 2.19096 47.8038 3.08738C47.8038 3.18698 47.8038 3.28658 47.8038 3.38619V6.27464H46.9038V3.58539C46.9038 2.88817 46.6038 2.48977 45.9038 2.48977C45.3038 2.48977 44.8038 2.88817 44.8038 3.48579C44.8038 3.58539 44.8038 3.58539 44.8038 3.68499V6.27464H43.9038V1.79255Z" fill="white"/>
<path d="M49.1035 0H50.0035V6.27493H49.1035V0Z" fill="white"/>
<path d="M51.2037 3.9838C51.1037 2.78858 51.9037 1.79256 53.1037 1.69296C54.3037 1.59336 55.3037 2.39017 55.4037 3.5854C55.4037 3.685 55.4037 3.8842 55.4037 3.9838C55.5037 5.17903 54.7037 6.17505 53.5037 6.27465C52.3037 6.37425 51.3037 5.57744 51.2037 4.38221C51.2037 4.28261 51.2037 4.18301 51.2037 3.9838ZM54.6037 3.9838C54.6037 2.98778 54.2037 2.48977 53.4037 2.48977C52.6037 2.48977 52.2037 3.08739 52.2037 3.9838C52.2037 4.97983 52.6037 5.57744 53.4037 5.57744C54.1037 5.57744 54.6037 4.97983 54.6037 3.9838Z" fill="white"/>
<path d="M56.4037 4.98023C56.4037 4.18341 57.0037 3.6854 58.1037 3.6854L59.3037 3.5858V3.18739C59.3037 2.68938 59.0037 2.49018 58.4037 2.49018C57.9037 2.49018 57.6037 2.68938 57.5037 2.98819H56.6037C56.7037 2.19137 57.4037 1.69336 58.4037 1.69336C59.5037 1.69336 60.2037 2.29097 60.2037 3.18739V6.27505H59.3037V5.67744H59.2037C58.9037 6.17545 58.4037 6.37466 57.8037 6.37466C57.1037 6.47426 56.4037 5.87665 56.3037 5.17943C56.4037 5.07983 56.4037 5.07983 56.4037 4.98023ZM59.3037 4.58182V4.18341L58.2037 4.28301C57.6037 4.28301 57.3037 4.58182 57.3037 4.88063C57.3037 5.27903 57.7037 5.47824 58.1037 5.47824C58.7037 5.67744 59.2037 5.27903 59.3037 4.58182C59.3037 4.68142 59.3037 4.68142 59.3037 4.58182Z" fill="white"/>
<path d="M61.3037 3.98408C61.3037 2.58965 62.0037 1.69324 63.2037 1.69324C63.8037 1.69324 64.3037 1.99204 64.6037 2.49005H64.7037V0H65.6037V6.27493H64.7037V5.57772H64.6037C64.3037 6.07573 63.8037 6.37453 63.2037 6.37453C62.1037 6.37453 61.3037 5.47811 61.3037 3.98408ZM62.3037 3.98408C62.3037 4.9801 62.8037 5.47811 63.5037 5.47811C64.2037 5.47811 64.7037 4.8805 64.7037 3.98408C64.7037 3.08766 64.2037 2.49005 63.5037 2.49005C62.7037 2.49005 62.3037 3.08766 62.3037 3.98408Z" fill="white"/>
<path d="M69.2037 3.9838C69.1037 2.78858 69.9037 1.79256 71.1037 1.69296C72.3037 1.59336 73.3037 2.39017 73.4037 3.5854C73.4037 3.685 73.4037 3.8842 73.4037 3.9838C73.5037 5.17903 72.7037 6.17505 71.5037 6.27465C70.3037 6.37425 69.3037 5.57744 69.2037 4.38221C69.2037 4.28261 69.2037 4.18301 69.2037 3.9838ZM72.6037 3.9838C72.6037 2.98778 72.2037 2.48977 71.4037 2.48977C70.6037 2.48977 70.2037 3.08739 70.2037 3.9838C70.2037 4.97983 70.6037 5.57744 71.4037 5.57744C72.1037 5.57744 72.6037 4.97983 72.6037 3.9838Z" fill="white"/>
<path d="M74.7036 1.79255H75.6036V2.48977H75.7036C75.9036 1.99176 76.5036 1.69295 77.0036 1.69295C77.8036 1.59335 78.5036 2.19096 78.6036 3.08738C78.6036 3.18698 78.6036 3.28658 78.6036 3.38619V6.27464H77.7036V3.58539C77.7036 2.88817 77.4036 2.48977 76.7036 2.48977C76.1036 2.48977 75.6036 2.88817 75.6036 3.48579C75.6036 3.58539 75.6036 3.58539 75.6036 3.68499V6.27464H74.7036V1.79255Z" fill="white"/>
<path d="M83.5037 0.697266V1.79289H84.5037V2.5897H83.5037V4.88055C83.5037 5.37856 83.7037 5.57777 84.1037 5.57777C84.2037 5.57777 84.3037 5.57777 84.4037 5.57777V6.27498C84.2037 6.27498 84.1037 6.27498 83.9037 6.27498C82.9037 6.27498 82.5037 5.97618 82.5037 5.07976V2.5897H81.8037V1.89249H82.5037V0.697266H83.5037Z" fill="white"/>
<path d="M85.7036 0H86.6036V2.49005H86.7036C86.9036 1.99204 87.5036 1.59363 88.1036 1.69324C88.9036 1.69324 89.6036 2.29085 89.7036 3.08766C89.7036 3.18727 89.7036 3.28687 89.7036 3.38647V6.27493H88.8036V3.58567C88.8036 2.88846 88.5036 2.49005 87.8036 2.49005C87.2036 2.49005 86.7036 2.88846 86.7036 3.48607C86.7036 3.58567 86.7036 3.58568 86.7036 3.68528V6.27493H85.8036L85.7036 0Z" fill="white"/>
<path d="M94.8035 5.07935C94.6035 5.87617 93.7035 6.47378 92.8035 6.37418C91.7035 6.37418 90.7035 5.47776 90.7035 4.38213C90.7035 4.28253 90.7035 4.18293 90.7035 4.08333C90.5035 2.98771 91.3035 1.89208 92.5035 1.79248C92.6035 1.79248 92.7035 1.79248 92.8035 1.79248C94.1035 1.79248 94.8035 2.6889 94.8035 4.08333V4.38213H91.6035C91.5035 5.07935 92.0035 5.57736 92.7035 5.67696H92.8035C93.2035 5.77656 93.7035 5.47776 93.9035 5.17895L94.8035 5.07935ZM91.6035 3.58532H93.9035C93.9035 2.98771 93.5035 2.4897 92.9035 2.39009H92.8035C92.2035 2.4897 91.6035 2.98771 91.6035 3.58532Z" fill="white"/>
<path d="M14.8037 11.852C14.8037 10.1588 15.7037 8.56514 17.2037 7.66872C16.3037 6.37389 14.8037 5.57708 13.2037 5.47747C11.5037 5.27827 9.90374 6.47349 9.00374 6.47349C8.10374 6.47349 6.80374 5.47747 5.40374 5.47747C3.50374 5.57708 1.80374 6.5731 0.903743 8.16673C-0.996257 11.4536 0.403743 16.4337 2.30374 19.123C3.20374 20.4178 4.30374 21.9118 5.70374 21.9118C7.10374 21.8122 7.60374 21.0154 9.30374 21.0154C11.0037 21.0154 11.4037 21.9118 12.9037 21.9118C14.4037 21.9118 15.3037 20.617 16.2037 19.2226C16.9037 18.3261 17.4037 17.2305 17.7037 16.1349C15.9037 15.5373 14.8037 13.7444 14.8037 11.852Z" fill="white"/>
<path d="M12.0037 3.7849C12.8037 2.78888 13.2037 1.59365 13.1037 0.298828C11.9037 0.39843 10.7037 0.996042 9.90368 1.99206C9.10368 2.88848 8.70368 4.08371 8.80368 5.37853C10.1037 5.37853 11.2037 4.78092 12.0037 3.7849Z" fill="white"/>
<path d="M32.3039 18.6258H27.6039L26.5039 22.0123H24.5039L29.0039 9.66162H31.0039L35.5039 22.0123H33.5039L32.3039 18.6258ZM28.1039 17.1318H31.9039L30.0039 11.6537H29.9039L28.1039 17.1318Z" fill="white"/>
<path d="M45.2041 17.5298C45.2041 20.3186 43.7041 22.1115 41.4041 22.1115C40.2041 22.2111 39.1041 21.5139 38.6041 20.5178V24.9999H36.7041V13.0477H38.5041V14.5417C39.1041 13.5457 40.2041 12.9481 41.4041 12.9481C43.6041 12.8485 45.2041 14.7409 45.2041 17.5298ZM43.2041 17.5298C43.2041 15.7369 42.3041 14.5417 40.8041 14.5417C39.4041 14.5417 38.4041 15.7369 38.4041 17.5298C38.4041 19.3226 39.4041 20.5178 40.8041 20.5178C42.3041 20.5178 43.2041 19.3226 43.2041 17.5298Z" fill="white"/>
<path d="M55.104 17.5298C55.104 20.3186 53.604 22.1115 51.304 22.1115C50.104 22.2111 49.004 21.5139 48.504 20.5178V24.9999H46.604V13.0477H48.404V14.5417C49.004 13.5457 50.104 12.9481 51.304 12.9481C53.604 12.8485 55.104 14.7409 55.104 17.5298ZM53.204 17.5298C53.204 15.7369 52.304 14.5417 50.804 14.5417C49.404 14.5417 48.404 15.7369 48.404 17.5298C48.404 19.3226 49.404 20.5178 50.804 20.5178C52.304 20.5178 53.204 19.3226 53.204 17.5298Z" fill="white"/>
<path d="M61.7039 18.5262C61.8039 19.7214 63.0039 20.5182 64.7039 20.5182C66.3039 20.5182 67.4039 19.7214 67.4039 18.6258C67.4039 17.6298 66.7039 17.1318 65.1039 16.7334L63.5039 16.3349C61.2039 15.7373 60.2039 14.7413 60.2039 13.0481C60.2039 10.9564 62.1039 9.4624 64.7039 9.4624C67.3039 9.4624 69.1039 10.9564 69.2039 13.0481H67.3039C67.2039 11.8529 66.2039 11.056 64.7039 11.056C63.2039 11.056 62.2039 11.8529 62.2039 12.9485C62.2039 13.8449 62.9039 14.3429 64.5039 14.7413L65.9039 15.0401C68.4039 15.6377 69.5039 16.6338 69.5039 18.4266C69.5039 20.7174 67.6039 22.2115 64.7039 22.2115C61.9039 22.2115 60.1039 20.817 60.0039 18.5262H61.7039Z" fill="white"/>
<path d="M73.3041 10.8564V12.9481H75.0041V14.4421H73.3041V19.4222C73.3041 20.219 73.6041 20.5178 74.4041 20.5178C74.6041 20.5178 74.8041 20.5178 75.0041 20.5178V22.0119C74.7041 22.1115 74.3041 22.1115 74.0041 22.1115C72.2041 22.1115 71.5041 21.4143 71.5041 19.721V14.5417H70.2041V13.0477H71.5041V10.956H73.3041V10.8564Z" fill="white"/>
<path d="M76.104 17.5299C76.104 14.7411 77.804 12.9482 80.404 12.9482C83.004 12.9482 84.704 14.7411 84.704 17.5299C84.704 20.4184 83.004 22.1116 80.404 22.1116C77.704 22.1116 76.104 20.3188 76.104 17.5299ZM82.804 17.5299C82.804 15.5379 81.904 14.4423 80.404 14.4423C78.904 14.4423 78.004 15.5379 78.004 17.5299C78.004 19.522 78.904 20.6176 80.404 20.6176C81.904 20.6176 82.804 19.4224 82.804 17.5299Z" fill="white"/>
<path d="M86.2041 12.9484H88.0041V14.5421C88.2041 13.546 89.2041 12.8488 90.2041 12.9484C90.4041 12.9484 90.6041 12.9484 90.8041 13.048V14.7413C90.5041 14.6417 90.2041 14.6417 90.0041 14.6417C89.0041 14.6417 88.1041 15.4385 88.1041 16.4345C88.1041 16.5341 88.1041 16.6337 88.1041 16.7333V22.1118H86.2041V12.9484Z" fill="white"/>
<path d="M99.4041 19.3228C99.2041 20.9164 97.5041 22.1116 95.5041 22.1116C92.9041 22.1116 91.2041 20.3188 91.2041 17.5299C91.2041 14.7411 92.8041 12.8486 95.4041 12.8486C97.9041 12.8486 99.5041 14.5419 99.5041 17.3307V17.9283H93.1041V18.0279C93.0041 19.3228 93.9041 20.4184 95.2041 20.6176C95.3041 20.6176 95.4041 20.6176 95.5041 20.6176C96.4041 20.7172 97.3041 20.2192 97.6041 19.3228H99.4041ZM93.1041 16.6335H97.6041C97.7041 15.4383 96.7041 14.4423 95.5041 14.3427C95.4041 14.3427 95.4041 14.3427 95.3041 14.3427C94.1041 14.3427 93.1041 15.3387 93.1041 16.6335Z" fill="white"/>
</svg>
