<svg width="101" height="24" viewBox="0 0 101 24" fill="none" xmlns="http://www.w3.org/2000/svg">
<path d="M50.7522 13.4636C48.7661 13.4636 47.0779 14.927 47.0779 17.0733C47.0779 19.1221 48.7661 20.6831 50.7522 20.6831C52.7383 20.6831 54.4265 19.1221 54.4265 17.0733C54.4265 15.0245 52.7383 13.4636 50.7522 13.4636ZM50.7522 19.2197C49.6598 19.2197 48.6668 18.3416 48.6668 17.0733C48.6668 15.805 49.6598 14.927 50.7522 14.927C51.8445 14.927 52.8376 15.805 52.8376 17.0733C52.8376 18.3416 51.8445 19.2197 50.7522 19.2197ZM42.7085 13.4636C40.7224 13.4636 39.0342 14.927 39.0342 17.0733C39.0342 19.1221 40.7224 20.6831 42.7085 20.6831C44.6946 20.6831 46.3828 19.1221 46.3828 17.0733C46.3828 15.0245 44.6946 13.4636 42.7085 13.4636ZM42.7085 19.2197C41.6161 19.2197 40.6231 18.3416 40.6231 17.0733C40.6231 15.805 41.6161 14.927 42.7085 14.927C43.8008 14.927 44.7939 15.805 44.7939 17.0733C44.7939 18.3416 43.8008 19.2197 42.7085 19.2197ZM33.1752 14.6343V16.1953H36.9488C36.8495 17.0733 36.5516 17.6587 36.0551 18.1465C35.5585 18.6343 34.6648 19.2197 33.1752 19.2197C30.8912 19.2197 29.1037 17.4636 29.1037 15.2197C29.1037 12.9758 30.8912 11.2197 33.1752 11.2197C34.4662 11.2197 35.3599 11.7075 35.9557 12.2928L37.0481 11.2197C36.1544 10.3416 34.8634 9.65869 33.1752 9.65869C29.9975 9.65869 27.4155 12.0977 27.4155 15.2197C27.4155 18.3416 30.0968 20.7806 33.1752 20.7806C34.8634 20.7806 36.1544 20.1953 37.1474 19.2197C38.1405 18.2441 38.5377 16.7806 38.5377 15.7075C38.5377 15.3172 38.5377 15.0245 38.4384 14.7319H33.1752V14.6343ZM72.3013 15.805C72.0034 15.0245 71.1097 13.5611 69.1236 13.5611C67.2368 13.5611 65.6479 15.0245 65.6479 17.1709C65.6479 19.1221 67.2368 20.7806 69.3222 20.7806C71.0104 20.7806 72.0034 19.805 72.4006 19.2197L71.1097 18.4392C70.7124 19.0245 70.1166 19.4148 69.3222 19.4148C68.5277 19.4148 67.9319 19.0245 67.5347 18.3416L72.4999 16.3904L72.3013 15.805ZM67.2368 16.9758C67.2368 15.6099 68.3291 14.927 69.1236 14.927C69.7194 14.927 70.3152 15.2197 70.5138 15.7075L67.2368 16.9758ZM63.2646 20.3904H64.8535V9.95138H63.2646V20.3904ZM60.5834 14.3416C60.1861 13.9514 59.491 13.5611 58.5973 13.5611C56.7105 13.5611 55.1216 15.1221 55.1216 17.1709C55.1216 19.2197 56.8098 20.6831 58.5973 20.6831C59.491 20.6831 60.1861 20.2928 60.4841 19.9026H60.5834V20.3904C60.5834 21.7563 59.7889 22.5367 58.5973 22.5367C57.6042 22.5367 57.0084 21.8538 56.7105 21.2684L55.3202 21.8538C55.7174 22.8294 56.8098 24.0002 58.5973 24.0002C60.4841 24.0002 62.0729 22.927 62.0729 20.2928V13.7563H60.5834V14.3416ZM58.7959 19.2197C57.7035 19.2197 56.7105 18.3416 56.7105 17.0733C56.7105 15.805 57.6042 14.927 58.7959 14.927C59.8882 14.927 60.782 15.805 60.782 17.0733C60.782 18.3416 59.8882 19.2197 58.7959 19.2197ZM79.8485 9.95138H75.9756V20.488H77.5645V16.488H79.8485C81.636 16.488 83.4235 15.2197 83.4235 13.2684C83.4235 11.2197 81.636 9.95138 79.8485 9.95138ZM79.9478 15.0245H77.6638V11.4148H79.9478C81.1395 11.4148 81.8346 12.3904 81.8346 13.1709C81.8346 14.0489 81.1395 15.0245 79.9478 15.0245ZM89.8783 13.4636C88.6866 13.4636 87.495 13.9514 86.9984 15.0245L88.3887 15.6099C88.6866 15.0245 89.2825 14.8294 89.8783 14.8294C90.6727 14.8294 91.5665 15.3172 91.5665 16.1953V16.2928C91.2686 16.0977 90.6727 15.9026 89.8783 15.9026C88.2894 15.9026 86.7998 16.6831 86.7998 18.2441C86.7998 19.6099 88.0908 20.5855 89.4811 20.5855C90.5734 20.5855 91.1693 20.0977 91.5665 19.5123H91.6658V20.2928H93.2547V16.2928C93.1553 14.5367 91.7651 13.4636 89.8783 13.4636ZM89.6797 19.2197C89.1832 19.2197 88.3887 18.927 88.3887 18.3416C88.3887 17.5611 89.2825 17.1709 90.0769 17.1709C90.772 17.1709 91.0699 17.366 91.5665 17.5611C91.4672 18.5367 90.5734 19.2197 89.6797 19.2197ZM98.8157 13.7563L96.9289 18.3416H96.8296L94.9428 13.7563H93.1554L96.0352 20.0977L94.347 23.6099H96.0352L100.504 13.7563H98.8157ZM84.3172 20.3904H85.9061V9.95138H84.3172V20.3904Z" fill="white"/>
<path d="M0.901125 1.56104C0.603211 1.85372 0.503906 2.24396 0.503906 2.73177V21.2684C0.503906 21.7562 0.603211 22.1464 0.901125 22.4391L1.00043 22.5366L11.7254 12.0976V11.8049L0.901125 1.56104Z" fill="url(#paint0_linear_161_721)"/>
<path d="M15.201 15.61L11.626 12.0978V11.8052L15.201 8.29297H15.3003L19.5704 10.6344C20.762 11.3174 20.762 12.3905 19.5704 13.0735L15.201 15.61Z" fill="url(#paint1_linear_161_721)"/>
<path d="M15.3006 15.6103L11.6263 12.0981L0.901367 22.5372C1.29859 22.9274 1.99372 23.025 2.68886 22.6347L15.3006 15.6103Z" fill="url(#paint2_linear_161_721)"/>
<path d="M15.3006 8.48812L2.68886 1.56129C1.99372 1.17105 1.29859 1.17105 0.901367 1.65885L11.7256 12.0979L15.3006 8.48812Z" fill="url(#paint3_linear_161_721)"/>
<path d="M32.6787 3.02468C32.6787 4.68321 31.4871 5.75638 29.6996 5.75638H27.9121V0.292969H29.6996C31.4871 0.292969 32.6787 1.36614 32.6787 3.02468ZM29.6996 5.07346C30.9906 5.07346 31.6857 4.29297 31.6857 3.12224C31.6857 1.85395 30.9906 1.07346 29.6996 1.07346H28.8059V5.07346H29.6996Z" fill="white"/>
<path d="M35.4591 5.85402C34.1682 5.85402 33.2744 4.97597 33.2744 3.61011C33.2744 2.24426 34.2675 1.36621 35.4591 1.36621C36.7501 1.36621 37.6438 2.24426 37.6438 3.61011C37.7431 4.97597 36.7501 5.85402 35.4591 5.85402ZM35.4591 5.07353C36.1543 5.07353 36.8494 4.58572 36.8494 3.61011C36.8494 2.6345 36.2536 2.1467 35.5584 2.1467C34.8633 2.1467 34.2675 2.6345 34.2675 3.61011C34.1682 4.58572 34.764 5.07353 35.4591 5.07353Z" fill="white"/>
<path d="M38.1406 1.46387H39.0344L39.9281 4.8785L40.8219 1.46387H41.8149L42.7086 4.8785L43.6024 1.46387H44.4961L43.1059 5.75655H42.1128L41.2191 2.53704L40.3253 5.75655H39.3323L38.1406 1.46387Z" fill="white"/>
<path d="M48.2694 3.31743C48.2694 2.53694 47.8721 2.1467 47.177 2.1467C46.4819 2.1467 46.0847 2.53694 46.0847 3.31743V5.75645H45.1909V1.46377H46.0847V1.95158C46.3826 1.56133 46.8791 1.36621 47.3756 1.36621C48.3687 1.36621 49.1631 1.95158 49.1631 3.21987V5.75645H48.2694V3.31743Z" fill="white"/>
<path d="M50.355 0.000488281H51.2487V5.75659H50.355V0.000488281Z" fill="white"/>
<path d="M54.3273 5.85402C53.1356 5.85402 52.1426 4.97597 52.1426 3.61011C52.1426 2.24426 53.1356 1.36621 54.3273 1.36621C55.6182 1.36621 56.512 2.24426 56.512 3.61011C56.6113 4.97597 55.6182 5.85402 54.3273 5.85402ZM54.3273 5.07353C55.0224 5.07353 55.7176 4.58572 55.7176 3.61011C55.7176 2.6345 55.1217 2.1467 54.4266 2.1467C53.7315 2.1467 53.1356 2.6345 53.1356 3.61011C53.0363 4.58572 53.6321 5.07353 54.3273 5.07353Z" fill="white"/>
<path d="M59.2924 1.36621C59.9876 1.36621 60.5834 1.75645 60.782 2.04914V1.46377H61.6758V5.75645H60.782V5.07353C60.4841 5.46377 59.9876 5.75645 59.2924 5.75645C58.2001 5.75645 57.207 4.87841 57.207 3.51255C57.207 2.1467 58.1008 1.36621 59.2924 1.36621ZM59.491 2.1467C58.7959 2.1467 58.2001 2.6345 58.2001 3.61011C58.2001 4.58572 58.8952 5.07353 59.491 5.07353C60.1862 5.07353 60.782 4.58572 60.782 3.61011C60.782 2.6345 60.1862 2.1467 59.491 2.1467Z" fill="white"/>
<path d="M64.6547 1.36634C65.2506 1.36634 65.8464 1.65902 66.1443 2.04927V0.000488281H67.0381V5.75659H66.1443V5.07366C65.8464 5.4639 65.3499 5.75659 64.6547 5.75659C63.4631 5.75659 62.5693 4.87854 62.5693 3.51268C62.5693 2.14683 63.4631 1.36634 64.6547 1.36634ZM64.8534 2.14683C64.1582 2.14683 63.5624 2.63463 63.5624 3.61024C63.5624 4.58585 64.2575 5.07366 64.8534 5.07366C65.5485 5.07366 66.1443 4.58585 66.1443 3.61024C66.1443 2.63463 65.5485 2.14683 64.8534 2.14683Z" fill="white"/>
<path d="M72.2018 5.85402C71.0101 5.85402 70.0171 4.97597 70.0171 3.61011C70.0171 2.24426 71.0101 1.36621 72.2018 1.36621C73.4928 1.36621 74.3865 2.24426 74.3865 3.61011C74.4858 4.97597 73.4928 5.85402 72.2018 5.85402ZM72.2018 5.07353C72.8969 5.07353 73.5921 4.58572 73.5921 3.61011C73.5921 2.6345 72.9962 2.1467 72.3011 2.1467C71.606 2.1467 71.0101 2.6345 71.0101 3.61011C71.0101 4.58572 71.5067 5.07353 72.2018 5.07353Z" fill="white"/>
<path d="M78.5575 3.31743C78.5575 2.53694 78.1602 2.1467 77.4651 2.1467C76.77 2.1467 76.3727 2.53694 76.3727 3.31743V5.75645H75.479V1.46377H76.3727V1.95158C76.6707 1.56133 77.1672 1.36621 77.6637 1.36621C78.6568 1.36621 79.4512 1.95158 79.4512 3.21987V5.75645H78.5575V3.31743Z" fill="white"/>
<path d="M82.7285 2.14672H82.2319V1.4638H82.7285V0.390625H83.6222V1.4638H84.7146V2.14672H83.6222V4.48819C83.6222 4.78087 83.7215 4.97599 84.1187 4.97599H84.7146V5.75648H84.0194C83.225 5.75648 82.7285 5.4638 82.7285 4.58575V2.14672Z" fill="white"/>
<path d="M85.6079 0.000488281H86.5017V1.95171C86.7996 1.56146 87.2961 1.36634 87.8919 1.36634C88.885 1.36634 89.6794 1.95171 89.6794 3.22V5.75659H88.7857V3.31756C88.7857 2.53707 88.3885 2.14683 87.6933 2.14683C86.9982 2.14683 86.601 2.53707 86.601 3.31756V5.75659H85.7072V0.000488281H85.6079Z" fill="white"/>
<path d="M92.6588 5.85402C91.3679 5.85402 90.4741 4.97597 90.4741 3.61011C90.4741 2.24426 91.3679 1.36621 92.6588 1.36621C93.9498 1.36621 94.7442 2.24426 94.7442 3.51255C94.7442 3.70767 94.7442 3.80523 94.7442 3.9028H91.3679C91.4672 4.58572 91.9637 5.07353 92.6588 5.07353C93.2547 5.07353 93.5526 4.78084 93.6519 4.48816H94.6449C94.347 5.26865 93.6519 5.85402 92.6588 5.85402ZM91.3679 3.21987H93.7512C93.7512 2.53694 93.1554 2.1467 92.5595 2.1467C91.9637 2.1467 91.4672 2.53694 91.3679 3.21987Z" fill="white"/>
<defs>
<linearGradient id="paint0_linear_161_721" x1="10.6993" y1="21.5129" x2="-3.38039" y2="7.01226" gradientUnits="userSpaceOnUse">
<stop stop-color="#00A0FF"/>
<stop offset="0.0066" stop-color="#00A1FF"/>
<stop offset="0.2601" stop-color="#00BEFF"/>
<stop offset="0.5122" stop-color="#00D2FF"/>
<stop offset="0.7604" stop-color="#00DFFF"/>
<stop offset="1" stop-color="#00E3FF"/>
</linearGradient>
<linearGradient id="paint1_linear_161_721" x1="21.1028" y1="12.0361" x2="0.187089" y2="12.0361" gradientUnits="userSpaceOnUse">
<stop stop-color="#FFE000"/>
<stop offset="0.4087" stop-color="#FFBD00"/>
<stop offset="0.7754" stop-color="#FFA500"/>
<stop offset="1" stop-color="#FF9C00"/>
</linearGradient>
<linearGradient id="paint2_linear_161_721" x1="6.10415" y1="17.113" x2="-12.9891" y2="-2.55102" gradientUnits="userSpaceOnUse">
<stop stop-color="#FF3A44"/>
<stop offset="1" stop-color="#C31162"/>
</linearGradient>
<linearGradient id="paint3_linear_161_721" x1="-9.04592" y1="21.6718" x2="-0.52032" y2="12.8915" gradientUnits="userSpaceOnUse">
<stop stop-color="#32A071"/>
<stop offset="0.0685" stop-color="#2DA771"/>
<stop offset="0.4762" stop-color="#15CF74"/>
<stop offset="0.8009" stop-color="#06E775"/>
<stop offset="1" stop-color="#00F076"/>
</linearGradient>
</defs>
</svg>
