<svg width="33" height="33" viewBox="0 0 33 33" fill="none" xmlns="http://www.w3.org/2000/svg">
<path d="M16.2637 0.236328C7.44092 0.236328 0.263672 7.41358 0.263672 16.2363C0.263672 25.0591 7.44092 32.2363 16.2637 32.2363C25.0864 32.2363 32.2637 25.0591 32.2637 16.2363C32.2637 7.41358 25.0864 0.236328 16.2637 0.236328ZM24.373 12.8457L15.7063 21.5122C15.4463 21.7722 15.105 21.9031 14.7637 21.9031C14.4224 21.9031 14.081 21.7722 13.821 21.5122L9.4878 17.179C8.9663 16.6577 8.9663 15.815 9.4878 15.2937C10.009 14.7722 10.8515 14.7722 11.373 15.2937L14.7637 18.6843L22.4878 10.9605C23.009 10.439 23.8515 10.439 24.373 10.9605C24.8943 11.4817 24.8943 12.3242 24.373 12.8457Z" fill="white"/>
</svg>
