<svg width="28" height="33" viewBox="0 0 28 33" fill="none" xmlns="http://www.w3.org/2000/svg">
<path d="M14.2637 10.8613C17.1977 10.8613 19.5762 8.48284 19.5762 5.54883C19.5762 2.61482 17.1977 0.236328 14.2637 0.236328C11.3297 0.236328 8.95117 2.61482 8.95117 5.54883C8.95117 8.48284 11.3297 10.8613 14.2637 10.8613Z" fill="white"/>
<path d="M18.1674 11.581C17.0425 12.3114 15.7019 12.7363 14.2637 12.7363C12.8255 12.7363 11.4848 12.3114 10.36 11.581C9.10946 12.0589 7.95741 12.7626 6.96123 13.657L14.2637 16.3954L21.5661 13.657C20.57 12.7626 19.4179 12.0589 18.1674 11.581ZM25.5137 19.6113H24.8887C24.3709 19.6113 23.9512 20.0311 23.9512 20.5488V23.0488C23.9512 23.5666 24.3709 23.9863 24.8887 23.9863H25.5137C26.7218 23.9863 27.7012 23.0069 27.7012 21.7988C27.7012 20.5907 26.7218 19.6113 25.5137 19.6113ZM3.72967 14.8786C3.60516 14.9648 3.50342 15.08 3.43315 15.2142C3.36288 15.3484 3.32617 15.4976 3.32617 15.6491V17.7363H3.63867C5.18948 17.7363 6.45117 18.998 6.45117 20.5488V23.0488C6.45117 24.5996 5.18948 25.8613 3.63867 25.8613H3.32617V27.8366C3.32617 28.0275 3.38441 28.2138 3.49311 28.3706C3.60181 28.5275 3.7558 28.6474 3.93448 28.7144L13.3262 32.2363V18.0463L4.59286 14.7713C4.45103 14.7181 4.2984 14.7 4.14806 14.7187C3.99773 14.7374 3.85416 14.7922 3.72967 14.8786Z" fill="white"/>
<path d="M22.0762 23.0488V20.5488C22.0762 18.998 23.3379 17.7363 24.8887 17.7363H25.2012V15.6491C25.2012 15.4976 25.1645 15.3484 25.0942 15.2142C25.0239 15.08 24.9222 14.9648 24.7977 14.8786C24.6732 14.7923 24.5296 14.7374 24.3793 14.7188C24.2289 14.7001 24.0763 14.7181 23.9345 14.7713L15.2012 18.0463V32.2363L24.5929 28.7144C24.7715 28.6474 24.9255 28.5275 25.0342 28.3706C25.1429 28.2138 25.2012 28.0275 25.2012 27.8366V25.8613H24.8887C23.3379 25.8613 22.0762 24.5996 22.0762 23.0488ZM4.57617 23.0488V20.5488C4.57617 20.0311 4.15642 19.6113 3.63867 19.6113H3.01367C1.80555 19.6113 0.826172 20.5907 0.826172 21.7988C0.826172 23.0069 1.80555 23.9863 3.01367 23.9863H3.63867C4.15642 23.9863 4.57617 23.5666 4.57617 23.0488Z" fill="white"/>
</svg>
