<svg width="33" height="24" viewBox="0 0 33 24" fill="none" xmlns="http://www.w3.org/2000/svg">
<path d="M25.9702 7.56031C25.9497 7.54564 25.9306 7.52895 25.9134 7.51051L22.2995 3.89665C21.0762 2.71899 19.2218 4.56869 20.4036 5.79264L22.3171 7.7062C22.9048 8.30031 21.9779 9.23131 21.382 8.64189L18.4683 5.72819C18.2134 5.49457 17.8781 5.36838 17.5325 5.37594C17.1868 5.38349 16.8573 5.52421 16.6129 5.76874C16.3684 6.01328 16.2278 6.34274 16.2204 6.68843C16.2129 7.03412 16.3392 7.36934 16.5729 7.62418L19.0982 10.1494C19.6893 10.7412 18.7607 11.6862 18.159 11.0886L14.6342 7.56383C13.3997 6.38792 11.5652 8.22297 12.7382 9.45981L15.687 12.4087C15.7736 12.4975 15.8323 12.6098 15.856 12.7315C15.8796 12.8533 15.8671 12.9794 15.82 13.0942C15.8701 12.9696 15.88 12.8326 15.8484 12.7021C15.8167 12.5716 15.7452 12.4543 15.6437 12.3665C16.2325 12.9612 15.3038 13.8881 14.7103 13.3033L6.82288 5.41532C6.56824 5.18013 6.23247 5.05261 5.8859 5.05949C5.53934 5.06637 5.20889 5.2071 4.96378 5.45221C4.71868 5.69731 4.57794 6.02776 4.57107 6.37433C4.56419 6.72089 4.6917 7.05667 4.92689 7.3113L15.52 17.9044C16.1083 18.4962 15.1732 19.4319 14.5808 18.8431L13.7278 17.99C13.6676 17.9299 13.5933 17.8861 13.5116 17.8625C13.43 17.8389 13.3437 17.8364 13.2608 17.8552L10.1666 18.5554C8.62336 18.9017 7.96949 20.2926 8.38783 21.7779C8.4265 21.9782 8.58704 22.0562 8.80382 21.9876C10.3887 21.3507 12.7927 20.5879 14.8908 21.0449L16.5799 21.8171C18.2083 22.5511 20.0095 22.8147 21.7798 22.5782C22.398 22.4936 23.0274 22.5526 23.6191 22.7506C24.2108 22.9486 24.7489 23.2804 25.1916 23.7201C25.4376 23.9445 25.7892 24.1478 26.0827 23.8526L32.1498 17.7867C32.197 17.7395 32.2343 17.6833 32.2596 17.6215C32.2849 17.5597 32.2975 17.4934 32.2969 17.4266C32.2962 17.3599 32.2823 17.2939 32.2558 17.2326C32.2293 17.1712 32.1909 17.1158 32.1427 17.0695C30.542 15.5491 30.1723 14.5941 30.129 14.4716C28.308 9.44927 25.9954 7.57789 25.9702 7.56031ZM15.3185 13.5031C15.4501 13.4818 15.5721 13.4214 15.6689 13.3297C15.5726 13.4218 15.45 13.4823 15.3185 13.5031ZM28.2857 13.4047C28.3535 13.5623 28.3572 13.7401 28.2959 13.9004C28.2347 14.0607 28.1134 14.1908 27.9577 14.263C27.8021 14.3352 27.6245 14.344 27.4625 14.2873C27.3006 14.2306 27.1671 14.1131 27.0905 13.9596C26.4859 12.5127 25.6618 11.1676 24.6473 9.97189C24.5288 9.84214 24.4668 9.67067 24.4749 9.49519C24.4829 9.31972 24.5603 9.15461 24.69 9.0362C24.8198 8.9178 24.9913 8.85578 25.1667 8.8638C25.3422 8.87182 25.5073 8.94922 25.6257 9.07898C26.7348 10.3717 27.6325 11.8316 28.2857 13.4047Z" fill="white"/>
<path d="M6.69297 11.8984C6.83659 11.8798 6.96695 11.805 7.05537 11.6903C7.14379 11.5756 7.18304 11.4305 7.16447 11.2869C7.14591 11.1433 7.07105 11.0129 6.95637 10.9245C6.84169 10.8361 6.69659 10.7968 6.55297 10.8154C5.91664 10.8991 5.26984 10.8483 4.65437 10.6663C4.0389 10.4843 3.46848 10.1752 2.97997 9.7589C2.42636 9.29376 1.9891 8.70569 1.70305 8.04161C1.417 7.37752 1.29007 6.65578 1.3324 5.93395C1.37472 5.21211 1.58512 4.51015 1.94683 3.88405C2.30853 3.25794 2.81152 2.72501 3.41569 2.32776C4.01987 1.93051 4.70851 1.67992 5.42669 1.59598C6.14488 1.51204 6.87274 1.59708 7.55224 1.8443C8.23174 2.09153 8.84407 2.49411 9.3404 3.01993C9.83673 3.54575 10.2033 4.18027 10.411 4.87289C10.4539 5.00969 10.549 5.1241 10.6756 5.1914C10.8022 5.2587 10.9502 5.27349 11.0876 5.23259C11.2251 5.19168 11.3409 5.09836 11.4101 4.97277C11.4793 4.84719 11.4963 4.69942 11.4575 4.5614C10.2865 0.461395 4.89897 -0.940605 1.91597 2.1464C-1.93153 6.0054 1.29697 12.5649 6.69297 11.8984Z" fill="white"/>
<path d="M8.82103 5.15887C9.54703 4.65487 8.64103 3.83037 8.21653 3.43137C5.85553 1.37987 2.05653 3.37087 2.36703 6.47037C2.40633 6.93842 2.53854 7.39394 2.75591 7.81031C2.97328 8.22668 3.27146 8.59555 3.63303 8.89537C4.00803 9.17287 4.58003 9.69037 5.01703 9.27787C5.07796 9.21555 5.12324 9.13967 5.14915 9.05645C5.17506 8.97323 5.18086 8.88506 5.16607 8.79917C5.15129 8.71327 5.11633 8.63211 5.06409 8.56235C5.01184 8.49259 4.94379 8.43622 4.86553 8.39787C4.67381 8.30739 4.49424 8.19316 4.33103 8.05787C3.82864 7.63597 3.51443 7.03179 3.45751 6.37822C3.40059 5.72466 3.60563 5.07525 4.02753 4.57287C4.44942 4.07048 5.05361 3.75627 5.70717 3.69935C6.36073 3.64243 7.01014 3.84747 7.51253 4.26937C7.97403 4.55737 8.13903 5.50287 8.82103 5.15887Z" fill="white"/>
</svg>
